<?xml version="1.0" encoding="UTF-8" standalone="no"?>
<!-- Created with Inkscape (http://www.inkscape.org/) -->

<svg
   width="20.491272mm"
   height="17.214005mm"
   viewBox="0 0 20.491272 17.214005"
   version="1.1"
   id="svg5"
   xml:space="preserve"
   xmlns:inkscape="http://www.inkscape.org/namespaces/inkscape"
   xmlns:sodipodi="http://sodipodi.sourceforge.net/DTD/sodipodi-0.dtd"
   xmlns="http://www.w3.org/2000/svg"
   xmlns:svg="http://www.w3.org/2000/svg"><sodipodi:namedview
     id="namedview7"
     pagecolor="#ffffff"
     bordercolor="#000000"
     borderopacity="0.25"
     inkscape:showpageshadow="2"
     inkscape:pageopacity="0.0"
     inkscape:pagecheckerboard="0"
     inkscape:deskcolor="#d1d1d1"
     inkscape:document-units="mm"
     showgrid="false" /><defs
     id="defs2" /><g
     inkscape:label="Capa 1"
     inkscape:groupmode="layer"
     id="layer1"
     transform="translate(-53.760621,-213.42039)"><rect
       style="fill:none;stroke:none;stroke-width:0.264583"
       id="rect270"
       width="20.491272"
       height="17.213993"
       x="53.760624"
       y="213.42039"
       inkscape:export-filename="iconos-rounded3.svg"
       inkscape:export-xdpi="96"
       inkscape:export-ydpi="96" /><ellipse
       style="fill:#3366cc;fill-opacity:1;stroke:none;stroke-width:0.256495"
       id="path324"
       cx="63.890396"
       cy="222.42465"
       rx="5.3999691"
       ry="5.3668647" /><g
       id="g26"
       transform="matrix(0.01514622,0,0,0.01514622,60.158747,218.61327)"
       style="fill:#ffffff"><g
         id="g13"
         style="fill:#ffffff">
	<path
   d="m 195,275.3 c -4.8,0 -8.5,1.1 -12.1,2.3 -4.3,1.4 -8.8,2.8 -16.5,2.8 -7.7,0 -12.1,-1.4 -16.5,-2.8 -3.6,-1.1 -7.3,-2.3 -12.1,-2.3 -26.2,0 -47.6,21.4 -47.6,47.6 v 8.2 c 0,11.1 9.1,20.2 20.2,20.2 h 112.1 c 11.1,0 20.2,-9.1 20.2,-20.2 v -8.2 c 0,-26.2 -21.4,-47.6 -47.7,-47.6 z"
   id="path9"
   style="fill:#ffffff" />
	<path
   d="m 166.5,270.1 c 27.9,0 50.7,-22.7 50.7,-50.7 0,-27.9 -22.7,-50.7 -50.7,-50.7 -28,0 -50.7,22.7 -50.7,50.7 0,28 22.7,50.7 50.7,50.7 z"
   id="path11"
   style="fill:#ffffff" />
</g><path
         d="M 464,128 H 272 L 217.4,73.4 c -6,-6 -14.1,-9.4 -22.6,-9.4 H 48 C 21.5,64 0,85.5 0,112 v 288 c 0,26.5 21.5,48 48,48 h 416 c 26.5,0 48,-21.5 48,-48 V 176 c 0,-26.5 -21.5,-48 -48,-48 z m 0,272 H 48 V 112 h 140.1 l 54.6,54.6 c 6,6 14.1,9.4 22.6,9.4 H 464 Z"
         id="path15"
         style="fill:#ffffff" /></g></g></svg>
