<svg xmlns="http://www.w3.org/2000/svg" xmlns:xlink="http://www.w3.org/1999/xlink" width="296" height="151" viewBox="0 0 296 151">
  <defs>
    <clipPath id="clip-path">
      <rect id="Rectángulo_9088" data-name="Rectángulo 9088" width="296" height="151" rx="5" transform="translate(0.156)" fill="none" stroke="rgba(230,239,253,0)" stroke-width="1"/>
    </clipPath>
    <clipPath id="clip-path-2">
      <rect id="Rectángulo_9087" data-name="Rectángulo 9087" width="81.964" height="52.838"/>
    </clipPath>
  </defs>
  <g id="Ilustración_trámites_Carpeta_Ciudadana" data-name="Ilustración trámites Carpeta Ciudadana" transform="translate(-0.156)" clip-path="url(#clip-path)">
    <g id="Grupo_12522" transform="translate(47.182 12.367)">
      <ellipse id="Elipse_312_1_" cx="72.509" cy="5.413" rx="72.509" ry="5.413" transform="translate(0 113.396)" fill="#e5ecf8"/>
      <ellipse id="Elipse_312-2_1_" cx="72.509" cy="5.413" rx="72.509" ry="5.413" transform="translate(56.726 127.806)" fill="#e5ecf8"/>
      <g id="Grupo_12521_1_" transform="translate(22.909 0)">
        <g id="Grupo_12495_1_" transform="translate(69.705)">
          <path id="Trazado_7580_1_" d="M43.765,24.227V18.814a1.009,1.009,0,0,0-.991-.991H41.4a.893.893,0,0,1-.839-.686A19.326,19.326,0,0,0,38.2,11.342a.806.806,0,0,1,.152-1.067l.991-.991a.966.966,0,0,0,0-1.372L35.53,4.1a.966.966,0,0,0-1.372,0h0l-.991.991a.939.939,0,0,1-1.067.152A20.365,20.365,0,0,0,26.3,2.8a.893.893,0,0,1-.686-.839V.591A1.009,1.009,0,0,0,24.627-.4H19.214a1.009,1.009,0,0,0-.991.991h0V1.964a.893.893,0,0,1-.686.839,17.692,17.692,0,0,0-5.795,2.44.806.806,0,0,1-1.067-.152L9.683,4.1a.966.966,0,0,0-1.372,0L4.5,7.911a.966.966,0,0,0,0,1.372h0l.991.991a.939.939,0,0,1,.152,1.067,18.222,18.222,0,0,0-2.364,5.795.893.893,0,0,1-.839.686H.991A1.009,1.009,0,0,0,0,18.814H0v5.413a1.009,1.009,0,0,0,.991.991H2.364A.893.893,0,0,1,3.2,25.9,17.692,17.692,0,0,0,5.642,31.7a.806.806,0,0,1-.152,1.067l-.991.991a.966.966,0,0,0,0,1.372h0l3.812,3.812a.966.966,0,0,0,1.372,0h0l.991-.991a.939.939,0,0,1,1.067-.152,18.222,18.222,0,0,0,5.795,2.364.893.893,0,0,1,.686.839v1.372a1.009,1.009,0,0,0,.991.991h5.413a1.009,1.009,0,0,0,.991-.991h0v-1.3a.893.893,0,0,1,.686-.839A19.326,19.326,0,0,0,32.1,37.875a.806.806,0,0,1,1.067.152l.991.991a.966.966,0,0,0,1.372,0l3.812-3.812a.966.966,0,0,0,0-1.372h0l-.991-.991a.939.939,0,0,1-.152-1.067,18.222,18.222,0,0,0,2.364-5.795.893.893,0,0,1,.839-.686h1.372A1.074,1.074,0,0,0,43.765,24.227Zm-21.882,12.5A15.173,15.173,0,1,1,37.055,21.559,15.163,15.163,0,0,1,21.882,36.731Z" transform="translate(0 0.4)" fill="none" stroke="#dee1fa" stroke-miterlimit="10" stroke-width="0.79"/>
        </g>
        <g id="Grupo_12496_1_" transform="translate(9.327 30.574)">
          <path id="Trazado_7581_1_" d="M43.741,24.227V18.814a1.009,1.009,0,0,0-.991-.991H41.377a.893.893,0,0,1-.839-.686,19.326,19.326,0,0,0-2.364-5.795.806.806,0,0,1,.152-1.067l.991-.991a.966.966,0,0,0,0-1.372h0L35.507,4.1a.966.966,0,0,0-1.372,0h0l-.991.991a.939.939,0,0,1-1.067.152A20.365,20.365,0,0,0,26.281,2.8a.893.893,0,0,1-.686-.839V.591A1.009,1.009,0,0,0,24.6-.4H19.19A1.009,1.009,0,0,0,18.2.591h0V1.964a.893.893,0,0,1-.686.839,17.692,17.692,0,0,0-5.795,2.44.806.806,0,0,1-1.067-.152L9.659,4.1a.966.966,0,0,0-1.372,0h0L4.475,7.911a.966.966,0,0,0,0,1.372l.991.991a.939.939,0,0,1,.152,1.067,18.222,18.222,0,0,0-2.364,5.795.893.893,0,0,1-.839.686H.891a1.009,1.009,0,0,0-.991.991h0v5.413a1.009,1.009,0,0,0,.991.991H2.264A.893.893,0,0,1,3.1,25.9,19.326,19.326,0,0,0,5.466,31.7a.806.806,0,0,1-.152,1.067l-.991.991a.966.966,0,0,0,0,1.372l3.812,3.812a.966.966,0,0,0,1.372,0h0l.991-.991a.939.939,0,0,1,1.067-.152,18.222,18.222,0,0,0,5.795,2.364.893.893,0,0,1,.686.839v1.372a1.009,1.009,0,0,0,.991.991h5.413a1.009,1.009,0,0,0,.991-.991h0V41a.893.893,0,0,1,.686-.839A19.326,19.326,0,0,0,31.923,37.8a.806.806,0,0,1,1.067.152l.991.991a.966.966,0,0,0,1.372,0h0l3.812-3.812a.966.966,0,0,0,0-1.372l-.991-.991a.939.939,0,0,1-.152-1.067A18.222,18.222,0,0,0,40.386,25.9a.893.893,0,0,1,.839-.686H42.6a1.008,1.008,0,0,0,1.144-.991Zm-21.882,12.5A15.173,15.173,0,1,1,37.031,21.559,15.163,15.163,0,0,1,21.859,36.731Z" transform="translate(0.1 0.4)" fill="none" stroke="#dee1fa" stroke-miterlimit="10" stroke-width="0.79"/>
          <path id="Trazado_7582_1_" d="M80.612,50.674v-3.66a.683.683,0,0,0-.686-.686h-.915a.58.58,0,0,1-.61-.457,12.753,12.753,0,0,0-1.6-3.965.587.587,0,0,1,.076-.762l.686-.686a.7.7,0,0,0,0-.915h0L74.97,36.95a.7.7,0,0,0-.915,0h0l-.686.686a.587.587,0,0,1-.762.076,12.752,12.752,0,0,0-3.965-1.6.58.58,0,0,1-.457-.61v-.915A.683.683,0,0,0,67.5,33.9H63.914a.683.683,0,0,0-.686.686V35.5a.58.58,0,0,1-.457.61,12.752,12.752,0,0,0-3.965,1.6.587.587,0,0,1-.762-.076l-.686-.686a.7.7,0,0,0-.915,0L53.85,39.542a.7.7,0,0,0,0,.915l.686.686a.587.587,0,0,1,.076.762,12.753,12.753,0,0,0-1.6,3.965.58.58,0,0,1-.61.457h-.915a.683.683,0,0,0-.686.686h0v3.66a.683.683,0,0,0,.686.686H52.4a.58.58,0,0,1,.61.457,12.753,12.753,0,0,0,1.6,3.965.587.587,0,0,1-.076.762l-.686.686a.7.7,0,0,0,0,.915l2.592,2.592a.7.7,0,0,0,.915,0l.686-.686a.587.587,0,0,1,.762-.076,12.752,12.752,0,0,0,3.965,1.6.58.58,0,0,1,.457.61V63.1a.683.683,0,0,0,.686.686h3.66a.683.683,0,0,0,.686-.686h0v-.915a.58.58,0,0,1,.457-.61,12.753,12.753,0,0,0,3.965-1.6.587.587,0,0,1,.762.076l.686.686a.7.7,0,0,0,.915,0h0l2.592-2.592a.7.7,0,0,0,0-.915l-.762-.762a.587.587,0,0,1-.076-.762,12.753,12.753,0,0,0,1.6-3.965.58.58,0,0,1,.61-.457h.915a.623.623,0,0,0,.686-.61ZM65.744,58.6A9.759,9.759,0,1,1,75.5,48.844h0A9.778,9.778,0,0,1,65.744,58.6Z" transform="translate(-11.991 -7.748)" fill="#4866c7" opacity="0.59"/>
        </g>
        <g id="Grupo_12501_1_" transform="translate(0 57.198)">
          <g id="Grupo_12498_1_" transform="translate(0 0)">
            <path id="Rectángulo_3680_1_" d="M15.95-.3H96.084a3.059,3.059,0,0,1,3.05,3.05V57.723a3.059,3.059,0,0,1-3.05,3.05H15.95a3.059,3.059,0,0,1-3.05-3.05V2.75A3.059,3.059,0,0,1,15.95-.3Z" transform="translate(-3.064 0.3)"/>
            <g id="Grupo_12497_1_" transform="translate(0 57.793)">
              <path id="Trazado_7583_1_" d="M83.031,2.376H0S1.144,3.6,4.651,3.6h96.755c3.507,0,4.651-1.3,4.651-1.3H83.031Z" transform="translate(0 -0.318)"/>
              <rect id="Rectángulo_3681_1_" width="106.057" height="2.059" transform="translate(0 0)" opacity="0.59"/>
              <path id="Trazado_7584_1_" d="M74.768,0H59.9a.881.881,0,0,0,.915.915H73.853A.927.927,0,0,0,74.768,0Z" transform="translate(-14.229 0.229)"/>
            </g>
          </g>
          <g id="Grupo_12500_1_" transform="translate(12.05 3.24)">
            <rect id="Rectángulo_3682_1_" width="81.964" height="52.838" transform="translate(0 0)" fill="#fff"/>
            <g id="Grupo_12199_1_" transform="translate(0 0)">
              <g id="Grupo_23277" data-name="Grupo 23277">
                <g id="Grupo_12198_1_" clip-path="url(#clip-path-2)">
                  <g id="Grupo_12499_1_" transform="translate(-0.418 0.079)">
                    <rect id="Rectángulo_3683_1_" width="83.565" height="3.279" fill="#0943b5" opacity="0.79"/>
                    <path id="Trazado_7585_1_" d="M2.572,1.686A.686.686,0,1,1,1.886,1h0a.683.683,0,0,1,.686.686" transform="translate(-0.285 -0.009)" fill="#fff" opacity="0.59"/>
                    <path id="Trazado_7586_1_" d="M5.572,1.686A.686.686,0,1,1,4.886,1h0a.683.683,0,0,1,.686.686h0" transform="translate(-0.998 -0.009)" fill="#fff" opacity="0.59"/>
                    <path id="Trazado_7587_1_" d="M8.572,1.686A.686.686,0,1,1,7.886,1h0a.683.683,0,0,1,.686.686" transform="translate(-1.71 -0.009)" fill="#fff" opacity="0.59"/>
                    <rect id="Rectángulo_3684_1_" width="83.565" height="49.483" transform="translate(0 3.279)" fill="#fff" opacity="0.59"/>
                  </g>
                </g>
              </g>
            </g>
          </g>
        </g>
        <g id="Grupo_12505_1_" transform="translate(53.966 67.177)">
          <g id="Grupo_12502_1_" transform="translate(0 0)">
            <rect id="Rectángulo_3686_1_" width="35.378" height="41.859" fill="#fff" opacity="0.62"/>
          </g>
          <g id="Grupo_12504_1_" transform="translate(2.723 23.242)">
            <g id="Grupo_23325" data-name="Grupo 23325">
              <rect id="Rectángulo_3708_1_" width="16.545" height="0.839" fill="#0943b5" opacity="0.59"/>
              <rect id="Rectángulo_3710_1_" width="2.516" height="0.839" transform="translate(0 2.516)" fill="#0943b5" opacity="0.59"/>
              <rect id="Rectángulo_3711_1_" width="2.516" height="0.839" transform="translate(3.736 2.516)" fill="#0943b5" opacity="0.59"/>
              <rect id="Rectángulo_3712_1_" width="11.666" height="0.839" transform="translate(18.68 2.516)" fill="#0943b5" opacity="0.59"/>
              <rect id="Rectángulo_3715_1_" width="14.105" height="0.839" transform="translate(0 10.674)" fill="#0943b5" opacity="0.59"/>
              <rect id="Rectángulo_3718_1_" width="6.557" height="0.839" transform="translate(9.988 7.624)" fill="#0943b5" opacity="0.59"/>
              <rect id="Rectángulo_3720_1_" width="9.073" height="0.839" transform="translate(19.824 7.395)" fill="#0943b5" opacity="0.59"/>
              <rect id="Rectángulo_3721_1_" width="12.047" height="0.839" transform="translate(11.589 16.088)" fill="#0943b5" opacity="0.59"/>
              <rect id="Rectángulo_3722_1_" width="19.214" height="0.839" transform="translate(0.534 13.572)" fill="#0943b5" opacity="0.59"/>
              <rect id="Rectángulo_3723_1_" width="1.525" height="0.839" transform="translate(18.451 5.108)" fill="#0943b5" opacity="0.59"/>
              <rect id="Rectángulo_3724_1_" width="1.525" height="0.839" transform="translate(21.882 5.108)" fill="#0943b5" opacity="0.59"/>
              <rect id="Rectángulo_3726_1_" width="16.545" height="0.839" transform="translate(0.457 17.994)" fill="#0943b5" opacity="0.59"/>
            </g>
            <g id="Grupo_23326" data-name="Grupo 23326" transform="translate(0.457 2.516)">
              <rect id="Rectángulo_3709_1_" width="8.844" height="0.839" transform="translate(7.243)" fill="#fecc2f"/>
              <rect id="Rectángulo_3714_1_" width="11.666" height="0.839" transform="translate(14.944 7.091)" fill="#fecc2f"/>
              <rect id="Rectángulo_3719_1_" width="9.073" height="0.839" transform="translate(0 13.572)" fill="#fecc2f"/>
              <rect id="Rectángulo_3725_1_" width="1.525" height="0.839" transform="translate(19.138 15.478)" fill="#fecc2f"/>
            </g>
            <g id="Grupo_23327" data-name="Grupo 23327">
              <rect id="Rectángulo_3713_1_" width="11.666" height="0.839" transform="translate(18.68)" fill="#9d7700"/>
              <rect id="Rectángulo_3716_1_" width="16.545" height="0.839" transform="translate(0 5.108)" fill="#9d7700"/>
              <rect id="Rectángulo_3717_1_" width="7.701" height="0.839" transform="translate(0 7.624)" fill="#9d7700"/>
              <rect id="Rectángulo_3727_1_" width="7.777" height="0.839" transform="translate(21.501 12.504)" fill="#9d7700"/>
              <rect id="Rectángulo_3728_1_" width="6.1" height="0.839" transform="translate(22.95 17.994)" fill="#9d7700"/>
            </g>
          </g>
          <g id="Grupo_12504_1_2" data-name="Grupo_12504_1_" transform="translate(2.723 2.096)">
            <g id="Grupo_23325-2" data-name="Grupo 23325">
              <rect id="Rectángulo_3708_1_2" data-name="Rectángulo_3708_1_" width="16.545" height="0.839" fill="#0943b5" opacity="0.59"/>
              <rect id="Rectángulo_3710_1_2" data-name="Rectángulo_3710_1_" width="2.516" height="0.839" transform="translate(0 2.516)" fill="#0943b5" opacity="0.59"/>
              <rect id="Rectángulo_3711_1_2" data-name="Rectángulo_3711_1_" width="2.516" height="0.839" transform="translate(3.736 2.516)" fill="#0943b5" opacity="0.59"/>
              <rect id="Rectángulo_3712_1_2" data-name="Rectángulo_3712_1_" width="11.666" height="0.839" transform="translate(18.68 2.516)" fill="#0943b5" opacity="0.59"/>
              <rect id="Rectángulo_3715_1_2" data-name="Rectángulo_3715_1_" width="14.105" height="0.839" transform="translate(0 10.674)" fill="#0943b5" opacity="0.59"/>
              <rect id="Rectángulo_3718_1_2" data-name="Rectángulo_3718_1_" width="6.557" height="0.839" transform="translate(9.988 7.624)" fill="#0943b5" opacity="0.59"/>
              <rect id="Rectángulo_3720_1_2" data-name="Rectángulo_3720_1_" width="9.073" height="0.839" transform="translate(19.824 7.395)" fill="#0943b5" opacity="0.59"/>
              <rect id="Rectángulo_3721_1_2" data-name="Rectángulo_3721_1_" width="12.047" height="0.839" transform="translate(11.589 16.088)" fill="#0943b5" opacity="0.59"/>
              <rect id="Rectángulo_3722_1_2" data-name="Rectángulo_3722_1_" width="19.214" height="0.839" transform="translate(0.534 13.572)" fill="#0943b5" opacity="0.59"/>
              <rect id="Rectángulo_3723_1_2" data-name="Rectángulo_3723_1_" width="1.525" height="0.839" transform="translate(18.451 5.108)" fill="#0943b5" opacity="0.59"/>
              <rect id="Rectángulo_3724_1_2" data-name="Rectángulo_3724_1_" width="1.525" height="0.839" transform="translate(21.882 5.108)" fill="#0943b5" opacity="0.59"/>
              <rect id="Rectángulo_3726_1_2" data-name="Rectángulo_3726_1_" width="16.545" height="0.839" transform="translate(0.457 17.994)" fill="#0943b5" opacity="0.59"/>
            </g>
            <g id="Grupo_23326-2" data-name="Grupo 23326" transform="translate(0.457 2.516)">
              <rect id="Rectángulo_3709_1_2" data-name="Rectángulo_3709_1_" width="8.844" height="0.839" transform="translate(7.243)" fill="#fecc2f"/>
              <rect id="Rectángulo_3714_1_2" data-name="Rectángulo_3714_1_" width="11.666" height="0.839" transform="translate(14.944 7.091)" fill="#fecc2f"/>
              <rect id="Rectángulo_3719_1_2" data-name="Rectángulo_3719_1_" width="9.073" height="0.839" transform="translate(0 13.572)" fill="#fecc2f"/>
              <rect id="Rectángulo_3725_1_2" data-name="Rectángulo_3725_1_" width="1.525" height="0.839" transform="translate(19.138 15.478)" fill="#fecc2f"/>
            </g>
            <g id="Grupo_23327-2" data-name="Grupo 23327">
              <rect id="Rectángulo_3713_1_2" data-name="Rectángulo_3713_1_" width="11.666" height="0.839" transform="translate(18.68)" fill="#9d7700"/>
              <rect id="Rectángulo_3716_1_2" data-name="Rectángulo_3716_1_" width="16.545" height="0.839" transform="translate(0 5.108)" fill="#9d7700"/>
              <rect id="Rectángulo_3717_1_2" data-name="Rectángulo_3717_1_" width="7.701" height="0.839" transform="translate(0 7.624)" fill="#9d7700"/>
              <rect id="Rectángulo_3727_1_2" data-name="Rectángulo_3727_1_" width="7.777" height="0.839" transform="translate(21.501 12.504)" fill="#9d7700"/>
              <rect id="Rectángulo_3728_1_2" data-name="Rectángulo_3728_1_" width="6.1" height="0.839" transform="translate(22.95 17.994)" fill="#9d7700"/>
            </g>
          </g>
        </g>
        <g id="Grupo_12516_1_" transform="translate(92.356 2.979)">
          <g id="Grupo_12514_1_" transform="translate(8.56 0)">
            <path id="Trazado_7594_1_" d="M42.231,166.767H39.1l-.3-7.167h3.126Z" transform="translate(-9.217 -37.684)" fill="#e4897b"/>
            <path id="Trazado_7595_1_" d="M37.145,168.5h3.431a.2.2,0,0,1,.229.229l.534,2.745a.448.448,0,0,1-.381.534h-.076c-1.22,0-2.974-.076-4.5-.076-1.83,0-2.059.076-4.193.076-1.3,0-1.6-1.3-1.067-1.372a12.87,12.87,0,0,0,5.261-1.906A2.238,2.238,0,0,1,37.145,168.5Z" transform="translate(-7.334 -39.798)"/>
            <path id="Trazado_7596_1_" d="M38.8,159.6l.152,3.736h3.126l-.152-3.736Z" transform="translate(-9.217 -37.684)" fill="#ce6f64"/>
            <path id="Trazado_7597_1_" d="M13.672,33.057c.076.991.152,2.059.152,3.05s.076,2.059,0,3.126-.076,2.059-.152,2.974a17.187,17.187,0,0,1-.457,2.745,5.294,5.294,0,0,1-.381.991c-.076.076-.076.152-.152.3l-.229.3a2.675,2.675,0,0,0-.381.61,18.514,18.514,0,0,1-1.83,2.44c-1.3,1.6-2.669,3.279-4.041,4.88l1.6,1.906a34.827,34.827,0,0,0,5.261-4.117c.839-.762,1.6-1.6,2.364-2.44.152-.229.381-.457.534-.686l.3-.381c.076-.152.229-.229.3-.381a9.636,9.636,0,0,0,.991-1.982,18.85,18.85,0,0,0,.839-3.584c.152-1.144-.991-2.059-.915-3.2s.229-2.669.229-3.736.991-2.059.839-3.279Z" transform="translate(-1.473 -7.515)" fill="#e4897b"/>
            <path id="Trazado_7598_1_" d="M14.479,37.858l1.3.534,2.211.915,2.059-.915a62.416,62.416,0,0,1,.229-7.548,6.269,6.269,0,0,0,.152-2.059,3.771,3.771,0,0,1,.61-2.44c-1.6-.61-3.736.381-5.185,2.745C13.945,32.674,14.479,37.858,14.479,37.858Z" transform="translate(-3.423 -5.988)" fill="#0943b5"/>
            <path id="Trazado_7599_1_" d="M16.5,40.756l2.059.839c.3-1.449.686-3.965-.381-5.795C16.8,36.944,16.576,39.307,16.5,40.756Z" transform="translate(-3.92 -8.275)" fill="#4866c7" opacity="0.59"/>
            <path id="Trazado_7600_1_" d="M18.774,51.311h17c.152-1.525-.229-5.642,0-11.284.076-1.3.152-2.669.3-4.117a70.386,70.386,0,0,1,1.6-9.759,35.624,35.624,0,0,0-5.642-.686,57.4,57.4,0,0,0-7.243,0,27.042,27.042,0,0,0-4.956.915C19.917,26.3,15.876,33.394,18.774,51.311Z" transform="translate(-4.211 -5.793)" fill="#4672c8" opacity="0.79"/>
            <path id="Trazado_7601_1_" d="M41.137,43.257c.076-1.3.152-2.669.3-4.117-.534-.381-1.3-.381-1.449,1.677C39.841,42.647,40.527,43.18,41.137,43.257Z" transform="translate(-9.495 -9.022)" fill="#4866c7" opacity="0.59"/>
            <path id="Trazado_7602_1_" d="M0,63.635,2.44,65.16l3.05-.686L3.05,61.5Z" transform="translate(0 -14.38)" fill="#e4897b"/>
            <path id="Trazado_7603_1_" d="M6.9,60.9,4,61.357l2.44,2.974A2.406,2.406,0,0,0,8.346,62.12Z" transform="translate(-0.95 -14.238)" fill="#e4897b"/>
            <path id="Trazado_7604_1_" d="M33.754,14.8c-.534,2.364-1.144,6.633.457,8.158,0,0-.762,1.525-5.108,1.525-3.965,0-2.135-1.525-2.135-1.525,2.592-.61,2.592-2.516,2.211-4.346Z" transform="translate(-6.306 -3.287)" fill="#e4897b"/>
            <path id="Trazado_7605_1_" d="M32.669,16.8,30,19.011a7.512,7.512,0,0,1,.152,1.3c.839.839,2.364-1.22,2.516-2.287A3.282,3.282,0,0,0,32.669,16.8Z" transform="translate(-7.126 -3.762)" fill="#ce6f64"/>
            <path id="Trazado_7606_1_" d="M23.678,6.839c-1.067,1.372.152,5.566,2.44,5.49S25.737,4.247,23.678,6.839Z" transform="translate(-5.532 -1.273)" fill="#1e2a4c"/>
            <path id="Trazado_7607_1_" d="M32.654,8.482c.229,3.126.534,4.956-.839,6.862a4.145,4.145,0,0,1-5.795.991,4.006,4.006,0,0,1-1.449-1.906c-1.067-2.669-1.3-7.4,1.6-9.149a4.216,4.216,0,0,1,6.481,3.2Z" transform="translate(-5.663 -0.858)" fill="#e4897b"/>
            <path id="Trazado_7608_1_" d="M35.855,4.5,32.5,5.72c1.525,1.982-.686,6.71,1.982,5.795C35.55,11.057,39.515,6.787,35.855,4.5Z" transform="translate(-7.72 -0.84)" fill="#1e2a4c"/>
            <path id="Trazado_7609_1_" d="M31.3,4.2c-1.3.915-6.481,2.059-9.454.381A6.993,6.993,0,0,0,23.6,3.893,4.17,4.17,0,0,1,20.4,2.14a6.985,6.985,0,0,0,4.117-.534A3.8,3.8,0,0,1,22.23-.3c4.117.076,12.962.915,11.437,3.812S31.3,4.2,31.3,4.2Z" transform="translate(-4.846 0.3)" fill="#1e2a4c"/>
            <path id="Trazado_7610_1_" d="M37,4.72A5.272,5.272,0,0,0,38.677,3.5C38.906,3.957,38.906,5.33,37,4.72Z" transform="translate(-8.789 -0.603)" fill="#1e2a4c"/>
            <path id="Trazado_7611_1_" d="M36.835,13.182a2.893,2.893,0,0,1-1.677,1.6c-.991.381-1.6-.457-1.372-1.449.152-.915.915-2.135,1.906-2.135a1.353,1.353,0,0,1,1.3,1.372A.593.593,0,0,1,36.835,13.182Z" transform="translate(-8.014 -2.432)" fill="#e4897b"/>
            <path id="Trazado_7612_1_" d="M29.636,166.767H26.51L25.9,159.6h3.126Z" transform="translate(-6.152 -37.684)" fill="#e4897b"/>
            <path id="Trazado_7613_1_" d="M24.142,168.5h3.431a.2.2,0,0,1,.229.229l.534,2.745a.448.448,0,0,1-.381.534h-.076c-1.22,0-2.974-.076-4.5-.076-1.83,0-3.355.076-5.49.076-1.3,0-1.6-1.3-1.067-1.372,2.44-.534,4.422-.61,6.557-1.906A2.905,2.905,0,0,1,24.142,168.5Z" transform="translate(-3.937 -39.798)"/>
            <path id="Trazado_7614_1_" d="M25.9,159.6l.3,3.736h3.126l-.3-3.736Z" transform="translate(-6.152 -37.684)" fill="#ce6f64"/>
            <path id="Trazado_7615_1_" d="M25.4,168.638h0a.106.106,0,0,0,0-.152c-.152-.076-1.22-.534-1.525-.305a.28.28,0,0,0-.076.229.419.419,0,0,0,.229.381.86.86,0,0,0,.61.076A1.7,1.7,0,0,0,25.4,168.638Zm-.229,0a2,2,0,0,1-1.144.152c-.076-.076-.152-.152-.152-.229v-.076h.076a1.372,1.372,0,0,1,1.22.153Z" transform="translate(-5.654 -39.707)"/>
            <path id="Trazado_7616_1_" d="M25.544,168.4h0c0-.076-.152-.991-.61-1.22a.458.458,0,0,0-.3-.076.2.2,0,0,0-.229.229c0,.381.762.991,1.144,1.067Zm-.61-1.067a1.505,1.505,0,0,1,.457.915c-.381-.229-.839-.686-.839-.839a.075.075,0,0,1,.076-.076h0c.152-.076.229-.076.3,0Z" transform="translate(-5.796 -39.466)"/>
            <path id="Trazado_7617_1_" d="M27.956,138.643H22.924S15.147,108.831,15.3,98.766c.152-9.683,2.974-39.266,2.974-39.266H29.481s-.839,6.557-1.83,14.715c-.915,7.167-1.83,15.554-2.44,21.654-.152,1.83-.3,3.431-.381,4.727C24.22,110.432,27.956,138.643,27.956,138.643Z" transform="translate(-3.634 -13.905)" fill="#4c4c4c"/>
            <path id="Trazado_7618_1_" d="M30.009,76.538c-.915,7.167-1.83,15.554-2.44,21.654-1.144-5.337-4.041-20.815.229-28.592C28.941,71.049,29.627,73.793,30.009,76.538Z" transform="translate(-6.068 -16.305)" fill="#4c4c4c"/>
            <path id="Trazado_7619_1_" d="M27.1,59.4s.457,28.516,2.059,37.665c1.83,9.988,5.413,41.554,5.413,41.554h5.795s-.839-30.727-1.754-40.639C37.622,87.23,38,59.4,38,59.4Z" transform="translate(-6.438 -13.882)" fill="#4c4c4c"/>
            <path id="Trazado_7620_1_" d="M42.71,162.592H36.457L36,160.229,42.938,160Z" transform="translate(-8.552 -37.779)"/>
            <path id="Trazado_7621_1_" d="M30.21,162.664H23.957L23.5,160.3l6.938.153Z" transform="translate(-5.582 -37.85)"/>
            <path id="Trazado_7622_1_" d="M41.025,136.18h0c0-.381-.381-27.982-1.22-36.826-.839-9.607-.3-35.225-.3-35.378a.075.075,0,0,0-.076-.076h0a.075.075,0,0,0-.076.076c0,.229-.534,25.771.3,35.378.839,8.921,1.3,36.521,1.372,36.826Z" transform="translate(-9.307 -14.951)" fill="#4866c7" opacity="0.59"/>
            <path id="Trazado_7623_1_" d="M29.1,11.777a.594.594,0,0,1-.229.534c-.152.076-.3-.152-.381-.381a.465.465,0,0,1,.229-.534C28.875,11.319,29.1,11.548,29.1,11.777Z" transform="translate(-6.764 -2.475)" fill="#1e2a4c"/>
            <path id="Trazado_7624_1_" d="M25.3,12.277a.594.594,0,0,1-.229.534c-.152.076-.3-.152-.381-.381a.465.465,0,0,1,.229-.534C25.075,11.819,25.227,12.048,25.3,12.277Z" transform="translate(-5.861 -2.593)" fill="#1e2a4c"/>
            <path id="Trazado_7625_1_" d="M26.515,12.5a12.647,12.647,0,0,1-.915,2.364,1.373,1.373,0,0,0,1.22,0Z" transform="translate(-6.081 -2.741)" fill="#de5753"/>
            <path id="Trazado_7626_1_" d="M27.876,16.633c-.076,0-.076,0-.076-.076h0c0-.076,0-.076.076-.076h0a2.254,2.254,0,0,0,1.6-.991s.076-.076.076,0c0,0,.076.076,0,.076h0A2.5,2.5,0,0,1,27.876,16.633Z" transform="translate(-6.604 -3.443)" fill="#1e2a4c"/>
            <path id="Trazado_7627_1_" d="M29.872,9.315H29.72a1.323,1.323,0,0,0-1.067-.229c-.076,0-.152,0-.152-.076h0a.28.28,0,0,1,.076-.229h0a1.509,1.509,0,0,1,1.372.3.143.143,0,0,1,0,.229h-.076Z" transform="translate(-6.77 -1.843)" fill="#1e2a4c"/>
            <g id="Grupo_12512_1_" transform="translate(28.008 19.706)">
              <path id="Trazado_7628_1_" d="M3.066-.224,2.227-.3a.164.164,0,0,0-.152.152A102.864,102.864,0,0,0,.169,24.632h.915A116.7,116.7,0,0,1,3.142-.071c.076-.076,0-.152-.076-.152Z" transform="translate(-0.016 0.3)" fill="#0943b5"/>
              <path id="Trazado_7629_1_" d="M.915,32.534H.3a.328.328,0,0,1-.3-.3H0C0,32.076.152,32,.3,32h.61a.328.328,0,0,1,.3.3h0C1.144,32.457,1.067,32.534.915,32.534Z" transform="translate(0 -7.373)" fill="#0943b5"/>
              <path id="Trazado_7630_1_" d="M.2,33.32v-.839A.36.36,0,0,1,.581,32.1h0a.36.36,0,0,1,.381.381h0v.839a.36.36,0,0,1-.381.381h0A.408.408,0,0,1,.2,33.32Z" transform="translate(-0.048 -7.397)" fill="#0943b5"/>
            </g>
            <path id="Trazado_7631_1_" d="M23.652,10.02h0c-.152,0-.152-.076-.152-.229h0a1.488,1.488,0,0,1,.915-.991c.076,0,.152,0,.152.076h0c0,.076,0,.152-.076.152h0a1.386,1.386,0,0,0-.762.839C23.729,9.944,23.729,10.02,23.652,10.02Z" transform="translate(-5.582 -1.862)" fill="#1e2a4c"/>
            <path id="Trazado_7632_1_" d="M40.312,32.6c.457,1.982.991,4.041,1.372,6.1.229.991.381,2.059.534,3.05.152.915.229,1.83.3,2.745a8.179,8.179,0,0,1-1.754,4.727,16.47,16.47,0,0,1-1.906,2.059l-1.144.915c-.229.152-.381.3-.61.457a7.032,7.032,0,0,1-.61.381l.915,2.287a4.3,4.3,0,0,0,.915-.3c.3-.076.534-.229.839-.3a16.123,16.123,0,0,0,4.5-3.05,12.78,12.78,0,0,0,2.287-3.05A11.045,11.045,0,0,0,47.1,44.8a29.305,29.305,0,0,0,0-3.66,23.7,23.7,0,0,0-.457-3.355A61.33,61.33,0,0,0,45.192,31.3Z" transform="translate(-8.671 -7.207)" fill="#e4897b"/>
            <path id="Trazado_7633_1_" d="M42.961,26.372c3.355.61,5.261,9.607,5.261,9.607l-8.311,2.974a20.729,20.729,0,0,1,0-6.862C40.521,28.278,39.758,25.762,42.961,26.372Z" transform="translate(-9.413 -6.014)" fill="#0943b5"/>
            <g id="Grupo_12513_1_" transform="translate(15.413 19.934)">
              <path id="Trazado_7634_1_" d="M2.128-.3l-.839.152A.164.164,0,0,0,1.137,0,95.76,95.76,0,0,0,.45,24.4h.915A110.2,110.2,0,0,1,2.28-.148.164.164,0,0,0,2.128-.3Z" transform="translate(0.03 0.3)" fill="#0943b5"/>
              <path id="Trazado_7635_1_" d="M1.315,32.21H.7a.328.328,0,0,1-.3-.3h0a.328.328,0,0,1,.3-.3h.61a.328.328,0,0,1,.3.3h0c-.076.229-.152.3-.3.3Z" transform="translate(-0.072 -7.278)" fill="#0943b5"/>
              <path id="Trazado_7636_1_" d="M.7,33.02v-.839a.36.36,0,0,1,.381-.381h0a.36.36,0,0,1,.381.381v.839a.36.36,0,0,1-.381.381h0A.36.36,0,0,1,.7,33.02Z" transform="translate(-0.144 -7.325)" fill="#0943b5"/>
            </g>
            <path id="Trazado_7637_1_" d="M37.9,168.638h0a.106.106,0,0,0,0-.152c-.152-.076-1.22-.534-1.525-.305a.28.28,0,0,0-.076.229.419.419,0,0,0,.229.381.86.86,0,0,0,.61.076A1.471,1.471,0,0,0,37.9,168.638Zm-.229,0a2,2,0,0,1-1.144.152c-.076-.076-.152-.152-.152-.229v-.076h.076a1.3,1.3,0,0,1,1.22.153Z" transform="translate(-8.623 -39.707)"/>
            <path id="Trazado_7638_1_" d="M38.144,168.4h0c0-.076-.152-.991-.61-1.22a.458.458,0,0,0-.3-.076.2.2,0,0,0-.229.229c0,.381.686.991,1.144,1.067Zm-.686-1.067a1.505,1.505,0,0,1,.457.915c-.381-.229-.839-.686-.839-.839a.075.075,0,0,1,.076-.076h0c.229-.076.3-.076.3,0Z" transform="translate(-8.789 -39.466)"/>
            <path id="Trazado_7639_1_" d="M37.567,61.454,36.576,59.7l-2.669.076-2.059.839L30.4,62.674l3.66-.229A3.2,3.2,0,0,0,37.567,61.454Z" transform="translate(-7.221 -13.953)" fill="#e4897b"/>
            <path id="Trazado_7640_1_" d="M30.2,27.357l.61-.457,1.3,1.3Z" transform="translate(-7.174 -6.161)" fill="#4866c7" opacity="0.59"/>
            <path id="Trazado_7641_1_" d="M31,26.354a8.485,8.485,0,0,1,1.22,2.669c1.3-.534,3.812-1.906,4.27-3.812a6.759,6.759,0,0,1-1.3-.61A12.6,12.6,0,0,1,31,26.354Z" transform="translate(-7.364 -5.615)" fill="#0943b5"/>
            <path id="Trazado_7642_1_" d="M29.582,27.334l-.229-.534L27.6,28.172Z" transform="translate(-6.556 -6.138)" fill="#4866c7" opacity="0.59"/>
            <path id="Trazado_7643_1_" d="M29,26.3a5.209,5.209,0,0,0-1.372,2.44,2.949,2.949,0,0,1-1.372-3.507,9.86,9.86,0,0,1,1.6-.534A1.439,1.439,0,0,0,29,26.3Z" transform="translate(-6.207 -5.639)" fill="#0943b5"/>
          </g>
          <g id="Grupo_12515_1_" transform="translate(0 32.346)">
            <path id="Trazado_7644_1_" d="M1.1.615,27.786-.3l3.889,15.554-26.686.915Z" transform="translate(-0.261 0.3)"/>
            <path id="Trazado_7645_1_" d="M0,.715,26.686-.2,30.5,15.354l-26.686.915Z" transform="translate(0 0.276)" fill="#fecc2f"/>
            <path id="Trazado_7646_1_" d="M5.1,21.115l.076.839,26.686-.915L31.71,20.2Z" transform="translate(-1.211 -4.57)"/>
            <path id="Trazado_7647_1_" d="M40,20.081l.076.839,10.446-.381-.076-.839Z" transform="translate(-9.502 -4.451)"/>
          </g>
        </g>
        <path id="Trazado_7648_1_" d="M70.8,55.544V28.553c0-4.346,2.9-7.853,6.481-7.853h32.557c3.584,0,6.481,3.507,6.481,7.853V38.16" transform="translate(-16.818 -4.612)" fill="none" stroke="#2f54c6" stroke-miterlimit="10" stroke-width="1" stroke-dasharray="5"/>
        <g id="Grupo_12519_1_" transform="translate(12.24 6.354)">
          <path id="Rectángulo_3732_1_" d="M10.9,1.7h0a9.014,9.014,0,0,1,9,9h0a9.014,9.014,0,0,1-9,9h0a9.014,9.014,0,0,1-9-9h0A8.917,8.917,0,0,1,10.9,1.7Z" transform="translate(-0.451 -0.175)" fill="#9d7700"/>
          <path id="Rectángulo_3733_1_" d="M9-.3H9a9.014,9.014,0,0,1,9,9h0a9.014,9.014,0,0,1-9,9H9a8.917,8.917,0,0,1-9-9H0A9.014,9.014,0,0,1,9-.3Z" transform="translate(0 0.3)" fill="#fecc2f"/>
          <g id="Grupo_12518_1_" transform="translate(5.015 2.847)">
            <g id="Grupo_12517_1_" transform="translate(0.002 0)">
              <path id="Trazado_7649_1_" d="M7.167,3.817H7.015V2.75a3.05,3.05,0,1,0-6.1,0V3.817h0A.865.865,0,0,0,0,4.656H0V8.544a.846.846,0,0,0,.839.839H7.091a.846.846,0,0,0,.839-.839h0V4.656A.741.741,0,0,0,7.167,3.817ZM1.677,2.75A2.247,2.247,0,0,1,3.965.462,2.247,2.247,0,0,1,6.252,2.75V3.817H1.677V2.75Z" transform="translate(0 0.3)"/>
              <path id="Trazado_7650_1_" d="M5.959,7.391A1.009,1.009,0,0,0,4.967,6.4,1.079,1.079,0,0,0,3.9,7.391a.825.825,0,0,0,.534.839.28.28,0,0,1,.076.229l-.152.686a.629.629,0,0,0,1.22.3v-.3l-.229-.686a.28.28,0,0,1,.076-.229A.938.938,0,0,0,5.959,7.391Z" transform="translate(-0.926 -1.292)" fill="#fff"/>
            </g>
            <path id="Trazado_7651_1_" d="M7.625,14.062H.381A.408.408,0,0,1,0,13.681H0A.36.36,0,0,1,.381,13.3H7.625a.36.36,0,0,1,.381.381h0A.408.408,0,0,1,7.625,14.062Z" transform="translate(0 -2.931)" opacity="0.59"/>
            <path id="Trazado_7652_1_" d="M7.625,15.662H.381A.36.36,0,0,1,0,15.281H0A.36.36,0,0,1,.381,14.9H7.625a.36.36,0,0,1,.381.381h0A.36.36,0,0,1,7.625,15.662Z" transform="translate(0 -3.311)" opacity="0.59"/>
          </g>
        </g>
        <g id="Grupo_12520_1_" transform="translate(38.568 35.029)">
          <path id="Trazado_7653_1_" d="M31.458,11.823a7.027,7.027,0,0,0-3.507-4.88h0V6.791A7.126,7.126,0,0,0,20.86-.3H18.115V.234a7,7,0,0,0-3.889,4.041A4.216,4.216,0,0,0,9.575,6.867a4.7,4.7,0,0,0-2.9.229A5.129,5.129,0,0,0,3.4,11.67a5.045,5.045,0,0,0,4.956,5.185H27.569a3.876,3.876,0,0,0,3.889-3.736v-.076A2.212,2.212,0,0,0,31.458,11.823Z" transform="translate(-0.805 0.3)" fill="#4672c8"/>
          <path id="Trazado_7654_1_" d="M27.981,11.823a7.155,7.155,0,0,0-3.431-4.88h0V6.791A7.093,7.093,0,0,0,10.826,4.275,4.216,4.216,0,0,0,6.175,6.867a4.7,4.7,0,0,0-2.9.229A5.129,5.129,0,0,0,0,11.67a5.045,5.045,0,0,0,4.956,5.185H24.169a3.876,3.876,0,0,0,3.889-3.736v-.076A6.559,6.559,0,0,0,27.981,11.823Z" transform="translate(0.003 0.3)" fill="#4672c8"/>
        </g>
        <g id="Grupo_12325_1_" transform="translate(18.265 73.811)">
          <path id="Trazado_17621" data-name="Trazado 17621" d="M35.248,14.043l-2.364-1.067a11.027,11.027,0,0,0-1.067-3.507L33.19,7.257a.143.143,0,0,0,0-.229l-1.982-2.44a.28.28,0,0,0-.229-.076l-2.44.915a10.976,10.976,0,0,0-3.2-1.754l-.61-2.516A.164.164,0,0,0,24.574,1L21.448.7c-.076,0-.152.076-.229.152L20.152,3.216a11.027,11.027,0,0,0-3.507,1.067L14.433,2.911a.143.143,0,0,0-.229,0l-2.44,1.982a.28.28,0,0,0-.076.229L12.6,7.638a10.741,10.741,0,0,0-1.677,3.2l-2.669.61A.164.164,0,0,0,8.1,11.6l-.3,3.126c0,.076.076.152.152.229l2.516,1.067a10.591,10.591,0,0,0,1.067,3.431l-1.525,2.287a.143.143,0,0,0,0,.229l1.982,2.44a.28.28,0,0,0,.229.076l2.516-.991a10.976,10.976,0,0,0,3.2,1.754l.61,2.669a.164.164,0,0,0,.152.152l3.126.3c.076,0,.152-.076.229-.152L23.2,25.861a11.5,11.5,0,0,0,3.507-.991l2.211,1.372a.143.143,0,0,0,.229,0l2.44-1.982a.28.28,0,0,0,.076-.229l-.915-2.44a10.976,10.976,0,0,0,1.754-3.2l2.516-.61a.164.164,0,0,0,.152-.152l.3-3.126C35.325,14.2,35.325,14.119,35.248,14.043ZM21.6,20.9a6.481,6.481,0,1,1,6.481-6.481A6.475,6.475,0,0,1,21.6,20.9Z" transform="translate(-1.853 -0.7)" fill="#fecc2f"/>
          <g id="Grupo_12321_1_" transform="translate(0 12.824)">
            <path id="Trazado_7476_1_" d="M8.692,1.225V.386A.683.683,0,0,0,8.006-.3H.686A.683.683,0,0,0,0,.386H0V15.178H18.985V1.225Z" transform="translate(0 0.3)" fill="#4672c8"/>
            <path id="Trazado_7477_1_" d="M19.748,2.4H1.144L0,15.819H18.909Z" transform="translate(0 -0.341)" fill="#fff"/>
            <path id="Trazado_7478_1_" d="M18.985,15.653H0L1.982,2.386A.811.811,0,0,1,2.745,1.7H20.129a.764.764,0,0,1,.762.762v.152Z" transform="translate(0 -0.175)" fill="#4672c8"/>
          </g>
        </g>
      </g>
    </g>
  </g>
</svg>
