<svg id="LOGO_COLOMBIA_POTENCIA_DE_LA_VIDA" data-name="LOGO COLOMBIA POTENCIA DE LA VIDA" xmlns="http://www.w3.org/2000/svg" width="133.922" height="67.29" viewBox="0 0 133.922 67.29">
  <g id="Grupo_23336" data-name="Grupo 23336" transform="translate(16.093 15.943)">
    <g id="Grupo_23334" data-name="Grupo 23334" transform="translate(46.205)">
      <path id="Trazado_17743" data-name="Trazado 17743" d="M319.353,174.078a1.825,1.825,0,0,1,.964-.266,2.22,2.22,0,0,1,1.424.511,1.59,1.59,0,0,1,.635,1.29,1.739,1.739,0,0,1-.2.777L316.4,188.508a2.032,2.032,0,0,1-.854.923,2.5,2.5,0,0,1-2.453,0,2.033,2.033,0,0,1-.854-.923l-5.781-12.119a1.742,1.742,0,0,1-.175-.777,1.585,1.585,0,0,1,.657-1.279,2.3,2.3,0,0,1,1.467-.523,1.882,1.882,0,0,1,.974.266,1.721,1.721,0,0,1,.69.8l4.314,9.473,4.292-9.473A1.752,1.752,0,0,1,319.353,174.078Z" transform="translate(-306.28 -154.399)" fill="#fff"/>
      <path id="Trazado_17744" data-name="Trazado 17744" d="M392.717,189.218a2.018,2.018,0,0,1-.537-1.481V175.824a1.99,1.99,0,0,1,.537-1.458,1.947,1.947,0,0,1,1.456-.545,2.014,2.014,0,0,1,1.489.545,1.972,1.972,0,0,1,.547,1.458v11.913a1.886,1.886,0,0,1-2.036,2.026A1.95,1.95,0,0,1,392.717,189.218Z" transform="translate(-374.708 -154.407)" fill="#fff"/>
      <path id="Trazado_17745" data-name="Trazado 17745" d="M425.712,189.272a1.962,1.962,0,0,1-.482-1.424v-12.1a1.962,1.962,0,0,1,.482-1.424,1.832,1.832,0,0,1,1.379-.5h4.424a9.452,9.452,0,0,1,4.412.962,6.674,6.674,0,0,1,2.835,2.748,8.673,8.673,0,0,1,.984,4.251,8.88,8.88,0,0,1-.974,4.286,6.515,6.515,0,0,1-2.825,2.748,9.615,9.615,0,0,1-4.434.95h-4.424A1.849,1.849,0,0,1,425.712,189.272Zm5.518-2.848a4.552,4.552,0,0,0,3.383-1.143,5.963,5.963,0,0,0,0-6.977,4.585,4.585,0,0,0-3.383-1.131h-1.971v9.249h1.971Z" transform="translate(-401.035 -154.415)" fill="#fff"/>
      <path id="Trazado_17746" data-name="Trazado 17746" d="M516.174,188a1.608,1.608,0,0,1-.58,1.251,1.943,1.943,0,0,1-1.324.513,1.659,1.659,0,0,1-.919-.268,1.8,1.8,0,0,1-.657-.8l-.984-2.256h-7.095l-1.007,2.256a1.758,1.758,0,0,1-.667.8,1.719,1.719,0,0,1-.932.268,2.024,2.024,0,0,1-1.347-.513,1.58,1.58,0,0,1-.6-1.251,1.939,1.939,0,0,1,.2-.826l5.781-12.1a2.061,2.061,0,0,1,.842-.928,2.507,2.507,0,0,1,2.463,0,2.054,2.054,0,0,1,.854.928l5.781,12.1A1.966,1.966,0,0,1,516.174,188Zm-5.823-4.646-2.191-4.979-2.189,4.979Z" transform="translate(-460.644 -154.407)" fill="#fff"/>
      <path id="Trazado_17747" data-name="Trazado 17747" d="M308.433,85.984a3.369,3.369,0,0,1-1.369-1.4,4.931,4.931,0,0,1,0-4.261,3.368,3.368,0,0,1,1.369-1.4,4.54,4.54,0,0,1,4.546.256.741.741,0,0,1,.356.69.891.891,0,0,1-.2.584.59.59,0,0,1-.472.238.827.827,0,0,1-.3-.051,1.761,1.761,0,0,1-.311-.161,3.15,3.15,0,0,0-.734-.334,2.529,2.529,0,0,0-.712-.1,1.8,1.8,0,0,0-1.475.594,3.638,3.638,0,0,0,0,3.627,1.79,1.79,0,0,0,1.475.6,1.975,1.975,0,0,0,.645-.106c.207-.071.474-.179.8-.327.157-.081.271-.136.346-.167a.7.7,0,0,1,.266-.045.584.584,0,0,1,.472.24.891.891,0,0,1,.2.584.858.858,0,0,1-.083.395.839.839,0,0,1-.273.295,4.553,4.553,0,0,1-4.546.256Z" transform="translate(-306.519 -78.42)" fill="#fff"/>
      <path id="Trazado_17748" data-name="Trazado 17748" d="M341.9,85.978a3.377,3.377,0,0,1-1.363-1.4,4.988,4.988,0,0,1,0-4.261,3.339,3.339,0,0,1,1.363-1.4,4.683,4.683,0,0,1,4.172,0,3.3,3.3,0,0,1,1.357,1.4,4.545,4.545,0,0,1,.472,2.132,4.494,4.494,0,0,1-.478,2.13,3.377,3.377,0,0,1-1.363,1.4,4.623,4.623,0,0,1-4.16,0Zm3.476-1.7a2.887,2.887,0,0,0,.5-1.831,2.835,2.835,0,0,0-.507-1.825,1.863,1.863,0,0,0-2.776,0,3.606,3.606,0,0,0,0,3.665,1.86,1.86,0,0,0,2.783-.006Z" transform="translate(-333.189 -78.42)" fill="#fff"/>
      <path id="Trazado_17749" data-name="Trazado 17749" d="M382.084,86.216a1,1,0,0,1-.244-.724V79.441a1.018,1.018,0,0,1,.273-.742.991.991,0,0,1,.74-.279,1.015,1.015,0,0,1,.757.279,1,1,0,0,1,.279.742v5.335h2.559q.967,0,.968.85a.786.786,0,0,1-.24.635,1.1,1.1,0,0,1-.728.2h-3.659A.945.945,0,0,1,382.084,86.216Z" transform="translate(-366.471 -78.412)" fill="#fff"/>
      <path id="Trazado_17750" data-name="Trazado 17750" d="M409,85.978a3.377,3.377,0,0,1-1.363-1.4,4.988,4.988,0,0,1,0-4.261A3.339,3.339,0,0,1,409,78.92a4.683,4.683,0,0,1,4.172,0,3.3,3.3,0,0,1,1.357,1.4A4.545,4.545,0,0,1,415,82.447a4.494,4.494,0,0,1-.478,2.13,3.378,3.378,0,0,1-1.363,1.4,4.623,4.623,0,0,1-4.16,0Zm3.478-1.7a2.887,2.887,0,0,0,.5-1.831,2.835,2.835,0,0,0-.507-1.825,1.863,1.863,0,0,0-2.776,0,3.607,3.607,0,0,0,0,3.665,1.86,1.86,0,0,0,2.783-.006Z" transform="translate(-386.641 -78.42)" fill="#fff"/>
      <path id="Trazado_17751" data-name="Trazado 17751" d="M456.7,78.711a1.013,1.013,0,0,1,.266.73v6.112a.915.915,0,0,1-.244.673.96.96,0,0,1-1.283,0,.9.9,0,0,1-.25-.673v-3.3l-1.269,2.359a1.434,1.434,0,0,1-.4.511.829.829,0,0,1-.5.151.842.842,0,0,1-.5-.151,1.453,1.453,0,0,1-.4-.511l-1.257-2.292v3.236a.912.912,0,0,1-.25.669.959.959,0,0,1-1.29.006.9.9,0,0,1-.25-.673V79.441a1.008,1.008,0,0,1,.273-.73.973.973,0,0,1,1.241-.106,1.342,1.342,0,0,1,.411.5l2.046,3.887,2.036-3.887a1.041,1.041,0,0,1,.934-.673A.9.9,0,0,1,456.7,78.711Z" transform="translate(-420.026 -78.42)" fill="#fff"/>
      <path id="Trazado_17752" data-name="Trazado 17752" d="M498.572,82.979a2.087,2.087,0,0,1,.366,1.251,2.011,2.011,0,0,1-.34,1.159,2.2,2.2,0,0,1-.968.771,3.662,3.662,0,0,1-1.475.275H493.2a.932.932,0,0,1-.7-.252.989.989,0,0,1-.244-.72v-6.11a.989.989,0,0,1,.244-.72.937.937,0,0,1,.7-.252h2.848a3.123,3.123,0,0,1,1.963.565,1.827,1.827,0,0,1,.728,1.526,1.9,1.9,0,0,1-.323,1.092,1.84,1.84,0,0,1-.9.692A1.971,1.971,0,0,1,498.572,82.979Zm-4.328-1.434H495.7a1.527,1.527,0,0,0,.846-.183.653.653,0,0,0,.266-.584.712.712,0,0,0-.266-.616,1.452,1.452,0,0,0-.846-.193h-1.456Zm2.532,3.1a.959.959,0,0,0,0-1.314,1.46,1.46,0,0,0-.873-.2h-1.658v1.715H495.9A1.473,1.473,0,0,0,496.776,84.647Z" transform="translate(-454.423 -78.38)" fill="#fff"/>
      <path id="Trazado_17753" data-name="Trazado 17753" d="M527.813,86.16a1.02,1.02,0,0,1-.273-.749V79.393a.946.946,0,0,1,1.013-1.013,1.022,1.022,0,0,1,.757.277.991.991,0,0,1,.279.736v6.019a1.01,1.01,0,0,1-.279.749,1.029,1.029,0,0,1-.757.275A1,1,0,0,1,527.813,86.16Z" transform="translate(-482.535 -78.38)" fill="#fff"/>
      <path id="Trazado_17754" data-name="Trazado 17754" d="M547.217,85.552a.81.81,0,0,1-.295.633.991.991,0,0,1-.673.258.859.859,0,0,1-.468-.134.908.908,0,0,1-.334-.407l-.5-1.139h-3.6L540.83,85.9a.9.9,0,0,1-.34.407.882.882,0,0,1-.472.134,1.027,1.027,0,0,1-.683-.258.8.8,0,0,1-.305-.633.97.97,0,0,1,.1-.417l2.937-6.114a1.037,1.037,0,0,1,.427-.468,1.227,1.227,0,0,1,.628-.163,1.258,1.258,0,0,1,.622.163,1.028,1.028,0,0,1,.433.468l2.937,6.114A.944.944,0,0,1,547.217,85.552Zm-2.96-2.347-1.113-2.516L542.032,83.2Z" transform="translate(-491.688 -78.388)" fill="#fff"/>
      <path id="Trazado_17755" data-name="Trazado 17755" d="M307.261,139.547a.313.313,0,0,1-.081-.222v-4.585a.282.282,0,0,1,.083-.212.308.308,0,0,1,.222-.079h1.729a1.846,1.846,0,0,1,1.259.395,1.407,1.407,0,0,1,.45,1.117,1.428,1.428,0,0,1-.452,1.125,1.83,1.83,0,0,1-1.255.4h-1.438v1.839a.308.308,0,0,1-.079.222.328.328,0,0,1-.437,0Zm1.9-2.559q1.175,0,1.176-1.029t-1.176-1.015H307.78v2.044Z" transform="translate(-306.997 -123.045)" fill="#fff"/>
      <path id="Trazado_17756" data-name="Trazado 17756" d="M329.338,139.317a2.091,2.091,0,0,1-.814-.9,3.1,3.1,0,0,1-.285-1.373,3.166,3.166,0,0,1,.281-1.383,2.037,2.037,0,0,1,.81-.9,2.654,2.654,0,0,1,2.5,0,2.048,2.048,0,0,1,.81.9,3.495,3.495,0,0,1,0,2.754,2.091,2.091,0,0,1-.814.9,2.6,2.6,0,0,1-2.486,0Zm2.518-.73a2.868,2.868,0,0,0,0-3.1,1.774,1.774,0,0,0-2.551,0,2.843,2.843,0,0,0,0,3.088,1.76,1.76,0,0,0,2.547,0Z" transform="translate(-323.773 -123.045)" fill="#fff"/>
      <path id="Trazado_17757" data-name="Trazado 17757" d="M353.068,139.555a.306.306,0,0,1-.083-.222v-4.365h-1.568a.294.294,0,0,1-.2-.065.244.244,0,0,1-.073-.189.238.238,0,0,1,.073-.189.288.288,0,0,1,.2-.065h3.743a.3.3,0,0,1,.2.065.244.244,0,0,1,.073.189.238.238,0,0,1-.073.189.288.288,0,0,1-.2.065h-1.568v4.365a.308.308,0,0,1-.079.222.291.291,0,0,1-.22.083A.3.3,0,0,1,353.068,139.555Z" transform="translate(-342.015 -123.053)" fill="#fff"/>
      <path id="Trazado_17758" data-name="Trazado 17758" d="M374.753,139.533a.283.283,0,0,1-.083-.214v-4.595a.29.29,0,0,1,.083-.214.309.309,0,0,1,.222-.081h2.73a.289.289,0,0,1,.2.067.268.268,0,0,1,0,.368.289.289,0,0,1-.2.067H375.26v1.8h2.3a.289.289,0,0,1,.2.067.238.238,0,0,1,.073.185.233.233,0,0,1-.073.183.289.289,0,0,1-.2.067h-2.3v1.882H377.7a.3.3,0,0,1,.2.063.233.233,0,0,1,.073.187.23.23,0,0,1-.073.183.289.289,0,0,1-.2.067h-2.73A.311.311,0,0,1,374.753,139.533Z" transform="translate(-360.759 -123.029)" fill="#fff"/>
      <path id="Trazado_17759" data-name="Trazado 17759" d="M398.69,134.523a.324.324,0,0,1,.073.222v4.575a.311.311,0,0,1-.077.222.279.279,0,0,1-.216.083.3.3,0,0,1-.24-.124l-3.029-4.023v3.842a.32.32,0,0,1-.077.222.27.27,0,0,1-.207.083.255.255,0,0,1-.2-.083.324.324,0,0,1-.073-.222v-4.575a.32.32,0,0,1,.077-.222.279.279,0,0,1,.216-.083.31.31,0,0,1,.248.124l3.021,4.023v-3.842a.32.32,0,0,1,.077-.222.27.27,0,0,1,.207-.083A.251.251,0,0,1,398.69,134.523Z" transform="translate(-376.667 -123.037)" fill="#fff"/>
      <path id="Trazado_17760" data-name="Trazado 17760" d="M420.431,139.312a2.086,2.086,0,0,1-.822-.9,3.115,3.115,0,0,1-.289-1.383,3.073,3.073,0,0,1,.289-1.377,2.075,2.075,0,0,1,.822-.9,2.435,2.435,0,0,1,1.263-.313,2.726,2.726,0,0,1,.923.155,2.265,2.265,0,0,1,.755.441.334.334,0,0,1,.116.252.285.285,0,0,1-.059.177.17.17,0,0,1-.138.075.415.415,0,0,1-.212-.079,2.78,2.78,0,0,0-.675-.4,1.938,1.938,0,0,0-.7-.114,1.6,1.6,0,0,0-1.3.543,2.328,2.328,0,0,0-.456,1.542,2.352,2.352,0,0,0,.456,1.55,1.607,1.607,0,0,0,1.3.543,1.953,1.953,0,0,0,.694-.116,2.759,2.759,0,0,0,.679-.4.415.415,0,0,1,.212-.079.176.176,0,0,1,.138.071.279.279,0,0,1,.059.179.334.334,0,0,1-.116.252,2.232,2.232,0,0,1-.755.441,2.716,2.716,0,0,1-.923.155A2.415,2.415,0,0,1,420.431,139.312Z" transform="translate(-396.327 -123.037)" fill="#fff"/>
      <path id="Trazado_17761" data-name="Trazado 17761" d="M443.721,139.531a.31.31,0,0,1-.081-.222v-4.575a.3.3,0,0,1,.081-.222.291.291,0,0,1,.22-.083.3.3,0,0,1,.22.083.308.308,0,0,1,.079.222v4.575a.312.312,0,0,1-.079.222.291.291,0,0,1-.22.083A.294.294,0,0,1,443.721,139.531Z" transform="translate(-415.7 -123.029)" fill="#fff"/>
      <path id="Trazado_17762" data-name="Trazado 17762" d="M454.732,139.371a.232.232,0,0,1-.083.181.291.291,0,0,1-.2.071.258.258,0,0,1-.256-.173l-.519-1.174h-2.75l-.525,1.174a.258.258,0,0,1-.256.173.3.3,0,0,1-.2-.075.234.234,0,0,1-.087-.185.27.27,0,0,1,.028-.116l2.087-4.6a.314.314,0,0,1,.132-.153.38.38,0,0,1,.386,0,.346.346,0,0,1,.132.148l2.087,4.6A.285.285,0,0,1,454.732,139.371Zm-1.277-1.587-1.159-2.6-1.153,2.6Z" transform="translate(-420.647 -123.037)" fill="#fff"/>
      <path id="Trazado_17763" data-name="Trazado 17763" d="M485.563,139.535a.283.283,0,0,1-.083-.214v-4.6a.29.29,0,0,1,.083-.214.31.31,0,0,1,.222-.081h1.424a2.6,2.6,0,1,1,0,5.187h-1.424A.3.3,0,0,1,485.563,139.535Zm1.609-.433q2,0,2-2.081t-2-2.075h-1.094V139.1Z" transform="translate(-449.03 -123.029)" fill="#fff"/>
      <path id="Trazado_17764" data-name="Trazado 17764" d="M511.173,139.535a.283.283,0,0,1-.083-.214v-4.6a.29.29,0,0,1,.083-.214.31.31,0,0,1,.222-.081h2.73a.289.289,0,0,1,.2.067.268.268,0,0,1,0,.368.289.289,0,0,1-.2.067H511.68v1.8h2.3a.289.289,0,0,1,.2.067.238.238,0,0,1,.073.185.233.233,0,0,1-.073.183.289.289,0,0,1-.2.067h-2.3v1.884h2.445a.3.3,0,0,1,.2.063.234.234,0,0,1,.073.187.23.23,0,0,1-.073.183.289.289,0,0,1-.2.067H511.4A.321.321,0,0,1,511.173,139.535Z" transform="translate(-469.431 -123.029)" fill="#fff"/>
      <path id="Trazado_17765" data-name="Trazado 17765" d="M539.513,139.54a.262.262,0,0,1-.083-.2v-4.6a.309.309,0,0,1,.081-.224.291.291,0,0,1,.22-.083.3.3,0,0,1,.22.083.313.313,0,0,1,.079.224V139.1h2.357a.3.3,0,0,1,.2.065.244.244,0,0,1,.073.189.238.238,0,0,1-.073.189.288.288,0,0,1-.2.065h-2.663A.279.279,0,0,1,539.513,139.54Z" transform="translate(-492.006 -123.029)" fill="#fff"/>
      <path id="Trazado_17766" data-name="Trazado 17766" d="M560.154,139.371a.231.231,0,0,1-.083.181.291.291,0,0,1-.2.071.258.258,0,0,1-.256-.173l-.519-1.174h-2.75l-.525,1.174a.258.258,0,0,1-.256.173.306.306,0,0,1-.206-.075.234.234,0,0,1-.087-.185.27.27,0,0,1,.029-.116l2.087-4.6a.315.315,0,0,1,.132-.153.38.38,0,0,1,.386,0,.347.347,0,0,1,.132.148l2.087,4.6A.261.261,0,0,1,560.154,139.371Zm-1.277-1.587-1.159-2.6-1.153,2.6Z" transform="translate(-504.624 -123.037)" fill="#fff"/>
    </g>
    <g id="Grupo_23335" data-name="Grupo 23335" transform="translate(0 0.002)">
      <path id="Trazado_17767" data-name="Trazado 17767" d="M205.97,130.594c-.384,5.476,4.127,9.117,8.7,11.7a.512.512,0,0,0,.765-.445v-2.158a.729.729,0,0,0-.47-.683,7.886,7.886,0,0,1-5.154-7.439,8.022,8.022,0,0,1,5.207-6.883.638.638,0,0,0,.417-.6v-1.928a.391.391,0,0,0-.61-.325c-1.528,1.037-3.161,1.938-4.709,2.958C208,126.188,206.151,128.031,205.97,130.594Z" transform="translate(-180.15 -112.943)" fill="#fff"/>
      <path id="Trazado_17768" data-name="Trazado 17768" d="M164.2,93.861a8.471,8.471,0,0,0-1.255,5.049,8.768,8.768,0,0,0,2.209,4.526,37.363,37.363,0,0,0,8.649,7.243,46.528,46.528,0,0,0,5.691,3.063c.018.008.122.035.207.053a.616.616,0,0,0,.193.012l.456-.045a.8.8,0,0,0,.8-.8h0a.9.9,0,0,0-.494-.8l-.016-.008a33.963,33.963,0,0,1-8.116-5.345c-4.031-3.824-6.3-9.855-3.537-14.948,2.384-4.4,7.721-5.777,11.234-9.082.039-.037.077-.069.116-.1a2.283,2.283,0,0,0,.814-1.776v-2a.488.488,0,0,0-.488-.488h0a1.023,1.023,0,0,0-.643.226q-3.872,3.112-7.552,6.43C169.529,87.718,166.173,90.439,164.2,93.861Z" transform="translate(-145.867 -78.406)" fill="#fff"/>
      <path id="Trazado_17769" data-name="Trazado 17769" d="M94.131,104.056a11.221,11.221,0,0,1-.045-12.082c2.728-4.743,7.63-8.539,11.529-11.97.464-.409.913-.74,1.391-1.1a.282.282,0,0,0-.169-.509H84.677a5.557,5.557,0,0,0-5.557,5.557v24.238a5.557,5.557,0,0,0,5.557,5.557h19.281a.283.283,0,0,0,.159-.517c-.216-.142-.429-.287-.643-.435C100,110.392,96.418,107.56,94.131,104.056Z" transform="translate(-79.12 -78.39)" fill="#fff"/>
      <path id="Trazado_17770" data-name="Trazado 17770" d="M244.07,169.112c.006-.037.016-.071.022-.108C244.1,168.945,244.1,168.949,244.07,169.112Z" transform="translate(-210.518 -150.545)" fill="#fff"/>
      <path id="Trazado_17771" data-name="Trazado 17771" d="M244.072,172.884c-.006-.039-.018-.075-.022-.114C244.07,172.921,244.074,172.931,244.072,172.884Z" transform="translate(-210.503 -153.573)" fill="#fff"/>
      <circle id="Elipse_396" data-name="Elipse 396" cx="2.677" cy="2.677" r="2.677" transform="translate(32.945 15.943)" fill="#fff"/>
    </g>
  </g>
  <rect id="Rectángulo_9153" data-name="Rectángulo 9153" width="133.922" height="67.29" fill="none"/>
</svg>
