<?xml version="1.0" encoding="utf-8"?>
<!-- Generator: Adobe Illustrator 26.5.3, SVG Export Plug-In . SVG Version: 6.00 Build 0)  -->
<svg version="1.1" id="Capa_1" xmlns="http://www.w3.org/2000/svg" xmlns:xlink="http://www.w3.org/1999/xlink" x="0px" y="0px"
	 viewBox="0 0 121.3 82.3" style="enable-background:new 0 0 121.3 82.3;" xml:space="preserve">
<style type="text/css">
	.st0{fill:none;}
	.st1{fill:#504F4E;fill-opacity:0;}
	.st2{fill:#FFFFFF;}
	.st3{enable-background:new    ;}
</style>
<g id="logo-TIC06" transform="translate(-366.855 -9.182)">
	<rect id="Rectángulo_9086" x="366.9" y="9.2" class="st0" width="121.3" height="82.3"/>
	<g id="Grupo_23271" transform="translate(13.855 99)">
		<rect id="Rectángulo_9074" x="367" y="-74" class="st0" width="93.6" height="50.7"/>
		<g id="Grupo_23247">
			<rect id="Rectángulo_9071" x="367" y="-74" class="st1" width="93.6" height="50.7"/>
			<g id="logo-TIC" transform="translate(367.034 -73.972)">
				<g id="Grupo_23246" transform="translate(-0.034 -0.028)">
					<path id="Trazado_17553" class="st2" d="M48,16.2c0-0.1-0.1-0.1-0.2-0.1l0,0c-0.1,0-0.2,0-0.2,0.1c-1.1,0.4-2.1,0.7-3.2,1.1
						c-0.1,0-0.1,0-0.1,0c-0.2,0.1-0.2,0.1-0.3,0.3c0,0,0,0.1-0.1,0.2c-0.1,0.2-0.1,0.3-0.2,0.5l-0.1,0.3c0,0-0.1,0-0.1,0
						c-0.1,0-0.1,0.1-0.2,0.1c-0.1,0.1-0.2,0.1-0.3,0.2c0,0-0.1,0.1-0.1,0.1c0,0,0,0,0,0v-0.2c0-0.2,0-0.4,0-0.6c0-0.4,0-0.8,0-1.2
						c0-0.3,0-0.7-0.1-1.1l0-0.5c0,0,0,0,0,0c0,0,0-0.1,0-0.1h0.1l0.4,0c0.2,0,0.4,0,0.6,0c0.1,0,0.1,0,0.2,0h0.1
						c0.1,0,0.1,0,0.2-0.1c0,0,0.1-0.1,0.1-0.1c0.7-0.9,1.5-1.7,2.2-2.6l0-0.1c0,0,0-0.1,0-0.1c0,0-0.1-0.1-0.1-0.1h0
						c-0.1,0-0.1,0-0.2,0l-2.9,1.1l-0.4,0.1l-0.1,0c-0.2,0.1-0.2,0.1-0.3,0.4c0,0.1,0,0.2,0,0.3c0,0.1,0,0.1,0,0.2l-0.1,0.1
						l-0.2,0.1l-1.1,0.7c-1.3,0.8-2.6,1.6-3.9,2.5c-0.4,0.2-0.7,0.5-1.1,0.7l-0.6,0.4c0,0,0,0,0,0c0,0-0.1,0-0.1,0
						c0-0.1,0-0.2,0-0.2c0-0.2,0-0.3,0-0.5c0-0.1,0-0.2,0-0.3c0-0.1,0-0.3,0-0.5h0.1c0.2,0,0.5,0,0.7,0c0.7-0.1,1.2-0.4,1.6-1
						c0.1-0.1,0.2-0.3,0.2-0.4c0.2-0.6,0.4-1.2,0.4-1.8c0-0.1,0-0.2,0-0.2c-0.1-0.4-0.4-0.7-0.6-0.9c-0.2-0.2-0.4-0.3-0.6-0.5
						c0.1,0,0.1,0,0.2,0c0.3,0.1,0.6,0.2,0.8,0.2c0.5,0.2,1,0.3,1.6,0.3c0.6,0.1,1.1-0.1,1.6-0.3c0.3-0.2,0.6-0.4,0.8-0.6
						c0.2-0.2,0.4-0.4,0.6-0.6c0,0,0-0.1,0-0.1c0-0.1-0.1-0.1-0.1-0.1c-0.1,0-0.1,0-0.1,0h-0.4c-0.2,0-0.4,0-0.7,0
						c-0.1,0-0.1,0-0.2,0h0c0-0.1,0-0.2,0-0.2V11c0,0,0-0.1,0-0.1c0-0.1,0-0.1,0-0.2c0,0,0,0,0,0c0,0,0.1,0,0.1,0c0.1,0,0.2,0,0.2,0
						c0,0,0.1,0,0.1-0.1c0,0,0,0,0,0c0,0,0,0,0.1,0l0.1,0.1l0.1,0.1c0.1,0.1,0.3,0.2,0.4,0.3c0.1,0.1,0.2,0.1,0.3,0.1
						c0.1,0,0.2,0,0.2,0c0.1,0,0.1-0.1,0.1-0.2v-0.1l0,0c0,0,0.1,0,0.1,0l0.2,0.1c0.1,0.1,0.2,0.1,0.3,0.2l0,0
						c0.1,0.1,0.2,0.1,0.2,0.1c0.1,0,0.2,0,0.2,0c0.1,0,0.1-0.1,0.1-0.2v-0.1l0.1,0.1c0,0,0.1,0.1,0.1,0.1c0.1,0.1,0.2,0.2,0.3,0.3
						c0.1,0.1,0.2,0.1,0.3,0.2c0.2,0.1,0.3,0,0.5-0.1l0-0.1c0,0,0,0,0,0c0,0,0.1,0,0.1,0c0.1,0,0.2,0.1,0.3,0.1
						c0.1,0,0.2,0.1,0.3,0.1l0.1,0l0,0c0,0,0.1,0.1,0.1,0.1c0.2,0.2,0.5,0.4,0.8,0.5c0.1,0,0.2,0.1,0.3,0.1l0,0c0.1,0,0.1,0,0.2-0.1
						c0.1-0.1,0.1-0.1,0.1-0.2c0-0.1,0-0.1-0.1-0.2l0-0.1c-0.1-0.1-0.1-0.2-0.2-0.4c-0.2-0.3-0.4-0.5-0.6-0.7
						c-0.5-0.5-1-1.1-1.6-1.5c-0.3-0.3-0.6-0.5-0.9-0.8c-0.3-0.2-0.6-0.5-0.9-0.7c-1.3-1.1-2.6-2.1-3.9-3c-0.8-0.6-1.7-1.2-2.5-1.7
						C36.5,2.7,36,2.3,35.5,2C34.7,1.4,33.9,1,33,0.7c-0.8-0.3-1.7-0.5-2.5-0.6C30,0,29.4,0,28.8,0c-0.3,0-0.6,0-0.8,0.1
						c-0.4,0.1-0.8,0.3-1.1,0.5c-0.4,0.3-0.7,0.8-0.7,1.3c0,0.4,0.1,0.9,0.2,1.3c0,0.1,0.1,0.1,0.1,0.2c0,0.1,0.1,0.2,0.1,0.3
						c0.1,0.2,0.1,0.4,0.1,0.6c0,0.2,0,0.4,0,0.6c0,0.1-0.1,0.2-0.2,0.3C26.3,5.3,26,5.2,25.8,5c-0.3-0.3-0.8-0.4-1.2-0.4
						c-0.1,0-0.2,0-0.3,0l-0.3-0.2l-0.2-0.1c0-0.8,0-0.8-0.5-1.3v0c0,0,0-0.1,0-0.1c0-0.1,0-0.2-0.1-0.2c-0.2-0.2-0.5-0.2-0.7-0.2
						c-0.1,0-0.1,0-0.2,0.1c-0.1,0.1-0.3,0.1-0.4,0c-0.1-0.1-0.3-0.1-0.5,0c0,0,0,0,0,0c0,0,0,0-0.1,0c0,0,0-0.1,0-0.1
						c0,0,0,0,0-0.1c0.1-0.3,0.1-0.6,0.1-0.9c0-0.5-0.3-0.9-0.7-1.1c-0.2-0.1-0.4-0.2-0.6-0.2c-0.5-0.1-1-0.2-1.5-0.2h-0.1
						c-0.8,0-1.6,0.1-2.4,0.3c-0.8,0.2-1.5,0.4-2.2,0.7c-0.6,0.2-1.2,0.6-1.7,1c-0.3,0.3-0.6,0.5-1,0.7c-0.3,0.2-0.6,0.4-1,0.6
						C8.6,4.3,7.2,5.3,6,6.5C5.8,6.6,5.6,6.8,5.4,7C5.3,7.1,5.2,7.2,5,7.3L4.9,7.5C4.6,7.8,4.3,8,4,8.3C3.5,8.7,3,9.2,2.4,9.6
						L2.1,9.8c-0.4,0.3-0.6,0.5-0.9,0.7c-0.5,0.4-0.9,1-1.2,1.6c0,0.1,0,0.1-0.1,0.2c0,0,0,0.1,0,0.1c0,0,0.1,0.1,0.1,0.1
						c0.1,0,0.1,0,0.2,0c0.2,0,0.5-0.1,0.7-0.2c0.3-0.2,0.6-0.5,1-0.6c0,0,0.1,0,0.1-0.1c0,0,0,0,0.1,0c0,0,0,0,0,0c0,0,0,0,0,0v0
						c0,0,0,0.1,0,0.1c0,0.1,0.1,0.2,0.3,0.2c0,0,0,0,0,0c0.1,0,0.1,0,0.2-0.1c0.1,0,0.1-0.1,0.2-0.1l0.3-0.2
						c0.1-0.1,0.2-0.2,0.3-0.3c0,0,0,0,0,0c0,0,0,0.1,0,0.1c0,0.1,0,0.2,0.1,0.3c0.1,0.1,0.2,0.1,0.3,0.1c0.1,0,0.2-0.1,0.3-0.1
						c0.3-0.1,0.5-0.3,0.8-0.4c0,0,0.1,0,0.1-0.1V11c0,0.1,0,0.1,0.1,0.2c0.1,0,0.1,0,0.2,0c0.3,0,0.6-0.2,0.8-0.4l0,0
						c0,0,0,0,0.1-0.1c0,0,0,0,0,0c0.1,0.1,0.3,0.2,0.4,0.1c0.1,0,0.1,0,0.2-0.1c0.1,0,0.1-0.1,0.2-0.1L7,10.6l0,0
						c0,0,0.1,0,0.1-0.1c0,0.1,0.1,0.2,0.1,0.3l0,0.1c0,0,0,0.1,0,0.1c0,0.1,0,0.2,0,0.3h0c0,0-0.1,0-0.1,0H6.3c-0.1,0-0.1,0-0.1,0
						c-0.1,0-0.2,0.1-0.2,0.2c0,0,0,0,0,0.1c0,0,0,0.1,0.1,0.1c0.3,0.4,0.6,0.7,1,1c0.3,0.2,0.6,0.3,0.9,0.3c0.3,0,0.5,0,0.8,0
						c0.4-0.1,0.8-0.2,1.1-0.2l0.3-0.1c0.3-0.1,0.6-0.2,1-0.2c0.1,0,0.2,0,0.3,0c0,0,0,0-0.1,0.1c-0.1,0.1-0.3,0.3-0.4,0.4
						c-0.1,0.1-0.1,0.1-0.2,0.2s-0.1,0.1-0.2,0.2c-0.3,0.3-0.5,0.7-0.5,1.2c0,0.5,0.1,1.1,0.4,1.6c0.2,0.4,0.6,0.8,1,1
						c0.3,0.1,0.6,0.2,0.9,0.3c0.1,0,0.3,0.1,0.4,0.1l0,0c0,0.3,0,0.5-0.1,0.8l0,0.4l0,0c-0.1,0-0.1-0.1-0.2-0.1
						c-1.4-0.8-2.8-1.7-4.2-2.6c-0.5-0.3-1-0.7-1.5-1c-0.3-0.2-0.7-0.4-1-0.7c-0.1-0.1-0.2-0.1-0.2-0.2c0-0.1,0-0.1-0.1-0.2
						s-0.1-0.1-0.1-0.2c0-0.1-0.1-0.2-0.3-0.3c0,0,0,0-0.1,0l-0.6-0.2l-2.3-0.8l0,0c0,0-0.1,0-0.1,0c0,0-0.1,0-0.1,0
						c-0.1,0-0.1,0-0.1,0.1c0,0.1,0,0.1,0,0.2c0,0,0.1,0.1,0.1,0.1l0,0c0.2,0.3,0.4,0.5,0.6,0.8c0.4,0.5,0.9,1.1,1.3,1.6
						c0.1,0.1,0.2,0.2,0.4,0.2c0.3,0,0.5,0,0.8-0.1l0.1,0h0.1c0,0.3,0,0.6,0,0.9c0,0.3,0,0.6,0,0.9c0,0.1,0,0.2,0,0.3
						c0,0.2,0,0.4,0,0.6c0,0.1,0,0.2,0,0.4c0,0.2,0,0.3,0,0.5c0,0,0,0-0.1,0c-0.1,0-0.1-0.1-0.2-0.1c-0.1-0.1-0.2-0.1-0.3-0.2
						c-0.1,0-0.1-0.1-0.2-0.2c0-0.2-0.1-0.3-0.1-0.5l0-0.1c0-0.1-0.1-0.2-0.2-0.2c-0.2,0-0.3-0.1-0.5-0.2l-0.4-0.2l-2.8-1.1l0,0
						c-0.1,0-0.1,0-0.2-0.1c-0.1,0-0.1,0-0.1,0.1c0,0,0,0.1,0,0.2c0,0.1,0.1,0.1,0.1,0.2c0.2,0.3,0.5,0.6,0.7,0.8
						c0.6,0.7,1.1,1.3,1.7,2c0.1,0.1,0.2,0.2,0.4,0.2h0c0.3,0,0.5,0,0.8,0h0.2c0,0,0.1,0,0.1,0h0v0.1c0,0.3,0,0.5-0.1,0.8
						c0,0.4-0.1,0.8-0.1,1.2c-0.1,1-0.1,2-0.1,3c0,1.1,0,2.2,0.1,3.3c0.1,0.9,0.2,1.8,0.3,2.7c0.2,1.6,0.6,3.1,1.1,4.6
						c0.3,1.1,0.8,2.1,1.3,3.1c0.8,1.5,2,2.9,3.4,3.9c1.4,1,3.1,1.7,4.8,1.8c0.9,0.1,1.8,0,2.6-0.2c0.9-0.2,1.7-0.5,2.4-1
						c0.2-0.1,1-0.7,1.1-0.7c0,0,0.1,0,0.1-0.1v0c0,0,0,0.1,0,0.1c0,0.1-0.4,1-0.5,1.3c-0.4,1.1-0.9,2.1-1.5,3.1c0,0,0,0.1-0.1,0.1
						l0,0.1c0,0,0,0.1,0,0.1c0,0,0,0.1,0,0.1c0,0,0.1,0.1,0.1,0.1c0,0,0,0,0.1,0h0c0.4,0,0.8,0,1.2,0l0.1,0c0.1,0,0.2,0,0.2,0.1
						c0,0.1,0,0.2,0,0.3c0,0,0,0.1,0,0.1c0,0.1,0,0.3,0,0.4c0,0.2,0,0.3-0.1,0.5c0,0.3,0.1,0.5,0.3,0.6c0.1,0,0.2,0.1,0.3,0.1
						c0.2,0,0.4,0,0.6,0h0.2c0,0.1,0,0.1,0,0.2s0,0.1,0,0.2c0,0.2,0,0.3,0,0.5c0,0.3,0.2,0.6,0.5,0.6l0,0c0.1,0,0.1,0,0.2,0
						c0.4,0.1,0.8,0.1,1.2,0.1h0.2c0.3,0,0.7,0,1-0.1c0.1,0,0.3-0.1,0.4-0.1c0.2-0.1,0.3-0.2,0.4-0.4c0-0.1,0-0.2,0-0.3
						c0-0.2,0-0.4-0.1-0.6c0,0,0-0.1,0-0.1v0c0,0,0,0,0,0c0,0,0,0,0.1,0c0.1,0,0.3,0,0.4,0c0.1,0,0.2,0,0.2,0s0.2,0,0.2,0
						c0.2,0.1,0.5-0.1,0.5-0.3c0,0,0,0,0,0c0-0.1,0-0.2,0-0.3c0-0.4-0.1-0.7-0.2-1c0-0.1,0-0.1-0.1-0.2c0.1,0,0.2,0,0.2,0h0
						c0.4,0,0.9,0,1.3-0.1c0.1,0,0.1,0,0.2,0c0.1,0,0.1-0.1,0.1-0.1c0-0.1,0-0.1-0.1-0.1c-0.1,0-0.1-0.1-0.1-0.2
						c0-0.1-0.1-0.2-0.2-0.3c-0.1-0.2-0.3-0.4-0.4-0.7c-0.6-1.1-1.1-2.3-1.4-3.6c0,0,0-0.1,0-0.1c0,0,0,0,0,0c0,0,0.1,0,0.1,0.1
						c0.6,0.3,1.1,0.6,1.7,0.8c1.1,0.5,2.3,0.8,3.5,1c0.7,0.1,1.4,0.1,2.1,0c1-0.1,1.9-0.5,2.7-0.9c1.1-0.6,2.1-1.5,3-2.5
						c0.8-1,1.5-2.1,2-3.2c0.7-1.6,1.3-3.3,1.6-5.1c0.2-1.1,0.4-2.2,0.5-3.2c0.1-0.9,0.2-1.9,0.2-2.8c0-1.6,0-3.2-0.1-5.4
						c0-0.4,0-0.8-0.1-1.2c0,0,0-0.1,0-0.1v0h0.2l0.4,0c0.2,0,0.5,0,0.7,0c0.1,0,0.2,0,0.3-0.1c0,0,0.1-0.1,0.1-0.1c0,0,0,0,0,0
						l2.3-2.6l0,0c0-0.1,0.1-0.1,0.1-0.2C48,16.3,48,16.2,48,16.2L48,16.2z M42.7,14.6c0-0.3,0.1-0.5,0.1-0.8
						c0.2-0.1,0.4-0.2,0.7-0.2l0.3-0.1l0.3-0.1c0.2-0.1,0.5-0.2,0.7-0.3c0.1,0,0.2-0.1,0.3-0.1c0.2-0.1,0.4-0.2,0.6-0.2l-1.3,1.5
						L43.9,15l-1.2-0.1C42.7,14.8,42.7,14.7,42.7,14.6L42.7,14.6z M38.7,21.4c0.1-1.3,0.2-2.8,0.2-4.4c0.3-0.3,3-1.9,3.4-2.1
						c0,0,0,0,0,0c0.1,1.4,0.2,2.9,0.2,4.3c0,0,0,0,0,0c-1.4,0.9-2.6,1.7-3.8,2.4h0v0C38.7,21.6,38.7,21.5,38.7,21.4L38.7,21.4z
						 M35.3,23.5L35.3,23.5c0-0.1,0-0.2,0-0.3c0-0.2,0-0.3,0-0.5c0-1.2,0-2.3,0-3.3v-0.1c0.3-0.2,0.5-0.4,0.8-0.5v0
						c0,1.5-0.2,3-0.4,4.6C35.6,23.4,35.5,23.5,35.3,23.5C35.3,23.6,35.3,23.5,35.3,23.5L35.3,23.5z M35.3,24.2c0-0.1,0-0.1,0-0.2v0
						l0.2-0.1c0.4-0.2,0.8-0.4,1.2-0.7c0,0,0,0,0,0c0.1,1,0,2,0,2.9c-0.2,1.7-0.5,3.4-1.1,5c-0.5,1.6-1.2,3.1-2,4.6
						c-0.8,1.4-1.6,2.6-2.7,3.8c0,0,0,0-0.1,0.1l0,0c-0.4-0.3-0.7-0.7-0.9-1.1l0,0c0,0,0.1-0.1,0.1-0.1c0.5-0.5,0.9-1.1,1.3-1.7
						c0.5-0.8,1-1.6,1.4-2.4c0.2-0.4,0.4-0.9,0.6-1.3s0.3-1,0.5-1.4c0.5-1.4,0.8-2.9,1.1-4.3C35.1,26.1,35.2,25.2,35.3,24.2
						L35.3,24.2z M27,39.6c0,0-0.1,0-0.1-0.1l-0.1,0c-0.1,0-0.1-0.1-0.1-0.2c0,0,0-0.1,0.1-0.1s0-0.1,0-0.1c0.1-0.2,0.1-0.5-0.1-0.7
						v0l0,0c0.1-0.1,0.1-0.2,0-0.3c0-0.1-0.1-0.3-0.2-0.4c-0.2-0.2-0.5-0.2-0.7,0c0,0-0.1,0.1-0.1,0.1c0,0,0,0,0,0c0,0,0,0-0.1-0.1
						c-0.1-0.1-0.3-0.2-0.4-0.2c-0.1,0-0.3,0-0.4,0l-0.5,0c-0.1,0-0.1,0-0.2,0c-0.1,0-0.2,0.1-0.3,0.1c-0.1,0-0.3,0-0.4,0
						c0,0,0,0-0.1,0c-0.1,0-0.2,0-0.2,0.1l0,0c0,0.1-0.1,0.1-0.1,0.2c-0.1,0.1-0.1,0.1-0.2,0.1c0,0-0.1,0-0.1,0c0,0,0,0,0,0
						c-0.2-0.1-0.5,0-0.7,0.1c-0.1,0-0.1,0.1-0.2,0.1c-0.1,0.1-0.1,0.2-0.1,0.3c0,0,0,0,0,0.1c0,0,0,0,0,0c0,0.1-0.1,0.2-0.2,0.3
						c0,0,0,0-0.1,0c-0.3,0-0.5,0.1-0.7,0.3c-0.2,0.2-0.4,0.4-0.4,0.6l0,0.1c0,0,0,0.1,0,0.1c0,0,0,0-0.1,0c-1.1-1-2.1-2.1-3-3.3
						c-0.7-0.9-1.2-1.9-1.7-2.9l0,0c0,0,0-0.1,0-0.1c0.3,0,1.6,0,1.9,0c0,0,0,0.1,0,0.1c0,0.4,0.3,0.8,0.6,1c0,0,0,0,0.1,0
						c0.1,0,0.1,0.1,0.2,0.1c0.1,0,0.1,0.1,0.2,0.2c0,0.1,0,0.1,0.1,0.1c0,0,0,0,0,0.1c0.2,0.4,0.4,0.7,0.8,1
						c0.3,0.2,0.6,0.3,0.9,0.4c0.3,0.1,0.5,0.1,0.8,0.2c0.6,0.1,1.1,0.3,1.6,0.4c0.5,0.1,1.1,0.2,1.7,0.2c0.5,0,1.1,0,1.6-0.1
						c0.1,0,0.1,0,0.2,0s0.1,0,0.2-0.1c0.3-0.1,0.6,0,0.7,0.3c0,0,0,0.1,0,0.1l0,0c0.1,0.1,0.2,0.3,0.3,0.3c0.1,0,0.2,0.1,0.3,0.2
						c0,0,0.1,0.1,0.1,0.1c0.1,0.1,0.2,0.1,0.4,0c0.2-0.1,0.3-0.3,0.3-0.5c0-0.1,0-0.2-0.1-0.3c0,0-0.1-0.1-0.1-0.1l0,0c0,0,0,0,0,0
						c0,0,0,0,0,0l0.1-0.1c0.1-0.1,0.2-0.2,0.3-0.3c0.2-0.2,0.5-0.3,0.7-0.3c0,0,0.1,0,0.1,0c0,0,0.1,0,0.1,0c0.1,0,0.2,0,0.2-0.1
						c0-0.1,0-0.2,0-0.2c0,0,0,0,0,0c0.1-0.1,0.2-0.1,0.3,0c0.1,0,0.2,0.1,0.3,0.1c0.2,0.1,0.4,0.2,0.7,0.3c-1,1.4-2.2,2.6-3.5,3.6
						c0,0,0-0.1,0-0.1c0-0.1,0-0.1,0-0.2C27.4,40,27.3,39.7,27,39.6L27,39.6z M18.5,17.4c0,0.2,0,0.2,0.2,0.3c0.1,0,0.2,0,0.3,0
						c0.1,0,0.3,0,0.4,0c0,0,0,0,0,0h0c-0.1,0-0.2,0-0.3,0c-1,0-1.9-0.1-2.9-0.5c-0.3-0.1-0.6-0.2-0.9-0.4c0.6-0.2,1.2-0.3,1.9-0.4
						c0.5-0.1,1-0.1,1.4,0c0,0,0,0.1,0,0.1c0,0,0,0,0,0C18.6,16.9,18.5,17.2,18.5,17.4L18.5,17.4z M16.8,17.9
						c0.8,0.2,1.6,0.3,2.4,0.3c1-0.1,2-0.3,3-0.7c0.2-0.1,0.4-0.2,0.6-0.3c0.1,0,0.2-0.1,0.3-0.1c0.2,0.3,0.5,0.5,0.8,0.6l0,0l0,0
						c0.1,0,0.1-0.1,0.1-0.2c0-0.2-0.1-0.4-0.2-0.6c0,0,0-0.1,0-0.1l0,0c0,0,0.1-0.1,0.2-0.1c0,0,0,0.1,0,0.1c0,0,0,0.1,0,0.1
						c0,0,0,0.1,0,0.1c0,0,0,0.1,0,0.1c0,0.1,0.1,0.2,0.1,0.3c0,0,0,0,0,0.1c0,0.1,0.1,0.1,0.1,0.2l0,0l0,0c0.1-0.1,0.1-0.2,0.3-1
						l0,0c0,0,0.1,0,0.1,0c0,0,0,0,0,0c0.6,0.3,1.3,0.6,1.9,0.8c0.8,0.3,1.7,0.4,2.6,0.4h0c0.8,0,1.6-0.2,2.4-0.4
						c0.5-0.2,1-0.4,1.4-0.6c0.1-0.1,0.2-0.1,0.3,0c0.4,0.1,0.8,0.3,1.2,0.4c0.1,0,0.1,0,0.2,0l0.1,0c0.1,1.5,0.2,3.1,0.2,4.6
						c0,1.2-0.1,2.4-0.2,3.6c0,0,0,0,0,0c-7.2,0-14.4-0.1-21.5-0.1c0,0,0,0,0,0c0,0,0,0,0,0c0-0.2-0.1-0.4-0.1-0.6l0-0.1
						c-0.2-2.4-0.2-4.8,0-7.2h0c0,0,0.1,0,0.1,0c0.2,0,0.3-0.1,0.5-0.1c0.3-0.1,0.7-0.1,1-0.2c0.1,0,0.2,0,0.3,0
						C15.7,17.4,16.2,17.7,16.8,17.9L16.8,17.9z M19.8,17.3c0.1,0.1,0.1,0.1,0,0.3c0,0,0,0,0,0c0,0,0,0,0,0c0,0,0,0,0,0
						C19.7,17.5,19.7,17.4,19.8,17.3L19.8,17.3z M20.1,17.7c0,0,0-0.1,0.1-0.1l0,0c0,0,0,0,0-0.1c0,0,0,0,0-0.1l0,0c0,0,0,0,0,0.1
						c0,0.1,0.1,0.1,0.1,0.2c0,0-0.1,0-0.1,0c0,0-0.1,0-0.1,0C20.2,17.7,20.2,17.7,20.1,17.7L20.1,17.7L20.1,17.7z M20.6,17.2
						C20.6,17.2,20.6,17.2,20.6,17.2C20.6,17.2,20.7,17.2,20.6,17.2c0.1,0.1,0.1,0.2,0.1,0.3c0,0-0.1-0.1-0.1-0.1c0,0,0,0,0-0.1
						C20.6,17.2,20.6,17.2,20.6,17.2L20.6,17.2L20.6,17.2L20.6,17.2z M21.2,16.9v0.1c0,0,0,0.1,0,0.1c0,0,0,0.1,0,0.1
						c0,0,0,0,0.1,0.1c0,0,0,0,0.1,0c0,0,0,0,0,0h0c-0.1,0-0.1,0-0.2,0.1s-0.1,0-0.2,0l0,0c0,0,0,0,0-0.1c0,0,0-0.1,0-0.1
						c0,0,0-0.1,0-0.1c0-0.1,0-0.1,0.1-0.2C21.1,17,21.1,17,21.2,16.9L21.2,16.9L21.2,16.9z M21.5,16.9
						C21.5,16.9,21.5,16.9,21.5,16.9L21.5,16.9C21.5,16.9,21.5,16.9,21.5,16.9C21.6,16.9,21.6,16.9,21.5,16.9L21.5,16.9L21.5,16.9
						C21.6,16.9,21.6,16.9,21.5,16.9c0.1,0.1,0.1,0.1,0.1,0.1c0,0,0,0-0.1,0c0,0,0,0,0,0C21.5,17,21.5,16.9,21.5,16.9L21.5,16.9z
						 M21.7,17.3c0,0,0.1-0.1,0.1-0.1c0,0,0.1-0.1,0.1-0.2c0,0,0,0,0,0c0,0,0,0,0,0c0,0,0,0,0,0h0c0,0,0,0,0,0c0,0,0,0,0,0.1
						c0,0,0,0,0,0.1v0v0c0,0-0.1,0-0.1,0L21.7,17.3C21.8,17.3,21.7,17.3,21.7,17.3L21.7,17.3L21.7,17.3z M20.1,13c0,0.1,0,0.2,0,0.2
						c-0.1,0.2-0.2,0.4-0.3,0.5l-0.1,0.2c0,0,0,0,0,0c0,0-0.1,0-0.1,0c-0.7-0.2-1.5-0.2-2.2-0.1c-0.7,0.1-1.3,0.2-2,0.4l-0.4,0.1
						l-0.4,0.1c-0.4,0.1-0.7,0.2-1.1,0.2c-0.2,0-0.5,0.1-0.7,0.1l-0.1,0c-0.1,0-0.2,0-0.3,0c0,0,0,0,0,0l0,0
						c0.2-0.2,0.3-0.5,0.5-0.8c0.1-0.2,0.2-0.4,0.2-0.7c0.1-0.8-0.3-1.6-0.9-2.1c-0.4-0.3-0.8-0.4-1.2-0.5c-0.4,0-0.9,0-1.3,0.1
						c-0.2,0-0.5,0.1-0.7,0.1H8.9c-0.2,0-0.5-0.1-0.7-0.2c0,0,0,0,0,0c0,0,0.1-0.1,0.1-0.1c0.4-0.2,0.8-0.5,1.2-0.8
						c0,0,0,0.1,0.1,0.1C9.7,9.9,9.8,9.9,10,9.9c0.1,0,0.2-0.1,0.3-0.1c0.2-0.1,0.4-0.3,0.6-0.4l0.2-0.1c0,0,0.1,0,0.1-0.1l0,0
						c0.1,0.1,0.2,0.2,0.3,0.2c0.1,0,0.3,0,0.4-0.1c0.2-0.1,0.4-0.3,0.6-0.4c0,0,0.1,0,0.1,0l0,0c0,0,0.1,0,0.1,0h0
						c0.4,0,0.8-0.2,1.2-0.5c0,0,0,0,0,0c0.1,0.1,0.2,0.2,0.3,0.2v0.2c0,0.2,0.1,0.4,0.3,0.5c0.1,0.1,0.3,0.2,0.5,0.1
						c0.1,0,0.1,0,0.2-0.1l0,0c0,0,0,0,0,0l0.1,0l0.1,0c0,0,0,0,0,0l0,0c0.2,0.1,0.5,0,0.6-0.2c0.2-0.2,0.2-0.4,0.5-0.3
						c0.3,0.1,0.6,0.1,0.9,0l0.1,0h0l0.1,0h0l0,0.1c0,0,0,0,0,0c0.1,0.1,0.2,0.3,0.3,0.4c0.1,0.2,0.2,0.5,0.6,0.5c0,0,0.1,0,0.1,0
						c0,0,0,0,0.1,0c0,0,0.2,0.3,0.2,0.4c0.1,0.1,0.2,0.2,0.4,0.2l0.1,0l0,0.1c0.1,0.2,0.3,0.7,0.6,0.5c0.1,0,0.1-0.1,0.2-0.2l0,0
						c-0.1,0.1-0.1,0.2-0.1,0.4c0,0.1,0,0.3-0.1,0.4c-0.1,0.3,0,0.6,0.1,0.9c0,0.1,0.2,0.2,0.1,0.3c0,0.1,0,0.1-0.1,0.2
						C20.1,12.9,20.1,12.9,20.1,13L20.1,13z M20.1,9.9c0,0.2-0.1,0.4-0.3,0.6c0,0,0,0,0,0c0-0.1-0.1-0.1-0.1-0.2c0,0,0-0.1,0-0.1
						c0-0.1,0-0.2,0-0.3c0-0.1,0-0.3,0-0.4c0-0.2,0-0.5,0.1-0.7c0.1-0.2,0.2-0.4,0.3-0.6l0,0c0,0,0,0,0,0.1
						C20.2,8.8,20.2,9.4,20.1,9.9L20.1,9.9z M19.7,7.9L19.7,7.9C19.7,8,19.7,8,19.7,7.9c-0.3-0.6-0.1-1.5,0.4-2v0l0,0.1
						c0,0.1,0,0.2,0,0.3C20.2,6.9,20.1,7.4,19.7,7.9z M20,5.5L20,5.5c-0.1,0.1-0.2,0.2-0.3,0.3c0,0-0.1,0.1-0.1,0.1
						c0-0.1,0-0.2,0-0.3c0-0.1,0-0.3,0-0.4c0-0.1,0-0.1,0.1-0.2c0-0.1,0.1-0.2,0.1-0.3c0,0,0-0.1,0.1-0.1c0.1-0.2,0.3-0.3,0.5-0.4
						c0,0,0.1,0,0.1,0c0,0,0,0,0,0c0,0,0.1,0.1,0.1,0.1c0,0.1,0,0.1,0,0.2C20.4,5,20.3,5.3,20,5.5L20,5.5z M23.2,6.9
						C23.2,7,23.2,7,23.2,6.9c-0.3-0.1-0.6-0.3-0.8-0.5c-0.2-0.3-0.4-0.6-0.5-0.9c0,0,0.1,0.1,0.1,0.1c0.1,0.1,0.1,0.1,0.2,0.2
						C22.6,6.1,22.9,6.5,23.2,6.9L23.2,6.9z M22.4,5C22.4,5,22.5,5,22.4,5l0.2,0C22.8,5,22.9,5.1,23,5.3c-0.2,0.1-0.3,0.1-0.5,0.1
						l-0.1-0.2C22.4,5.1,22.4,5,22.4,5L22.4,5z M24.4,15.1c-0.3,0.4-0.4,0.8-0.5,1.3c0,0-0.1,0-0.1,0c-0.1,0-0.1-0.1-0.2-0.1l0,0
						l0,0c0,0,0,0,0-0.1c0.2-0.2,0.3-0.4,0.4-0.6v0c0-0.1,0-0.1,0.1-0.1c0.1,0,0.1-0.1,0.1-0.2c0.1-0.2,0.1-0.4,0.2-0.6
						c0,0.1,0,0.1,0,0.2C24.5,14.9,24.5,15,24.4,15.1L24.4,15.1z M24.5,15.4c0.1,0.7,0.1,1.4-0.1,2c0,0,0,0,0,0
						C24,16.8,24.1,16,24.5,15.4L24.5,15.4z M22.4,15.4L22.4,15.4l0.3,0.3c0,0.3,0,0.5,0.1,0.8c0,0.1,0.1,0.2,0.1,0.2v0c0,0,0,0,0,0
						s0,0,0,0c0,0,0,0,0,0c0,0,0,0,0,0c-0.1-0.3-0.1-0.5-0.2-0.7S22.5,15.6,22.4,15.4L22.4,15.4L22.4,15.4z M20.4,10
						c-0.1,0.1-0.1,0.1-0.2,0.2c0,0,0,0,0-0.1c0-0.3,0.1-0.6,0.1-1c0-0.1,0-0.1,0-0.2c0,0.1,0.1,0.2,0,0.2
						C20.4,9.5,20.4,9.8,20.4,10z M20.4,7.5c0.5,0.5,0.7,1.3,0.5,2C20.4,9,20.2,8.2,20.4,7.5z M20.4,5.8L20.4,5.8
						c0-0.1,0-0.1,0.1-0.2l0,0c0,0,0-0.1,0.1-0.1c0-0.1,0.1-0.1,0.2-0.2l0,0c0,0.1,0,0.1,0.1,0.2c0.1,0.3,0.1,0.5,0.2,0.8
						c0.1,0.3,0,0.7-0.1,1c0,0,0,0,0,0c-0.2-0.2-0.3-0.5-0.4-0.8C20.4,6.3,20.4,6,20.4,5.8L20.4,5.8z M20.9,5.2
						c0.3,0.2,0.5,0.4,0.7,0.7c0.2,0.4,0.3,0.8,0.2,1.2C21.3,6.5,21,5.9,20.9,5.2L20.9,5.2z M21.9,10.1c0.1,0,0.2-0.1,0.2-0.2
						c0,0,0.1,0.1,0.1,0.1c0,0,0,0.1,0.1,0.1c0,0,0,0,0,0c0,0,0,0,0,0c-0.1,0-0.1-0.1-0.1-0.1c-0.2,0.2-0.3,0.2-0.5,0
						C21.8,10.1,21.9,10.1,21.9,10.1L21.9,10.1z M22.9,7.5L22.9,7.5L22.9,7.5c0,0.2,0,0.3,0,0.4c-0.2-0.2-0.5-0.4-0.6-0.6
						c-0.1-0.2-0.2-0.4-0.2-0.6c0,0,0-0.1,0-0.1h0c0,0,0.1,0,0.1,0.1l0,0l0,0l0,0l0,0c0.1,0.2,0.3,0.3,0.5,0.4
						c0,0.1,0.1,0.1,0.1,0.2C22.9,7.3,22.9,7.4,22.9,7.5L22.9,7.5L22.9,7.5L22.9,7.5z M23.5,11.7c0-0.1,0-0.1,0.1-0.2c0,0,0,0,0,0
						c0,0,0,0,0,0h0c0,0,0,0,0,0c0,0.1,0,0.1,0,0.2c0,0.2-0.2,0.3-0.4,0.3c-0.1,0-0.1,0-0.2,0C23,12,22.9,12,22.9,12
						c0,0-0.1-0.1-0.1-0.2c0,0,0,0,0,0s0,0,0.1,0c0,0,0,0,0.1,0.1c0.1,0.1,0.3,0.2,0.4,0.1C23.4,11.9,23.4,11.8,23.5,11.7L23.5,11.7
						z M23.4,8.9c0.1,0,0.1,0.1,0.1,0.1c0.1,0.1,0.2,0.1,0.2,0.2c0.2,0.4,0.3,0.9,0.3,1.4c0,0,0,0.1,0,0.1c-0.1,0-0.3-0.1-0.3-0.3
						c-0.1-0.1-0.2-0.3-0.2-0.5C23.4,9.6,23.3,9.3,23.4,8.9L23.4,8.9z M22.6,9.6c-0.2,0-0.2,0-0.3-0.3l0.1,0.1
						c0.1,0.1,0.2,0.1,0.3,0.1c0,0,0.1,0,0.1,0s0,0.1-0.1,0.1C22.7,9.6,22.7,9.6,22.6,9.6L22.6,9.6z M22.6,10.4
						C22.6,10.4,22.6,10.4,22.6,10.4c-0.2,0-0.3,0-0.3-0.1C22.4,10.3,22.5,10.3,22.6,10.4C22.7,10.4,22.7,10.4,22.6,10.4
						C22.7,10.4,22.7,10.4,22.6,10.4L22.6,10.4z M21.7,10.7C21.7,10.7,21.7,10.7,21.7,10.7C21.7,10.7,21.7,10.7,21.7,10.7
						C21.7,10.7,21.7,10.7,21.7,10.7C21.7,10.8,21.8,10.8,21.7,10.7c0.1,0.1,0.1,0.2,0.1,0.2c0,0,0,0,0.1,0c0,0,0,0,0,0
						c0,0,0,0,0.1-0.1c0,0,0,0,0,0c0,0,0,0,0,0c0,0,0,0.1,0.1,0.1c0,0,0,0,0,0.1c0,0,0,0.1,0.1,0.1c0,0,0,0,0,0c0,0,0,0,0,0
						c0,0,0.1-0.1,0.1-0.1c0,0,0-0.1,0.1-0.1s0,0,0,0.1c0,0.1-0.2,0.3-0.2,0.3c0,0-0.1,0-0.2,0c0,0,0,0,0,0c0-0.1-0.1-0.1-0.1-0.2
						c0,0,0,0,0,0h0c0,0,0,0,0,0c0,0-0.1,0-0.1,0c0,0,0,0,0,0c0,0,0,0,0,0C21.7,10.9,21.7,10.8,21.7,10.7L21.7,10.7z M22,11.6
						C22,11.6,22,11.6,22,11.6L22,11.6C22.1,11.6,22.1,11.6,22,11.6c0.1,0.1,0.1,0.1,0.1,0.2c0,0.1,0,0.1,0.1,0.1s0.1,0,0.1-0.1
						c0,0,0-0.1,0-0.1c0,0,0,0,0.1,0c0,0,0,0,0,0c0,0.1-0.1,0.3-0.3,0.3c-0.1,0-0.1,0-0.2,0C22,12,22,11.9,22,11.8
						C22,11.7,22,11.7,22,11.6L22,11.6z M22.5,12.2C22.5,12.2,22.5,12.2,22.5,12.2c0.2,0,0.1,0.1,0.2,0.2c0,0.1,0,0.1,0.1,0.2
						c0.1,0.1,0.1,0,0.2,0s0.1-0.1,0.1-0.1c0,0,0,0,0.1,0c0,0,0,0,0,0c0,0.1,0.1,0.2,0.1,0.3s0.1,0.1,0.2,0c0,0,0,0,0.1-0.1
						c0,0,0,0,0.1,0c0,0,0.1,0.1,0,0.1c0,0.2-0.2,0.2-0.4,0.2c0,0-0.1,0-0.1-0.1c-0.1-0.1-0.1-0.1-0.1-0.2c-0.1,0-0.1,0-0.2,0.1
						c-0.1,0-0.2,0-0.2-0.1C22.5,12.6,22.4,12.4,22.5,12.2z M23.5,14.5c0,0.2-0.2,0.3-0.4,0.3c-0.1,0-0.1,0-0.2-0.1
						c-0.1-0.1-0.2-0.2-0.2-0.4c0.1,0.1,0.1,0.2,0.2,0.2c0.1,0.1,0.2,0.1,0.3,0c0,0,0,0,0-0.1c0,0,0-0.1,0.1-0.1
						C23.4,14.4,23.4,14.4,23.5,14.5C23.5,14.4,23.5,14.4,23.5,14.5L23.5,14.5z M22.9,15.9L22.9,15.9L22.9,15.9
						c0.4,0.4,0.8,0.9,0.9,1.5c-0.2-0.1-0.4-0.3-0.6-0.6C23,16.6,22.9,16.3,22.9,15.9L22.9,15.9z M24.4,12c0,0.1,0,0.2-0.1,0.4
						c-0.3-0.6-0.3-1.2-0.2-1.8c0.2,0.3,0.3,0.8,0.3,1.2C24.4,11.8,24.4,11.9,24.4,12L24.4,12z M24.3,9.4c0,0-0.1-0.1-0.1-0.1
						C24.1,9.2,24,9.1,23.9,9c-0.3-0.2-0.4-0.5-0.6-0.8l0,0c-0.1-0.2-0.1-0.4-0.2-0.6c0,0,0,0,0.1,0l0.1,0.1
						c0.2,0.1,0.3,0.3,0.5,0.5c0.1,0.1,0.3,0.3,0.4,0.5C24.3,8.9,24.4,9.1,24.3,9.4C24.4,9.4,24.3,9.4,24.3,9.4L24.3,9.4z M22.2,5.3
						l-0.1,0c-0.2,0-0.3-0.1-0.5-0.1c-0.4-0.1-0.7-0.4-0.9-0.8c0,0,0,0,0-0.1c0.5,0,1,0.3,1.4,0.6C22.2,5,22.2,5.2,22.2,5.3
						C22.2,5.3,22.2,5.3,22.2,5.3L22.2,5.3z M20.8,4L20.8,4C20.8,4,20.7,4,20.8,4c-0.4-0.1-0.8,0.1-1,0.3c0,0,0,0,0,0
						c0-0.1,0-0.2,0.1-0.2c0-0.1,0.1-0.1,0.1-0.2c0.1-0.1,0.2-0.2,0.3-0.3c0.1,0,0.2-0.1,0.2-0.1c0.1,0,0.1,0,0.2,0
						c0.1,0,0.1,0.1,0.1,0.2C20.8,3.8,20.8,3.9,20.8,4L20.8,4z M20.2,11.3c0-0.3,0.1-0.6,0.3-0.9l0.1,0.1c0,0.1,0.1,0.2,0.1,0.3
						c0,0,0,0.1,0,0.1c0,0.2,0,0.4-0.1,0.7c-0.1,0.2-0.2,0.4-0.3,0.6C20.2,12,20.1,11.6,20.2,11.3L20.2,11.3z M20.6,9.4L20.6,9.4
						c0.2,0.2,0.4,0.4,0.5,0.7c0.1,0.1,0.1,0.3,0.2,0.4c0,0.1,0.1,0.3,0.1,0.4c0,0.2,0,0.3,0,0.5l0,0.1v0
						C20.8,11,20.5,10.2,20.6,9.4L20.6,9.4z M20.8,12.7C20.8,12.7,20.8,12.7,20.8,12.7c0.1,0.2,0.2,0.4,0.4,0.6
						c0.1,0.2,0.1,0.3,0.2,0.5c0,0.3,0,0.6,0,0.9l0,0C20.8,14.1,20.6,13.4,20.8,12.7L20.8,12.7z M21.3,13.1L21.3,13.1
						c0-0.1-0.1-0.2-0.2-0.3c-0.1-0.1-0.2-0.3-0.2-0.5c0-0.2,0-0.4,0-0.5c0.6,0.4,0.9,1,1,1.7h0c-0.1,0-0.3-0.1-0.4-0.2
						C21.4,13.2,21.3,13.2,21.3,13.1L21.3,13.1z M21.5,14.2c0,0.1,0.1,0.1,0.1,0.2c0,0,0,0.1,0,0.1l0,0c0,0,0,0-0.1,0c0,0,0,0-0.1,0
						C21.5,14.4,21.5,14.3,21.5,14.2L21.5,14.2z M21.6,13.8c0.3,0.2,0.5,0.3,0.7,0.6c0.3,0.3,0.4,0.7,0.4,1.1
						C22.2,15,21.8,14.5,21.6,13.8L21.6,13.8z M21.8,14.8c0,0.1,0.1,0.1,0.1,0.2l0,0c0.3,0.5,0.5,1.1,0.6,1.6c0,0,0,0,0,0.1
						c-0.1-0.1-0.1-0.1-0.2-0.2l0,0c-0.2-0.2-0.4-0.5-0.5-0.8C21.8,15.3,21.8,15,21.8,14.8L21.8,14.8z M24.9,15.5
						c-0.1-0.1-0.1-0.3-0.2-0.4c0-0.1,0-0.2,0-0.3c0-0.1,0-0.1,0.1-0.2c0.2,0.2,0.3,0.5,0.4,0.9c0,0.1,0,0.2-0.1,0.3
						C25,15.7,25,15.6,24.9,15.5L24.9,15.5z M24.9,16L24.9,16c-0.1,0.1-0.1,0.1-0.2,0.1c0,0,0,0,0,0c0,0,0,0,0,0c0,0,0-0.1,0-0.1
						c0-0.1,0-0.2,0-0.2C24.8,15.8,24.8,15.8,24.9,16L24.9,16L24.9,16z M25.1,13.5C25.1,13.5,25,13.6,25.1,13.5c0,0.1,0,0.1,0,0.2
						c-0.3-0.6-0.4-1.2-0.4-1.9c0,0,0,0,0,0C25.1,12.3,25.2,12.9,25.1,13.5L25.1,13.5z M29,16.5c0,0,0-0.1,0-0.1c0,0,0,0,0,0
						c0,0,0.1,0,0.1,0c0.5-0.1,1.1-0.1,1.6,0c0.7,0.1,1.4,0.2,2,0.4c0,0,0.1,0,0.1,0c0,0,0,0,0,0c0,0,0,0-0.1,0
						c-0.7,0.3-1.4,0.6-2.2,0.8c-0.7,0.1-1.4,0.2-2.1,0.1c-0.8-0.1-1.6-0.3-2.3-0.6c0,0-0.1,0-0.1,0l0,0c0.7-0.2,1.4-0.4,2.1-0.5
						c0,0,0,0,0,0s0,0.1,0.1,0.1c0.1,0.1,0.2,0.2,0.3,0.2l0,0c0.1,0,0.2,0,0.3-0.1C29,16.7,29,16.6,29,16.5L29,16.5z M13.2,25.8
						c0,0,0.1,0,0.2,0h0.7c0.8,0,1.6,0,2.4,0l18.1,0.1h0.1c0.1,0,0.1,0,0.2,0c0,0,0,0.1,0,0.1c0,0,0,0,0,0c0,0.4-0.1,0.7-0.1,1.1
						c-0.2,1.4-0.5,2.7-1,4.1c-0.2,0.7-0.5,1.4-0.7,2c0,0.1,0,0.1-0.1,0.2l0,0l-17.5,0c0,0-0.1,0-0.1,0h0c0,0,0,0,0,0h0
						c0,0,0,0,0-0.1c0,0,0-0.1-0.1-0.2c-0.5-1.2-0.9-2.4-1.2-3.6c-0.3-1.2-0.5-2.3-0.6-3.5C13.3,25.9,13.2,25.9,13.2,25.8L13.2,25.8
						L13.2,25.8z M27.7,37.8C27.7,37.8,27.7,37.8,27.7,37.8l0.1,0.1c0.1,0.1,0.1,0.1,0,0.2l0,0l0,0c0,0,0,0,0-0.1l0,0
						c-0.1-0.1-0.2-0.3-0.4-0.3c-0.1,0-0.2-0.1-0.2-0.2c0,0,0-0.1-0.1-0.1C27,37,26.5,36.8,26,36.9c-0.1,0.1-0.3,0.1-0.4,0.2
						c-0.4,0.1-0.8,0.2-1.2,0.1c-0.4,0-0.9-0.1-1.3-0.1c-0.6-0.1-1.1-0.3-1.7-0.4c-0.2-0.1-0.4-0.1-0.6-0.1l-0.3-0.1
						c-0.3-0.1-0.6-0.1-0.8-0.3c-0.1-0.1-0.3-0.1-0.4-0.2c-0.4-0.2-0.6-0.6-0.7-1c0,0,0-0.1,0-0.1c0-0.1-0.1-0.2-0.2-0.2
						c-0.1-0.1-0.3-0.2-0.5-0.3c-0.2-0.2-0.4-0.4-0.4-0.7c0,0,0,0,0,0l15.1,0c0,0,0,0,0,0c0,0,0,0,0,0.1c-0.5,1-1,2-1.6,2.9l0,0
						c-0.2,0-0.4,0-0.6-0.1l-0.1-0.1c-0.1-0.1-0.2-0.1-0.3-0.2c-0.2-0.1-0.4-0.1-0.6,0c-0.1,0-0.2,0.1-0.2,0.3c-0.1,0-0.1,0-0.2,0
						l-0.1,0c-0.2,0-0.4,0.1-0.5,0.3c0,0-0.1,0.1-0.1,0.1c-0.1,0.1-0.3,0.3-0.4,0.4c0,0-0.1,0.1-0.1,0.1
						C27.6,37.5,27.6,37.7,27.7,37.8L27.7,37.8z M37.8,15L37.8,15c-0.1,0.3-0.2,0.7-0.3,1c-0.1,0.1-0.1,0.3-0.2,0.4
						c-0.2,0.4-0.6,0.7-1.1,0.7c-0.4,0.1-0.7,0.1-1.1,0c-0.5-0.1-1-0.2-1.5-0.4l0,0c-0.7-0.3-1.5-0.5-2.3-0.6
						c-0.4-0.1-0.9-0.1-1.3-0.1c-0.6,0-1.3,0.1-1.9,0.2c-0.7,0.1-1.4,0.3-2.1,0.6c-0.1,0.1-0.2,0-0.4,0c-0.2-0.1-0.4-0.2-0.6-0.3
						c0,0,0,0,0-0.1c0,0,0,0,0,0c0.4-0.4,0.7-0.7,1.1-1c0.7-0.5,1.4-0.8,2.2-1c0.9-0.2,1.8-0.2,2.6-0.2c0.9,0.1,1.9,0.2,2.8,0.3
						l0.3,0.1c0.6,0.1,1.3,0.2,1.9,0.3c0.3,0.1,0.6,0.1,1,0c0.3-0.1,0.6-0.2,0.8-0.4l0.1-0.1C37.9,14.7,37.8,14.8,37.8,15L37.8,15z
						 M26.6,10.3c0-0.1,0-0.1,0-0.2c0,0,0,0,0.1,0c0.1,0,0.2-0.1,0.2-0.1c0,0,0.1-0.1,0.2-0.1c0,0,0,0,0,0c0,0.1,0,0.2,0.1,0.3
						c0,0.1,0.1,0.1,0.1,0.1c0,0,0.1,0,0.1,0c0.1,0,0.3-0.1,0.4-0.2c0.1-0.1,0.2-0.2,0.3-0.3c0,0,0-0.1,0.1-0.1c0,0,0,0,0,0
						c0,0.1,0,0.2,0.1,0.3c0,0.1,0.1,0.1,0.1,0.1c0,0,0.1,0,0.1,0c0,0,0.1-0.1,0.1-0.1c0.1,0,0.1,0,0.1,0c0,0,0.1-0.1,0.1-0.1
						c0.1-0.1,0.1-0.2,0.2-0.4c0,0,0.1,0.1,0.1,0.1c0,0.1,0.1,0.1,0.1,0.1c0.1,0,0.1,0,0.2,0c0,0,0.1-0.1,0.1-0.1
						c0.1-0.1,0.2-0.3,0.4-0.4C30,9.1,30.1,9.1,30.1,9c0-0.1,0-0.2,0-0.3c0.1,0,0.2,0,0.3-0.1c0.2,0,0.5,0.2,0.6,0.1c0,0,0,0,0,0
						c0.1,0,0.1,0,0.2,0c0.1,0,0.3,0,0.4,0.1l0,0.1c0,0.1,0.1,0.1,0.1,0.2c0.1,0.2,0.3,0.3,0.5,0.2c0.1,0,0.2-0.1,0.2-0.2
						c0,0,0.1,0.1,0.2,0.1c0.2,0.1,0.4,0,0.5-0.2c0,0,0,0,0,0c0.1-0.2,0.1-0.3,0.1-0.5c0-0.1,0-0.1,0-0.2v0c0.1,0,0.1-0.1,0.2-0.1
						c0,0,0.1,0,0.1-0.1l0,0c0,0,0.1,0,0.1,0c0.3,0.3,0.7,0.4,1.2,0.4c0.1,0,0.2,0,0.2,0.1c0.2,0.2,0.4,0.3,0.6,0.4
						c0.1,0.1,0.3,0.1,0.4,0.2c0.2,0.1,0.4,0,0.4-0.2c0,0,0,0,0,0c0,0,0.1,0.1,0.1,0.1c0.4,0.3,0.8,0.5,1.2,0.6l0,0
						c0.1,0,0.2,0.1,0.2,0c0.1,0,0.1-0.1,0.1-0.1l0,0c0,0,0.1,0,0.1,0.1c0.3,0.2,0.6,0.4,0.9,0.6c0.1,0.1,0.2,0.1,0.4,0.1
						c0.1,0,0.2,0,0.2,0h0c0.1,0,0.2-0.1,0.2-0.2c0,0,0,0,0,0v-0.1c0.1,0,0.2,0.1,0.2,0.1c0,0,0.1,0,0.1,0.1c0,0,0,0,0,0.1s0,0,0,0
						c-0.1,0.2-0.3,0.3-0.4,0.4c-0.2,0.2-0.5,0.2-0.8,0.1c-0.2,0-0.4-0.1-0.5-0.1c-0.4-0.1-0.7-0.1-1.1-0.2h0c-0.5,0-1,0.2-1.4,0.5
						c-0.5,0.5-0.8,1.1-1,1.7c-0.1,0.3,0,0.6,0.1,0.9c0.1,0.2,0.2,0.5,0.4,0.7c0,0,0.1,0.1,0.1,0.1c0,0-0.1,0-0.1,0l-0.3-0.1
						c-0.2,0-0.4-0.1-0.6-0.1c-1-0.2-2-0.3-3-0.4c-0.5,0-1-0.1-1.4-0.1c-0.2,0-0.4,0-0.6,0c0,0,0,0-0.1,0c-0.1,0-0.1,0-0.2,0v0
						c0,0,0-0.1,0-0.1c0,0,0-0.1,0-0.1c0,0,0-0.1,0-0.1c0-0.1,0-0.1-0.1-0.2c-0.1-0.1-0.1-0.1-0.2-0.1c-0.2,0-0.3,0.1-0.4,0.3
						c0,0.1-0.1,0.1-0.1,0.2c0,0,0,0.1,0,0.1l0,0.1v0c-0.1,0-0.2,0-0.2,0c0,0,0,0,0,0c-0.1-0.1-0.1-0.2-0.2-0.3
						c0-0.1-0.1-0.1-0.2-0.1c-0.1,0-0.1,0.1-0.2,0.1c-0.1,0.1-0.1,0.3-0.1,0.4v0c0,0,0,0-0.1,0l0,0c0,0,0-0.1-0.1-0.1l0,0
						c0-0.1-0.1-0.1-0.1-0.2c0-0.1-0.1-0.1-0.2-0.1h0c-0.1,0-0.1,0-0.2,0.1c0,0.1-0.1,0.1-0.1,0.2c-0.1-0.2-0.3-0.2-0.5-0.1
						c-0.1-0.1-0.1-0.3-0.1-0.4c0-0.1,0-0.3,0-0.4c0.1-0.3,0-0.6-0.1-0.9c0-0.2-0.1-0.3-0.3-0.5c0-0.1-0.1-0.1-0.1-0.2
						c0,0,0-0.1-0.1-0.1c0.1-0.2,0.2-0.4,0.2-0.5c0,0,0-0.1,0-0.1l0,0c0,0,0-0.1,0.1-0.1c0,0,0.1-0.1,0.1-0.1
						C26.6,10.6,26.6,10.4,26.6,10.3L26.6,10.3z M28.3,9.2c-0.1,0-0.2,0-0.2,0.1c0,0.1,0,0.1-0.1,0.1s0,0.1-0.1,0.1
						c-0.1,0.2-0.3,0.3-0.5,0.4h0l0-0.1c0-0.1,0-0.2-0.1-0.2l0-0.1c0,0,0-0.1,0-0.1c0,0,0,0,0-0.1c0.1,0,0.1-0.1,0.2-0.1
						c0.1,0.1,0.2,0.1,0.2,0.1c0,0,0,0,0,0c0.1-0.1,0.1-0.2,0.2-0.2c0.1,0.1,0.3,0.1,0.4,0c0,0,0.1-0.1,0.1-0.1
						c0.1,0.1,0.3,0.1,0.4,0c0,0,0.1-0.1,0.1-0.1s0.1,0,0.2,0.1c0.2,0.1,0.4,0,0.4-0.1c0,0,0-0.1,0-0.1c0.1,0,0.1,0.1,0.2,0.1
						c0,0,0,0.1,0,0.1c-0.1,0.1-0.1,0.2-0.2,0.3c-0.1,0.1-0.1,0.1-0.2,0.2c0,0,0,0,0,0c0,0,0,0,0-0.1c0,0,0,0,0-0.1l0,0
						c0,0,0-0.1-0.1-0.1c0,0-0.1,0-0.2,0c-0.1,0-0.1,0.1-0.1,0.1v0.2c0,0.1,0,0.2-0.1,0.3l0,0l0,0c0,0,0,0-0.1,0.1
						c0,0-0.1,0.1-0.1,0.1c0,0,0,0,0,0v0l0,0v0c0-0.1,0-0.2,0-0.4l0,0C28.5,9.3,28.4,9.2,28.3,9.2C28.3,9.2,28.3,9.2,28.3,9.2
						L28.3,9.2z M29.2,13.9c0,0.1,0,0.1,0,0.1c0,0,0,0-0.1,0C29.1,14,29.1,14,29.2,13.9C29.1,13.9,29.1,13.9,29.2,13.9L29.2,13.9
						L29.2,13.9z M27.5,14.3C27.5,14.4,27.4,14.4,27.5,14.3C27.4,14.4,27.4,14.4,27.5,14.3c-0.1,0-0.1-0.1,0-0.1
						C27.4,14.3,27.5,14.3,27.5,14.3L27.5,14.3z M26.3,13.1c0,0.1,0,0.1-0.1,0.1c0,0,0-0.1,0-0.1C26.2,13.1,26.3,13.1,26.3,13.1
						C26.3,13.1,26.3,13.1,26.3,13.1L26.3,13.1z M26.1,13.8c0,0,0.1,0,0.1,0.1c0,0,0,0,0,0.1l0.1,0.3l0.1,0.1l0,0.1l0,0
						c0,0,0.1,0.1,0.1,0.1c0,0,0.1,0,0.1,0c0,0,0,0,0,0c0,0,0-0.1,0-0.1c0,0,0,0,0-0.1c0,0,0,0,0,0c0,0,0,0,0,0c0,0,0,0,0,0
						c0,0.1,0,0.1,0,0.2c0,0.1,0,0.1,0,0.2l-0.1,0c0,0,0,0,0,0c0,0,0,0,0,0c0,0,0,0,0,0c0,0,0,0,0,0c-0.2-0.1-0.4-0.2-0.5-0.4
						C26,14.2,26,14.1,26,14c0,0,0-0.1,0-0.1c0,0,0,0,0-0.1c0,0,0,0,0-0.1c0,0,0,0,0,0C26,13.8,26.1,13.8,26.1,13.8
						C26.1,13.8,26.1,13.8,26.1,13.8L26.1,13.8z M25.9,12.6c-0.1,0.1-0.1,0.1-0.2,0.1c-0.1,0-0.1-0.1-0.1-0.1
						c0.3-0.1,0.3-0.1,0.3-0.4v-0.1c0-0.1,0-0.1,0.1-0.1c0,0,0.1,0,0.1,0.1C26.1,12.3,26.1,12.5,25.9,12.6L25.9,12.6z M25.8,14.5
						l0.5,0.4l-0.1,0.1c-0.1,0.1-0.3,0.2-0.4,0.3s-0.2,0.2-0.4,0.3l-0.1,0.1v0c0,0,0-0.1,0-0.1c0-0.1,0-0.1,0-0.2
						c0-0.3,0-0.5-0.1-0.7c0,0,0,0,0-0.1v0C25.4,14.5,25.6,14.5,25.8,14.5L25.8,14.5z M37.9,14c-0.2,0.3-0.4,0.5-0.7,0.6
						c-0.2,0.1-0.5,0.1-0.8,0.1c0,0-0.1,0-0.1,0c-0.3-0.2-0.5-0.5-0.7-0.9c-0.2-0.2-0.2-0.5,0.1-0.7c0.1-0.1,0.2-0.3,0.3-0.4
						c0.1-0.1,0.2-0.2,0.4-0.2C37,12.8,37.6,13.3,37.9,14L37.9,14z M41.4,11.6c0.2,0,0.4,0,0.6,0h0c0,0,0.1,0,0.1,0c0,0,0,0,0,0
						c-0.3,0.4-0.7,0.7-1.1,0.9c-0.4,0.2-0.7,0.3-1.1,0.3h0c-0.5,0-0.9-0.1-1.4-0.2c-0.2,0-0.3-0.1-0.5-0.1c-0.1,0-0.3-0.1-0.4-0.1
						c-0.2-0.1-0.5-0.1-0.7-0.1c0,0-0.1,0-0.1,0c-0.3,0-0.7,0.1-0.9,0.4c0,0-0.1,0.1-0.1,0.1c0.2-0.5,0.5-1,1-1.3
						c0.2-0.2,0.5-0.3,0.8-0.3c0.4,0,0.8,0,1.1,0.1c0.2,0,0.4,0.1,0.6,0.1c0.4,0.1,0.9,0,1.2-0.3c0.1-0.1,0.1-0.1,0.2-0.2
						c0,0,0.1-0.1,0.1-0.1s0.1-0.1,0.1-0.1V11c0,0.1,0,0.2,0,0.3c0,0.1,0.1,0.2,0.2,0.2h0C41,11.6,41.2,11.6,41.4,11.6L41.4,11.6z
						 M41,10.4c0-0.1-0.1-0.1-0.2-0.2c0,0-0.1,0-0.1,0c-0.2-0.1-0.3-0.2-0.5-0.3c-0.1,0-0.1-0.1-0.2-0.1c0,0-0.1-0.1-0.1-0.1
						s-0.1,0-0.1-0.1c0,0,0-0.1,0-0.1c0,0,0-0.1,0-0.1c0,0,0-0.1-0.1-0.1c0,0,0,0,0,0c0,0,0,0,0,0c0.3,0.3,0.6,0.4,1,0.5
						c0.1,0,0.2,0,0.2,0c0,0,0.1,0.1,0.1,0.1c0.1,0.1,0.2,0.3,0.2,0.4C41.2,10.4,41.1,10.4,41,10.4L41,10.4z M26.8,6.5L26.8,6.5
						c0,0,0-0.1,0-0.1c0-0.1,0-0.1,0-0.2c0-0.1,0-0.2,0.1-0.4l0.1-0.1l-0.1,0.1c0,0-0.1,0-0.1,0.1c-0.1-0.1-0.2-0.2-0.3-0.3
						c0,0-0.1-0.1-0.1-0.1c0.1,0,0.1,0,0.2,0c0.3,0,0.5-0.2,0.6-0.4c0-0.1,0.1-0.2,0.1-0.3c0-0.3,0-0.5-0.1-0.8
						c-0.1-0.2-0.1-0.4-0.2-0.7c-0.1-0.3-0.2-0.7-0.3-1c0-0.3,0-0.5,0.1-0.8C26.7,1.2,26.8,1,27,0.8c0.2-0.1,0.3-0.2,0.5-0.3
						c0.6-0.2,1.2-0.3,1.8-0.3C30.6,0.4,31.9,0.6,33,1c0.8,0.3,1.5,0.7,2.2,1.1c0.6,0.4,1.3,0.9,1.9,1.3c1.5,1,3,2.1,4.4,3.2
						c1,0.8,2,1.7,3.2,2.6c0.1,0,0.1,0.1,0.2,0.1c0.1,0.1,0.2,0.2,0.3,0.3l0,0c0.4,0.4,0.9,0.8,1.3,1.2c0.2,0.2,0.3,0.4,0.5,0.6
						c0.1,0.1,0.2,0.3,0.3,0.4l0.1,0.1c0,0,0,0.1,0,0.1c0,0-0.1,0-0.1,0c0,0,0,0,0,0c-0.2-0.1-0.4-0.2-0.5-0.3c0-0.2,0-0.2-0.2-0.4
						c-0.2-0.2-0.4-0.4-0.6-0.6c-0.1-0.1-0.1-0.2-0.2-0.2c0,0-0.1-0.1-0.1-0.1s-0.1-0.1-0.1-0.1c0,0-0.1,0.1-0.1,0.1
						c0,0.1,0,0.1,0.1,0.2c0.1,0.1,0.2,0.2,0.3,0.3c0,0.1,0.1,0.1,0.1,0.2c0,0.1,0.1,0.1,0.1,0.2c-0.2-0.1-0.5-0.2-0.6-0.4
						c-0.1-0.1-0.2-0.2-0.4-0.3c-0.1-0.1-0.1-0.1-0.2-0.2c0,0-0.1-0.1-0.1-0.1c0,0,0,0-0.1,0c0,0,0,0.1,0,0.1
						c0.1,0.1,0.2,0.3,0.3,0.4c0.1,0.1,0.2,0.2,0.3,0.4c0,0,0,0,0,0.1c0,0,0,0,0,0c-0.1,0-0.1,0-0.2,0c-0.1-0.1-0.2-0.1-0.3-0.2
						c-0.1-0.1-0.3-0.2-0.4-0.3c-0.1-0.1-0.3-0.2-0.4-0.3c0,0-0.1,0-0.1-0.1c0,0,0,0-0.1,0s0,0,0,0c0,0.1,0,0.1,0.1,0.2
						c0.1,0.1,0.1,0.2,0.1,0.4v0c0,0,0,0,0,0c-0.1,0-0.1-0.1-0.2-0.1c0,0-0.1-0.1-0.1-0.1c-0.3-0.2-0.5-0.3-0.8-0.5
						c-0.1,0-0.1-0.1-0.2-0.1c-0.1,0-0.1,0-0.2,0c0,0.1,0,0.1,0,0.2l0.1,0.1c0,0,0,0.1,0.1,0.1c0,0,0,0.1,0.1,0.1c0,0-0.1,0-0.1,0
						c-0.3-0.2-0.6-0.4-0.8-0.6c0,0-0.1-0.1-0.1-0.1c-0.1-0.1-0.1-0.2-0.2-0.3c0-0.1-0.1-0.1-0.1-0.2s0-0.1,0-0.2
						c0-0.1-0.1-0.2-0.1-0.3c0,0,0,0,0,0c0,0,0,0,0,0c0,0.1,0,0.1,0,0.2c0,0.1-0.1,0.1-0.1,0.1c-0.4,0.1-0.9,0-1.2-0.3c0,0,0,0,0,0
						s0,0,0,0c0,0,0,0,0,0c0,0,0,0,0,0.1c0,0.1,0,0.1,0,0.2c0,0.1-0.2,0-0.2,0c-0.4-0.2-0.8-0.4-1.2-0.6c0.2,0.4,0.4,0.7,0.8,0.9
						c0.1,0.1,0.2,0.1,0.4,0.2c0.1,0,0.1,0,0.2,0l0,0c0.1,0.1,0.2,0.2,0.2,0.3c0,0,0,0,0,0l-0.1,0c-0.1,0-0.2-0.1-0.3-0.1
						c-0.4-0.2-0.9-0.5-1.2-0.8c0,0-0.1,0-0.1,0c-0.1,0-0.1,0.2-0.1,0.3v0l0,0l-0.1,0C37.3,9.3,37,9,36.6,8.7l0,0
						c0,0-0.1-0.1-0.1-0.1c0,0-0.1,0-0.1,0c-0.1,0-0.1,0-0.1,0.1c0,0,0,0.1,0,0.2c0,0,0,0.1,0,0.1c0,0,0,0.1,0,0.1c0,0,0,0-0.1,0
						c-0.1,0-0.3-0.1-0.4-0.2c-0.1-0.1-0.3-0.2-0.4-0.3l-0.1-0.1c0,0-0.1-0.1-0.1-0.1l0,0c-0.1-0.1-0.2-0.1-0.2,0
						c-0.1,0-0.1,0-0.2,0h0c-0.3,0-0.6-0.2-0.8-0.4c0,0-0.1-0.1-0.1-0.1c0,0,0,0-0.1-0.1l0,0h0c-0.1,0-0.1,0.1-0.2,0.1
						c0,0-0.1,0.1-0.2,0.1c0,0,0-0.1-0.1-0.1c-0.1-0.1-0.1-0.1-0.2,0c0,0,0,0,0,0C33.1,7.9,33,8,33,8c0,0,0,0.1,0,0.1l0,0
						c0,0.1,0,0.1,0,0.2c0,0.1,0,0.1,0,0.2c0,0,0,0,0,0c0,0,0,0.1,0,0.1c0,0.1,0,0.1-0.1,0.2c0,0,0,0.1-0.1,0.1c0,0-0.1,0-0.1,0
						c0,0,0,0,0,0l0,0l-0.1-0.1l0,0c-0.1,0-0.1-0.1-0.2-0.1c-0.1,0-0.1,0.1-0.1,0.1v0c0,0,0,0,0,0.1c0,0-0.1,0-0.1,0
						c0,0-0.1,0-0.1-0.1c0,0-0.1-0.1-0.1-0.2c0-0.1-0.1-0.2-0.2-0.3l0,0c-0.1,0-0.1-0.1-0.2-0.1c-0.1,0-0.2,0-0.3,0
						c0-0.1,0-0.2-0.1-0.3c0,0,0,0,0,0c0.1,0,0.2,0,0.3,0c0.1,0,0.2-0.1,0.2-0.2c0-0.1,0-0.1,0-0.1c0,0,0,0,0.1,0
						c0.2,0,0.4-0.2,0.4-0.4c0-0.2-0.1-0.5-0.2-0.7c-0.1-0.3-0.3-0.5-0.5-0.7c0.2,0.4,0.3,0.8,0.4,1.2c0,0.1,0,0.2-0.1,0.3
						c-0.1,0.1-0.3,0.1-0.4,0c0,0,0,0-0.1-0.1c0,0.1-0.1,0.3-0.2,0.3c0,0-0.1,0-0.1,0c-0.1-0.4-0.3-0.8-0.5-1.2c0-0.1,0-0.2-0.1-0.3
						c0-0.1-0.1-0.1-0.1-0.2c0,0,0.1,0.1,0.2,0.1c0.1,0,0.2-0.1,0.3-0.3c0-0.1,0-0.3-0.1-0.4c0.1,0.2,0.3,0.2,0.5,0.2
						c0.2-0.1,0.3-0.3,0.2-0.5c0,0,0-0.1,0-0.1c0.2,0,0.4,0,0.5-0.2C32,4.7,32,4.5,31.8,4.4c0.2,0,0.4,0,0.6,0c0.1,0,0.2,0,0.2-0.1
						c0.2,0.1,0.3,0.2,0.5,0.2c0,0,0.1,0,0.1,0c0.1,0.2,0.2,0.4,0.4,0.6c0.2,0.2,0.2,0.5,0.2,0.8c-0.1,0-0.2-0.1-0.3-0.2
						c-0.2-0.3-0.5-0.6-0.8-0.9c0.4,0.4,0.6,1,0.6,1.6c-0.1,0-0.1,0-0.2-0.1c-0.3-0.4-0.5-1-1-1.3c0.2,0.3,0.4,0.6,0.5,0.9
						c0.2,0.3,0.3,0.7,0.1,1c-0.2-0.5-0.5-0.9-0.8-1.3c0.1,0.2,0.2,0.4,0.4,0.6c0.1,0.2,0.2,0.4,0.3,0.6c0,0.2-0.1,0.3-0.2,0.5
						C32.4,7.8,33.1,7,32.9,7c0.1,0,0.3,0,0.4-0.2c0.1-0.1,0.1-0.3,0.1-0.4c0.1,0.1,0.3,0.1,0.4,0c0.1-0.1,0.1-0.2,0.1-0.3
						c0.1,0.1,0.2,0.2,0.3,0.1c0,0,0,0,0,0c0.1-0.1,0.2-0.2,0.2-0.3c0-0.1,0-0.2-0.1-0.3c-0.2-0.4-0.5-0.7-0.8-1
						c0.1,0,0.2-0.2,0.2-0.3c0.1,0.1,0.3,0.2,0.4,0.2c0.2,0,0.3-0.1,0.4-0.2c0-0.2-0.1-0.2-0.1-0.4c0.1,0,0.2,0.2,0.4,0.2
						c0,0,0.1,0,0.1,0c0,0,0,0,0,0c0-0.2-0.2-0.4-0.4-0.5c-0.2-0.1-0.4-0.2-0.6-0.3c-0.1,0-0.2-0.1-0.3-0.1
						c-0.1-0.1-0.3-0.1-0.4-0.2c0,0.1,0.1,0.1,0.2,0.2C33.3,3,33.4,3,33.5,3.1c0.2,0.1,0.4,0.2,0.6,0.4c0.1,0.1,0.2,0.2,0.2,0.3
						c0,0.1-0.1,0.2-0.3,0.2c-0.2,0-0.4-0.1-0.5-0.2c0.1,0.1,0,0.2-0.1,0.3c-0.1,0-0.2,0-0.3,0l-0.4-0.2c0.1,0.1,0.1,0.2,0,0.2
						c-0.1,0.1-0.2,0.1-0.3,0c-0.3-0.1-0.6-0.2-0.9-0.3c0.1,0.2,0.3,0.3,0.4,0.5s0.1,0.5-0.1,0.5S31.2,4.7,31,4.7
						c0.1,0.1,0.2,0.2,0.2,0.3c0,0.1,0,0.3-0.1,0.3c-0.1,0.1-0.2,0.1-0.4,0c-0.1,0-0.2-0.1-0.3-0.2c0.1,0.1,0.2,0.3,0.2,0.4
						c-0.1,0.1-0.3,0.1-0.4,0.1c0.2,0.1,0.2,0.4,0.1,0.5c0,0,0,0,0,0c-0.1,0.2-0.4,0.2-0.5,0c0,0,0,0,0,0l0,0
						c0.1,0.2,0.2,0.3,0.3,0.4l0,0c0,0,0,0,0.1,0c0.1,0.1,0.3,0.1,0.4,0c0,0.1,0,0.1,0.1,0.2c0.1,0.4,0.1,0.8,0.1,1.2v0
						c0,0.1,0,0.1-0.1,0.2c0,0-0.1,0.1-0.1,0.1c0-0.1-0.1-0.1-0.1-0.2c-0.1-0.5-0.2-1-0.3-1.4l0,0c0,0.4,0,0.8,0,1.2
						c0,0.1,0,0.2,0,0.3c0,0.1-0.1,0.1-0.1,0.1c0-0.1-0.1-0.1-0.1-0.2c-0.1-0.2-0.1-0.4-0.2-0.6c0.1,0.3,0.1,0.5,0,0.8
						c0,0,0,0-0.1,0c0,0,0,0,0,0.1c0,0.1,0,0.1-0.1,0.2c-0.1,0-0.2,0-0.3-0.1C29.1,8.2,29,8.1,29,8c0-0.3-0.1-0.5-0.1-0.8
						c0,0.2,0,0.5,0.1,0.7c0,0.1,0,0.3,0,0.4c0,0.1-0.1,0.3-0.3,0.3c0,0-0.1,0-0.1,0c-0.1,0-0.1-0.2-0.1-0.3c0-0.2,0-0.4,0-0.6
						c0,0.3,0,0.7-0.2,0.9c0,0.1-0.2,0.2-0.2,0.2l0,0l0,0c0,0,0,0,0,0c0,0,0,0,0,0v0c0,0,0-0.1,0-0.1c-0.1-0.2-0.1-0.4-0.2-0.6
						c0,0.2,0.1,0.3,0,0.5c0,0.1,0,0.3-0.1,0.4c0,0-0.1,0.1-0.1,0.1c-0.1,0-0.2,0-0.3-0.1c-0.1-0.1-0.1-0.3-0.1-0.4
						c0-0.1,0-0.2,0-0.2s0-0.1,0-0.2c0,0,0,0.1,0,0.1c0,0.1,0,0.1,0,0.2c0,0.1,0,0.3,0,0.4c0,0.1-0.1,0.3-0.3,0.3c0,0-0.1,0-0.1,0
						c-0.1,0-0.1-0.1-0.1-0.2c0-0.2-0.1-0.4,0-0.6c0,0,0,0,0,0c0,0,0,0,0,0c0.3-0.1,0.3-0.3,0.3-0.5l0,0c0,0,0,0,0,0
						c0.1,0,0.2,0.1,0.3,0c0.1,0,0.2-0.1,0.2-0.1c0,0,0.1,0,0.1-0.1c0-0.1,0.1-0.2,0-0.3c0.2,0.1,0.4,0.1,0.5,0c0,0,0,0,0,0
						c0.2-0.1,0.2-0.4,0.1-0.6c0,0,0,0,0,0l0,0c0,0,0,0,0,0c0,0,0,0,0,0c0,0,0,0,0,0c0,0,0,0,0,0c0.1,0.1,0.3,0,0.4-0.1
						c0.1-0.1,0-0.2-0.1-0.3c0,0,0,0,0.1,0c0.1-0.1-0.1-0.2-0.2-0.4c0,0.1,0.2,0.1,0.3,0c0-0.1,0-0.3-0.1-0.4c0.1,0.1,0.2,0.1,0.3,0
						c0,0,0,0,0,0c0.1-0.1,0.1-0.2,0-0.3c-0.1-0.1-0.1-0.2-0.2-0.3c0.1,0.1,0.2,0,0.2-0.1c0-0.1,0-0.2-0.1-0.2l-0.2-0.5
						c0.1,0,0.1,0,0.2,0c0.1-0.2,0.1-0.4-0.1-0.6c0.1,0,0.1,0,0.2,0c0-0.3-0.1-0.5-0.3-0.7c0.1,0.1,0.1,0.3,0.1,0.4
						c0,0.1-0.2,0.3-0.3,0.2c0.2,0.2,0.2,0.4,0.1,0.6c0,0,0,0.1,0,0.1c0,0,0,0.1,0.1,0.1c0.1,0.2,0.1,0.4,0,0.5c0,0,0,0.1,0,0.1
						c0,0.1,0.1,0.2,0.1,0.3s-0.1,0.2-0.2,0.2c0.1,0.1,0.1,0.3,0,0.4c-0.1,0-0.1,0.1-0.2,0.1c0.1,0.1,0.1,0.2,0,0.4
						c-0.1,0.1-0.2,0.1-0.2,0.1c0,0,0,0-0.1,0h0c0,0.2,0.1,0.3,0,0.5c0,0,0,0.1,0,0.1c0,0,0,0-0.1,0c-0.1,0-0.3,0-0.4-0.1
						c0,0.1,0,0.2,0,0.2c0,0.1-0.1,0.2-0.2,0.2c-0.1,0-0.2,0.1-0.3,0c-0.2,0-0.4-0.1-0.5-0.2C26.6,7.3,26.9,7,26.8,6.5L26.8,6.5z
						 M30.5,6.8c0-0.1,0-0.1-0.1-0.2c0,0,0,0,0,0C30.5,6.6,30.5,6.7,30.5,6.8L30.5,6.8z M26.1,10.4c0,0,0-0.1,0-0.1c0,0,0,0,0,0
						s0,0,0,0c0,0.1,0,0.2-0.1,0.3c-0.1,0.1-0.2,0.1-0.4,0.1c0,0.1,0,0.1-0.1,0.1c0,0.1-0.1,0.1-0.1,0.2c-0.1,0.1-0.2,0.1-0.2,0.1
						c-0.1,0-0.1-0.1-0.2-0.2c0,0,0,0,0-0.1c0,0,0,0,0,0s0,0,0,0c0,0,0.1,0,0.1,0c0.1,0.1,0.1,0.1,0.2,0.1s0.1-0.1,0.1-0.2
						c0-0.1,0-0.2,0-0.3c0,0,0-0.1,0-0.1c0,0,0.1,0,0.1,0c0,0,0,0.1,0.1,0.1c0,0.1,0.1,0.1,0.2,0.1c0,0,0,0,0,0
						C26.1,10.5,26.1,10.5,26.1,10.4z M25.9,10C26,10,26,10,25.9,10C26,10,26,10,25.9,10c0,0.1,0,0.1,0,0.1c0,0,0,0.1-0.1,0.1
						c0,0-0.1,0.1-0.1,0.1c-0.1,0-0.1,0-0.2,0c-0.1,0-0.1-0.1-0.1-0.1c0,0,0-0.1,0-0.1c0,0,0-0.1,0-0.1c0,0,0,0,0,0c0,0,0,0,0,0
						c0,0,0,0,0,0c0,0,0,0.1,0.1,0.1c0,0,0,0.1,0.1,0.1c0.1,0,0.1,0,0.2,0C25.8,10.1,25.8,10,25.9,10L25.9,10
						C25.9,9.9,25.9,9.9,25.9,10L25.9,10z M25.1,9.6c0,0,0.1-0.1,0.1-0.1c0.1-0.1,0.1-0.2,0.1-0.4c0,0,0,0,0-0.1c0,0,0,0,0,0
						c0,0,0,0,0,0c0,0.1,0,0.1,0,0.2c0,0.1,0.1,0.1,0.1,0.1c0.1,0,0.1,0,0.2-0.1c0-0.1,0-0.1,0.1-0.2c0,0,0,0.1,0,0.1
						c0,0.1,0,0.1-0.1,0.1c0,0-0.1,0.1-0.1,0.1c-0.1,0.1-0.2,0-0.3,0c0,0.1-0.1,0.1-0.1,0.2c0,0-0.1,0.1-0.2,0.1S25.1,9.7,25.1,9.6
						L25.1,9.6z M21.5,3.3c0-0.1,0.1-0.1,0.2-0.1h0.1c0.1,0,0.2,0,0.3,0c0.2,0.1,0.4,0,0.5,0l0,0c0.1,0,0.2,0.1,0.2,0.1
						c0.1,0,0.2,0,0.2,0l0.1,0c0.3,0.1,0.4,0.4,0.4,0.7V4c0,0.1,0,0.1,0,0.2c0,0.2,0,0.3,0.2,0.4c0,0,0.1,0,0.1,0.1l0,0
						c0.3,0.2,0.5,0.4,0.7,0.7c0.1,0.2,0.2,0.5,0.3,0.7c0,0,0,0,0,0.1v0c-0.1,0.1-0.2,0.2-0.4,0.3c-0.1,0-0.2,0-0.2,0
						c-0.1,0-0.1,0-0.2,0c0,0-0.1,0-0.1,0c-0.1,0-0.1,0-0.2,0h-0.1c0-0.1,0-0.2,0-0.3l0-0.1c0,0,0,0,0-0.1v0c0-0.5-0.3-0.9-0.7-1.2
						c-0.1-0.1-0.2-0.1-0.3-0.1c0,0-0.1,0-0.1,0c0,0,0,0,0,0c-0.1,0-0.1,0-0.2-0.1c-0.3-0.3-0.7-0.5-1-0.5c0,0,0,0,0,0
						c0-0.2,0-0.4,0-0.5c0,0,0.1,0,0.1,0C21.3,3.4,21.4,3.4,21.5,3.3L21.5,3.3z M7.2,10c0,0-0.1,0.1-0.1,0.2c0,0.1-0.1,0.1-0.1,0.1
						c-0.1,0.1-0.2,0.2-0.3,0.3c-0.1,0.1-0.2,0.1-0.2,0.1c0,0,0,0,0,0c0,0,0,0,0,0c-0.1-0.1-0.1-0.2-0.1-0.3c0,0,0-0.1,0-0.1
						c-0.1-0.1-0.3,0.3-0.3,0.4c-0.1,0.1-0.2,0.2-0.4,0.3c0,0-0.1,0-0.2,0c0,0,0,0,0-0.1c0,0,0-0.1,0-0.1c0,0,0-0.1,0-0.1
						c0-0.1,0-0.1-0.1-0.1c-0.1,0-0.1,0-0.2,0c0,0-0.1,0-0.1,0.1c0,0,0,0,0,0c-0.2,0.2-0.5,0.4-0.8,0.5c-0.1,0.1-0.2,0.1-0.3,0.1
						c0,0-0.1,0-0.1,0h0c0,0,0,0,0-0.1c0.1-0.1,0.1-0.3,0.2-0.4l0,0c0,0,0-0.1,0.1-0.1c0,0,0-0.1,0-0.1c0-0.1,0-0.1,0-0.2
						c0,0,0,0,0,0c-0.1,0-0.1,0-0.2,0c-0.1,0-0.1,0.1-0.2,0.2c-0.1,0.1-0.1,0.2-0.2,0.2c-0.1,0.1-0.2,0.2-0.3,0.3
						c-0.1,0.1-0.2,0.1-0.2,0.2c-0.1,0.1-0.3,0.2-0.4,0.2c0,0,0-0.1,0-0.1l0,0c0,0,0,0,0-0.1c0,0,0-0.1,0-0.1c0-0.1,0-0.1-0.1-0.1
						c0,0-0.1,0-0.1,0c0,0,0,0-0.1,0.1c0,0,0,0,0,0c-0.1,0-0.1,0.1-0.2,0.1c-0.1,0.1-0.2,0.2-0.4,0.2c-0.3,0.2-0.6,0.3-0.8,0.5
						c-0.1,0.1-0.3,0.2-0.4,0.2h0l0,0c0-0.1,0-0.1,0.1-0.1c0.2-0.5,0.5-0.9,0.9-1.2l0,0c0.1-0.1,0.3-0.2,0.5-0.4
						c0.8-0.6,1.6-1.2,2.4-1.9l0.3-0.3C5.3,7.5,6,6.8,6.7,6.2c1.7-1.5,3.6-2.5,5.4-3.8c0.6-0.5,1.3-0.9,2.1-1.1l0.4-0.1
						C15,1,15.9,0.7,16,0.7c1-0.3,2-0.4,3-0.3c0.4,0,0.8,0.1,1.1,0.2c0.2,0,0.3,0.1,0.5,0.2c0.2,0.1,0.4,0.4,0.5,0.7
						c0,0.1,0,0.3,0,0.4c0,0.2-0.1,0.5-0.1,0.7c0,0,0,0.1,0,0.1c0,0,0,0,0,0l-0.2,0l-0.2,0l0,0l-0.1,0c0,0-0.1,0-0.1,0.1
						c-0.2,0.1-0.2,0.3-0.2,0.4v0c0,0,0,0.1,0,0.1c0,0,0,0,0,0c0,0,0,0,0,0c0,0,0,0-0.1,0L20,3.5c-0.1,0-0.1,0.1-0.2,0.2
						c-0.3,0.3-0.4,0.6-0.2,1c0,0,0,0,0,0.1l0,0.1c0,0,0,0.1,0,0.1c0,0.1-0.1,0.2-0.1,0.2c0,0-0.1,0-0.1,0c-0.1-0.1-0.1-0.2-0.1-0.3
						c0-0.1,0.1-0.3,0.2-0.4c-0.1,0-0.2,0-0.3-0.1c0,0,0,0,0,0c0-0.1,0-0.2,0.1-0.3c0-0.1,0.1-0.1,0.1-0.2c0,0-0.1,0-0.1,0
						c-0.1-0.1-0.1-0.2,0-0.2c0-0.1,0-0.2,0.1-0.2c-0.1,0.1-0.2,0.3-0.3,0.4c-0.1,0.2-0.2,0.4-0.3,0.6c0,0,0,0,0,0c0,0,0,0,0,0
						c0,0,0,0,0,0c0,0,0,0,0.1,0c0,0,0.1-0.1,0.1,0c0,0.1,0,0.1-0.1,0.2c0,0.1,0,0.2-0.1,0.3c0,0.1,0,0.2,0,0.2
						c0,0.1,0.1,0.1,0.2,0.1c-0.2,0.3-0.2,0.5-0.2,0.8c0,0,0,0.1,0,0.1l0,0c0,0,0,0.1,0.1,0.1c0,0,0.1,0,0.1,0
						c0.1,0,0.2-0.1,0.3-0.2c0,0,0,0.1,0,0.1c0,0,0,0,0,0.1l0,0l0.1,0l0,0c0,0,0.1,0,0.1,0c0,0,0.1,0,0.1-0.1l0,0
						c0,0.1-0.1,0.2-0.2,0.2l-0.1,0.3v0c0,0,0,0,0,0.1c0,0.1-0.1,0.3-0.1,0.4c0,0.1,0,0.2,0,0.3v0c-0.1,0.1-0.1,0.2-0.1,0.3
						c-0.1,0.5,0,1.1,0,1.6c0,0,0,0,0,0v0c0,0.1,0.1,0.2,0.1,0.2c0,0.1,0,0.1,0,0.2v0c0,0.1,0,0.1-0.1,0.2c-0.1,0-0.2-0.1-0.3-0.2
						c0,0,0-0.1,0-0.1c0,0,0-0.1-0.1-0.1c-0.1-0.2-0.1-0.2-0.3-0.1l0,0c0,0-0.1,0-0.1,0.1c-0.2,0-0.1-0.1-0.2-0.2
						c-0.1-0.2-0.2-0.3-0.2-0.5C18,8.4,17.9,8.1,18,7.8c0-0.3,0-0.5,0-0.8c-0.1,0.3-0.2,0.7-0.3,1c0,0.1-0.1,0.2-0.2,0.2
						c-0.1,0-0.1,0-0.2,0c-0.1-0.1-0.1-0.2-0.1-0.2c0-0.2,0-0.5,0.1-0.7c0-0.2,0.1-0.3,0.2-0.5C17.3,7,17.2,7.3,17,7.5
						c-0.1,0.1,0,0.2-0.2,0.1c-0.1-0.1-0.2-0.2-0.2-0.3c-0.1,0.1-0.3,0.2-0.4,0.1c0,0,0,0-0.1-0.1c-0.1-0.1-0.1-0.2-0.1-0.3
						c0-0.4,0.1-0.8,0.4-1.2C16.3,6,16.1,6.2,16,6.5c-0.1,0.2-0.2,0.4-0.2,0.7c0,0.2,0.2,0.4,0.5,0.4c0,0,0,0,0.1,0c0,0,0,0.1,0,0.1
						c0,0.1,0.1,0.2,0.2,0.2c0.1,0,0.2,0,0.3,0c0,0,0,0,0,0c-0.1,0.1-0.1,0.3-0.1,0.5c-0.1,0-0.1,0-0.2-0.1
						c-0.1-0.1-0.2-0.1-0.3-0.1c-0.1,0-0.1,0.1-0.2,0.1c-0.1,0.2-0.3,0.3-0.4,0.5c0,0.1-0.1,0.1-0.2,0.1c-0.2,0-0.2-0.4-0.2-0.6
						c0-0.1,0-0.2,0.1-0.3c0,0-0.1,0.1-0.1,0.1c0,0-0.1,0.1-0.1,0.1c-0.1,0.1-0.1,0.2-0.2,0.3C15,8.8,14.9,9,14.9,9c0,0-0.1,0-0.1,0
						c0,0-0.1,0-0.1-0.1c-0.2-0.2-0.2-0.5-0.2-0.8c0-0.1,0-0.1,0-0.1c0,0,0,0-0.1,0c-0.1,0-0.2,0.1-0.2,0.1c0,0-0.1-0.1-0.1-0.1
						c0,0,0,0,0-0.1c0,0-0.1-0.1-0.1-0.1c0,0-0.1,0-0.1,0c0,0-0.1,0.1-0.1,0.1c-0.2-0.1-0.3-0.2-0.3-0.4c-0.4,0.2-0.8,0.4-1.3,0.4
						c-0.1,0-0.3,0-0.3-0.1c0-0.1,0-0.1,0.1-0.2c0.2-0.2,0.4-0.4,0.6-0.6c-0.4,0.2-0.8,0.3-1.2,0.4c-0.2,0-0.4,0-0.4-0.2
						c0-0.1,0-0.1,0.1-0.2c0.2-0.2,0.4-0.4,0.6-0.5c-0.4,0.2-0.8,0.4-1.2,0.5c-0.2,0.1-0.4,0.1-0.5,0C9.7,7,9.7,6.9,9.7,6.8
						C9.6,6.8,9.5,6.9,9.4,6.9C9.2,7,9.1,7,8.9,7c0,0-0.1,0-0.1,0c-0.1-0.1,0-0.3,0.1-0.5C8.7,6.6,8.6,6.8,8.5,7
						c-0.1,0.1-0.1,0.2,0,0.3c0.1,0.1,0.3,0.1,0.4,0.1c0.1,0,0.2,0,0.3-0.1c0.1,0,0.1,0,0.2-0.1c0,0,0.2,0,0.2-0.1
						C9.4,7.4,9.6,7.6,9.9,7.6c0.3,0,0.5-0.1,0.7-0.3c-0.1,0.1,0,0.3,0.1,0.4c0,0,0,0,0,0c0.1,0.1,0.3,0.1,0.4,0
						c0.3-0.1,0.5-0.1,0.7-0.2c-0.1,0.2-0.4,0.4-0.3,0.6c0.1,0.1,0.2,0.1,0.3,0.1c0.4,0.1,0.8,0,1.2-0.2c0.1-0.1,0.2-0.1,0.2-0.1
						c0.1,0,0.1,0,0.2,0.1c0.1,0,0.1,0,0.2,0c-0.1,0.1-0.2,0.2-0.3,0.3c-0.2,0.1-0.3,0.2-0.5,0.2c-0.1,0-0.2,0-0.2-0.1
						c-0.1-0.1-0.2-0.1-0.2,0c0,0,0,0,0,0c-0.1,0.1-0.1,0.1-0.1,0.1s-0.1,0.1-0.1,0.1C12,8.8,11.8,9,11.6,9l0,0c0,0,0,0,0,0
						c0,0,0,0-0.1,0c0,0,0-0.1,0-0.1c0,0,0,0,0-0.1c0-0.1,0-0.1-0.1-0.2c-0.1,0-0.1,0-0.2,0L11,8.9c-0.2,0.2-0.4,0.3-0.7,0.5
						c-0.1,0.1-0.2,0.1-0.3,0.1c0,0-0.1,0-0.1,0.1c-0.1,0-0.1,0-0.1-0.1c0,0,0,0,0-0.1c0,0,0-0.1,0-0.1c0,0-0.1-0.1-0.1-0.1
						c0,0-0.1,0-0.1,0c0,0-0.1,0.1-0.1,0.1l0,0C9.1,9.6,8.9,9.8,8.6,10c-0.2,0.1-0.5,0.2-0.8,0.3c0,0,0,0,0,0c0,0,0,0-0.1,0L7.4,10
						C7.3,9.9,7.2,9.8,7.2,10L7.2,10z M10.6,12.3c-0.2,0-0.3,0.1-0.5,0.1c-0.3,0.1-0.5,0.1-0.8,0.2c-0.2,0-0.4,0.1-0.7,0.1
						c-0.4,0-0.7,0-1.1-0.2c-0.4-0.2-0.8-0.5-1.1-0.9c0,0,0,0,0,0h0.3c0.2,0,0.4,0,0.6,0c0.1,0,0.2,0,0.2-0.1c0-0.1,0-0.1,0-0.3
						c0-0.2-0.1-0.3-0.1-0.5c0-0.1,0-0.2-0.1-0.3c0,0,0,0,0,0c0,0,0.1,0.1,0.1,0.1C7.8,10.8,8,10.9,8.3,11c0.3,0.1,0.6,0.1,0.9,0.1
						c0.2,0,0.4-0.1,0.6-0.1c0.1,0,0.2,0,0.3-0.1c0.3-0.1,0.6-0.1,1,0c0.4,0,0.7,0.2,1,0.4c0.4,0.4,0.7,0.9,0.7,1.4
						c-0.2-0.4-0.6-0.6-1-0.6C11.3,12.2,11,12.3,10.6,12.3L10.6,12.3z M10.4,14.2c0,0,0-0.1,0-0.1l0,0c0-0.2,0.1-0.3,0.2-0.4
						c0.1-0.1,0.2-0.2,0.3-0.3l0,0c0.1-0.1,0.1-0.1,0.2-0.2c0.1-0.1,0.2-0.2,0.3-0.2c0.1-0.1,0.2-0.2,0.3-0.4c0.3,0,0.5,0.2,0.7,0.4
						c0.1,0.2,0.1,0.4,0.1,0.6c0,0,0,0.1,0,0.1c-0.1,0.4-0.4,0.7-0.6,1C11.4,14.6,10.9,14.5,10.4,14.2L10.4,14.2L10.4,14.2z
						 M12.8,17.2L12.8,17.2c-0.4-0.1-0.8-0.2-1.1-0.3c-0.5-0.2-0.8-0.6-1-1c-0.2-0.4-0.3-0.8-0.3-1.2v-0.1l0.1,0l0.1,0
						c0.3,0.1,0.7,0.3,1,0.3c0.3,0,0.6,0.1,0.9,0.1c0.6,0,1.2-0.1,1.8-0.3l0.5-0.1c0.6-0.1,1.2-0.3,1.8-0.4c0.5-0.1,1-0.2,1.5-0.2h0
						c0.6,0,1.2,0.1,1.8,0.3c0.2,0.1,0.4,0.1,0.6,0.2c0.1,0,0.2,0.1,0.3,0.1c0.1,0,0.2,0.1,0.2,0.1c0.1,0.1,0.1,0.2,0.2,0.3
						c0,0,0,0.1,0.1,0.1l0,0l0,0c0.1,0,0.1-0.1,0.1-0.2c0,0,0-0.1,0-0.1c0,0,0,0,0.1,0l0,0v0c0,0,0,0,0,0v0.1c0,0.1,0,0.2,0,0.2
						c0,0.3,0.1,0.6,0.3,0.8c0.1,0.2,0.3,0.4,0.4,0.5c0,0,0,0,0,0c0,0-0.1,0-0.1,0c-0.7-0.2-1.5-0.3-2.2-0.4
						c-0.9-0.1-1.8-0.2-2.7-0.1c-0.5,0.1-1.1,0.2-1.6,0.3c-0.7,0.2-1.4,0.4-2.2,0.5c-0.2,0-0.4,0.1-0.6,0.1
						C12.9,17.2,12.8,17.2,12.8,17.2L12.8,17.2z M11.9,18.6c0.1,0.1,0.3,0.2,0.5,0.2c0.1,0.1,0.2,0.1,0.4,0.2c0,0,0,0,0,0
						c0,0,0,0,0,0c-0.1,1.5-0.1,3.1,0,4.6c0,0,0,0-0.1,0c-0.1,0-0.1-0.1-0.2-0.1c-0.1,0-0.1-0.1-0.2-0.1
						C12,21.9,11.9,20.3,11.9,18.6z M11.4,23.3L11.4,23.3C11.4,23.2,11.4,23.2,11.4,23.3C11.4,23.3,11.4,23.3,11.4,23.3l0.5,0.3
						c0.3,0.2,0.5,0.3,0.8,0.5c0.1,0,0.1,0.1,0.1,0.2c0.1,1.2,0.2,2.5,0.5,3.7c0.2,1,0.4,2,0.7,3c0.3,0.9,0.6,1.8,1,2.7
						c0.8,1.7,1.9,3.3,3.1,4.7c0,0,0.1,0.1,0.1,0.1c-0.3,0.4-0.6,0.7-0.9,1c0,0-0.1,0-0.1-0.1c0,0,0,0,0,0c-1.4-1.4-2.6-3-3.4-4.8
						c-0.9-1.9-1.5-3.8-1.9-5.8c-0.2-1.1-0.3-2.1-0.4-3.2c-0.1-0.8-0.1-1.5-0.1-2.2L11.4,23.3L11.4,23.3z M5.7,14.7
						C5.7,14.7,5.7,14.7,5.7,14.7C5.7,14.7,5.7,14.7,5.7,14.7c0.1,0,0.1,0,0.1,0c1,0.7,2,1.4,3.1,2.1l0,0c0,0,0.1,0,0.1,0.1
						c0.1,0.1,0.1,0.2,0.1,0.3c0,0.8,0.1,1.7,0.1,2.6c0,0.4,0.1,0.7,0.1,1.1c0,0.2,0,0.4,0.1,0.6c0,0,0,0.1,0,0.1c0,0.1,0,0.1,0,0.2
						c-0.2-0.1-0.4-0.3-0.6-0.4l-1.2-0.7c-0.7-0.5-1.4-0.9-2.1-1.4C5.6,17.5,5.6,16.1,5.7,14.7L5.7,14.7z M4.2,15.1
						c-0.6-0.7-1.2-1.5-1.8-2.2c0.4,0.2,0.9,0.3,1.3,0.5l1.4,0.5c0.1,0.2,0.1,0.3,0.2,0.5l0.1,0.2l0,0c0,0.1,0,0.2,0,0.2
						c0,0.1,0,0.2,0,0.3C5,15,4.6,15.1,4.2,15.1L4.2,15.1z M3.7,19.1c-0.2,0-0.4,0-0.6,0c-0.1,0-0.2,0-0.3-0.1
						c-0.2-0.3-0.5-0.6-0.7-0.8c-0.1-0.2-0.3-0.3-0.4-0.5l-0.5-0.6l-0.4-0.5l-0.1-0.1c0,0,0,0,0,0l0,0C1.4,16.8,2,17,2.5,17.3
						l0.4,0.1c0.3,0.1,0.6,0.2,0.9,0.4C4,17.8,4,17.9,4,18c0,0.1,0,0.2,0.1,0.3c0,0,0,0.1,0,0.1c0.1,0.3,0.1,0.5,0,0.8h0
						C3.9,19.1,3.8,19.1,3.7,19.1L3.7,19.1z M8.2,40L8.2,40c-0.1,0-0.1-0.1-0.1-0.1l0,0c-0.6-0.7-1.1-1.6-1.5-2.4
						c-0.5-1-0.9-2.1-1.2-3.1c-0.4-1.3-0.7-2.6-0.9-4c-0.1-0.9-0.2-1.8-0.3-2.8c-0.1-1.1-0.1-2.3-0.1-3.7c0-0.9,0.1-1.7,0.1-2.5
						c0.1-0.7,0.1-1.4,0.2-2l0-0.2c0-0.1,0-0.1,0-0.2c0,0,0,0,0,0c1.2,0.7,2.3,1.5,3.5,2.2l0.3,0.2c0,0,0,0,0,0c0,0,0,0,0,0v0.1
						c0,1.1,0,2.3,0,3.5c0.1,1.5,0.2,2.9,0.5,4.4c0.4,1.7,0.9,3.3,1.5,4.9c0.5,1.2,1.1,2.3,1.7,3.4c0.5,0.9,1.1,1.7,1.8,2.5
						c0.2,0.2,0.4,0.4,0.6,0.6c0.1,0.1,0.2,0.2,0.3,0.3c0,0,0.1,0.1,0.1,0.1c0,0-0.1,0.1-0.2,0.1l0,0c-0.6,0.2-1.2,0.3-1.9,0.4
						c-0.6,0-1.2,0-1.8-0.2c-0.4-0.1-0.9-0.3-1.3-0.5C9.2,40.7,8.7,40.4,8.2,40L8.2,40z M22.8,49.4c-0.1,0.2-0.2,0.3-0.3,0.3
						c0,0,0-0.1,0-0.1v0l0,0c0-0.1,0-0.1,0-0.2c0-0.1,0-0.2,0-0.3l0,0c0,0,0.1,0,0.1,0c0.1,0,0.2,0.1,0.2,0.2
						C22.8,49.3,22.8,49.3,22.8,49.4L22.8,49.4z M22.9,47.1l0,0.4c0,0.4-0.1,0.9-0.1,1.3l0,0c0,0,0,0-0.1,0c-0.2,0-0.4,0-0.5,0
						c-0.3,0-0.6,0-0.9,0c-0.1,0-0.1,0-0.2-0.1c-0.1,0-0.2-0.2-0.1-0.3c0,0,0,0,0,0c0-0.1,0.1-0.2,0.2-0.3c0.1-0.1,0.2-0.1,0.3-0.2
						c0.1,0,0.1,0,0.2-0.1c0,0,0.1,0,0.1,0c0.1,0,0.2-0.1,0.2-0.1c0.1,0,0.1-0.1,0.1-0.2c0-0.1,0-0.1,0-0.2c0-0.1-0.1-0.1-0.2-0.2
						c-0.1-0.1-0.2-0.1-0.4-0.2c-0.4-0.2-0.9-0.3-1.3-0.3c-0.2,0-0.4,0-0.6,0h-0.2c0,0,0,0,0-0.1l0.2-0.4c0.1-0.1,0.2-0.3,0.3-0.4
						c0.7-1.2,1.2-2.5,1.6-3.9c0-0.1,0-0.2,0-0.2c0,0,0-0.1,0-0.1c0,0-0.1,0-0.1-0.1c0,0-0.1,0-0.1,0c0,0-0.1,0.1-0.1,0.1l0,0
						c-0.6,0.4-1.2,0.8-1.8,1.1c-0.8,0.4-1.6,0.7-2.4,0.8c-0.7,0.1-1.5,0.2-2.2,0.1c-1.8-0.2-3.6-0.9-4.9-2.1
						c-0.2-0.1-0.4-0.3-0.5-0.5L9.1,41l0,0c0.4,0.2,0.9,0.5,1.3,0.6c0.9,0.3,1.8,0.4,2.7,0.3c0.5,0,1-0.1,1.5-0.3
						c0.7-0.2,1.4-0.6,1.9-1c0.6-0.5,1.2-1,1.7-1.6c0-0.1,0.1-0.1,0.1-0.1c0,0,0,0,0,0c0.9,1,2,1.9,3,2.7c0,0,0,0,0.1,0
						c0,0,0,0,0,0.1c0.5,0.4,1,0.7,1.5,1.1C23.1,44.1,23,45.5,22.9,47.1L22.9,47.1z M21.1,47.2c0.1,0,0.2,0,0.2,0.1c0,0,0,0,0.1,0
						l0.1,0c0.1,0,0.2,0.1,0.3,0.2c-0.1,0-0.1,0.1-0.2,0.1c-0.1,0-0.1,0-0.2,0c-0.1,0-0.2,0.1-0.2,0.1l-0.1,0
						C21,47.6,21,47.4,21.1,47.2L21.1,47.2z M24.1,42.9C24.1,42.9,24.1,43,24.1,42.9c-0.1,0-0.2,0-0.2-0.1l0,0
						c-1.1-0.7-2.1-1.4-3.1-2.3c-0.1-0.1-0.2-0.1-0.2-0.2l-0.1-0.1c0-0.4,0.3-0.8,0.7-1c0,0,0.1,0,0.1,0l0.1,0c0,0,0.1,0,0.1,0
						c0.3,0,0.5-0.3,0.5-0.5c0-0.1,0.1-0.2,0.2-0.3c0.1-0.1,0.3-0.1,0.4-0.1c0.3,0.1,0.6,0,0.8-0.2c0,0,0,0,0,0c0,0,0,0,0,0
						c0,0,0,0,0,0c0.1,0,0.2,0,0.3,0s0.2,0,0.3,0c0.2,0,0.4-0.1,0.6-0.1c0.1,0,0.1,0,0.2,0c0.2,0,0.4,0.1,0.5,0.1
						c0.1,0,0.1,0.1,0.2,0.2c0.1,0.1,0.2,0,0.3-0.1c0,0,0,0,0.1-0.1c0,0,0,0,0,0c0,0,0.1-0.1,0.1-0.1c0.1,0,0.2,0,0.3,0
						c0.1,0,0.1,0.1,0.1,0.2c0,0,0,0,0,0.1c0,0,0,0,0,0.1c0,0,0,0,0,0.1c-0.1,0.2-0.1,0.2,0.1,0.3c0.1,0,0.1,0.1,0.1,0.1
						c0,0.1,0,0.1-0.1,0.2l0,0.1c0,0,0,0.1,0,0.1c0,0,0,0.1-0.1,0.1c-0.1,0.2,0,0.3,0.2,0.4c0.1,0,0.1,0.1,0.2,0.1l0,0
						c0.2,0.1,0.3,0.2,0.2,0.5c0,0.1-0.1,0.2-0.1,0.3c0,0.1,0,0.1-0.1,0.2c0,0.1-0.1,0.2-0.1,0.2c-0.1,0.1-0.2,0.1-0.3,0.2
						c-0.1,0.1-0.3,0.2-0.4,0.3c-0.6,0.4-1.1,0.8-1.7,1.3C24.2,42.9,24.2,42.9,24.1,42.9L24.1,42.9z M25.6,49.7
						c-0.2-0.1-0.3-0.2-0.3-0.4l0,0c0,0,0.1,0,0.1-0.1s0.1,0,0.1-0.1l0,0l0,0c0,0,0,0,0,0C25.6,49.3,25.6,49.5,25.6,49.7L25.6,49.7z
						 M35.1,43.3c-0.9,0.3-1.8,0.4-2.7,0.3c-1.3-0.1-2.6-0.5-3.7-1c-0.6-0.3-1.2-0.6-1.8-0.9l0,0c-0.1,0-0.1-0.1-0.2-0.1
						c0,0-0.1,0-0.1,0c0,0-0.1,0.1-0.1,0.1c0,0.1,0,0.2,0,0.2c0.2,1,0.6,1.9,1,2.9c0.3,0.6,0.6,1.2,1,1.8l0,0.1c0,0,0,0.1,0.1,0.1
						c-0.1,0-0.2,0-0.3,0h0c-0.3,0-0.5,0-0.8,0l-0.4,0c-0.2,0-0.5,0.1-0.7,0.2c-0.1,0.1-0.2,0.1-0.3,0.2c-0.1,0.1-0.1,0.3,0,0.5
						c0,0,0,0,0,0c0.1,0.1,0.2,0.1,0.3,0.2c0.3,0.1,0.5,0.3,0.7,0.6c0,0,0,0.1,0.1,0.1l0,0c-0.1,0.2-0.1,0.2-0.2,0.1
						c-0.1,0-0.2,0-0.3,0c-0.4-0.1-0.9-0.1-1.3,0.2c0,0,0,0,0,0c0,0,0,0,0,0c0,0,0,0,0,0v0c0-0.1,0-0.2,0-0.3c0-0.6,0-1.1-0.1-1.7
						c0-0.4,0-0.8,0-1.1c0-0.9-0.1-1.8-0.1-2.8v-0.2c0.1,0,0.1-0.1,0.2-0.1c1-0.7,1.8-1.4,2.5-2c0.6-0.5,1.3-1.1,1.8-1.7
						c0,0,0.1-0.1,0.1-0.1c0,0,0.1,0.1,0.1,0.1l0,0c0.3,0.4,0.6,0.8,1,1.1c0.9,0.9,2.1,1.6,3.4,1.8c1.3,0.3,2.6,0.2,3.8-0.3
						c0.4-0.2,0.9-0.4,1.3-0.7C38.1,42,36.7,42.9,35.1,43.3L35.1,43.3z M27.1,48.1c-0.2-0.2-0.4-0.3-0.6-0.5c-0.1,0-0.1-0.1-0.2-0.1
						c0,0,0,0,0,0c0,0,0,0,0,0c0.1-0.1,0.1-0.1,0.2-0.1c0,0,0.1-0.1,0.2-0.1c0.1,0,0.1,0,0.2-0.1l0,0C27,47.5,27,47.8,27.1,48.1
						L27.1,48.1z M43.9,25.2c0,1.2-0.1,2.3-0.2,3.4c-0.1,1.4-0.3,2.7-0.6,4c-0.3,1.6-0.8,3.1-1.5,4.5c-0.2,0.4-0.4,0.7-0.6,1.1
						c-0.6,1-1.3,1.8-2.3,2.5c-0.6,0.4-1.3,0.7-2.1,0.8c-1.1,0.2-2.1,0.1-3.2-0.2c-0.1,0-0.1,0-0.2-0.1c0,0,0-0.1,0.1-0.1l0,0
						c0.5-0.6,1-1.2,1.5-1.8c0.9-1.2,1.7-2.6,2.3-4c0.9-2,1.5-4.2,2-6.3c0.2-1,0.4-2,0.5-3c0.1-1.5,0.2-3,0.2-4.5v-0.2
						c1.4-0.9,2.7-1.8,3.9-2.5c0,0.1,0,0.1,0,0.2v0c0.1,1,0.1,2,0.2,3C43.9,23.2,43.9,24.3,43.9,25.2L43.9,25.2z M45.2,19.1
						c-0.2,0-0.5,0-0.7,0c-0.2,0-0.4,0-0.6,0c-0.1-0.2-0.1-0.4,0-0.6c0-0.1,0.1-0.2,0.1-0.2c0.1-0.2,0.1-0.3,0.2-0.5
						c0-0.1,0.1-0.1,0.2-0.2c0.6-0.2,1.1-0.4,1.7-0.6l0.7-0.2l0.5-0.2l0.1,0C46.7,17.4,45.9,18.3,45.2,19.1L45.2,19.1z"/>
					<g id="Grupo_23244" transform="translate(15.611 18.591)">
						<path id="Trazado_17554" class="st2" d="M9.7,5.6c0,0.1,0.1,0.1,0.1,0.2c0,0.1,0.1,0.1,0.1,0.2c0,0.3,0.1,0.5,0.3,0.6
							c0.3,0.1,0.6,0.1,0.8,0c0.1,0,0.1-0.1,0.2-0.1c0.1,0,0.2,0.1,0.3,0.1c0.2,0.1,0.4,0,0.6-0.1c0.1-0.1,0.2-0.1,0.3-0.1
							c0.1,0,0.1,0,0.2,0c0.3,0,0.6-0.1,0.8-0.3c0,0,0.1-0.1,0.1-0.1h0.2c0.2,0,0.4,0,0.6,0c0.4,0,0.7-0.2,0.9-0.6
							c0-0.1,0.1-0.1,0.1-0.1l0.1,0c0.4,0,0.8-0.3,0.9-0.7c0.1-0.2,0.1-0.3,0.1-0.5c0-0.1,0-0.1,0-0.2c0.1-0.1,0.1-0.1,0.2-0.2
							c0.2-0.2,0.3-0.5,0.2-0.8c0-0.1-0.1-0.2-0.1-0.3c0-0.1-0.1-0.1-0.1-0.2c0-0.1,0.1-0.2,0.1-0.2c0.1-0.2,0.1-0.3,0-0.5
							c-0.1-0.3-0.3-0.5-0.5-0.6c-0.3-0.1-0.6,0-0.7,0.2c0,0-0.1,0.1-0.1,0.2c0,0.1-0.1,0.1-0.2,0.2c-0.3,0.1-0.5,0.3-0.5,0.5
							c0,0,0,0.1-0.1,0.1c-0.1,0.1-0.2,0.2-0.3,0.3c-0.2,0-0.4,0-0.6,0.1c-0.1,0-0.2,0-0.3,0c-0.1-0.1-0.3-0.2-0.5-0.2
							c-0.5-0.1-0.9,0-1.3,0.3c-0.3,0.3-0.6,0.6-0.8,1c-0.1,0.3-0.2,0.6-0.1,0.8c0,0.1,0,0.1,0,0.2c0,0-0.1,0-0.1,0
							c-0.1-0.1-0.3-0.1-0.4-0.1c-0.3,0-0.6,0.3-0.6,0.7C9.6,5.5,9.7,5.5,9.7,5.6L9.7,5.6z M15.7,1.5c0.1-0.1,0.2-0.1,0.3-0.1
							c0.2,0,0.4,0.1,0.5,0.3c0.1,0.1,0.1,0.2,0.1,0.3c0,0.1,0,0.2-0.1,0.3C16.3,2.2,16.2,2.1,16,2c-0.2-0.1-0.3-0.2-0.5-0.2
							C15.6,1.7,15.6,1.6,15.7,1.5L15.7,1.5z M11.7,3c0.3-0.2,0.7-0.3,1.1-0.3c0.3,0,0.5,0.1,0.7,0.3c0.2,0.2,0.4,0.5,0.5,0.8
							C14,3.9,14,3.9,14.1,4l0.1,0l0,0c0,0,0-0.1,0-0.1c-0.1-0.3-0.2-0.5-0.4-0.7c0,0-0.1-0.1-0.1-0.1C13.7,3,13.7,3,13.8,3
							c0.2,0,0.4,0,0.6,0c0.2,0.1,0.4,0.2,0.5,0.4C14.9,3.5,15,3.6,15,3.7c0,0.1,0.1,0.1,0.1,0.1c0.1,0,0-0.1,0-0.1
							c-0.1-0.3-0.3-0.6-0.6-0.8c0,0-0.1,0-0.1-0.1l0,0c0-0.1,0.1-0.1,0.2-0.1c0.3-0.1,0.7,0,1,0.2c0.1,0,0.1,0.1,0.2,0.1h0.1
							c0,0,0,0,0-0.1l0,0c-0.2-0.3-0.5-0.4-0.8-0.5c-0.1,0-0.2,0-0.3,0c0-0.1,0.1-0.3,0.2-0.3C15.1,2,15.3,1.9,15.5,2
							c0.4,0,0.8,0.3,1,0.7c0,0,0.1,0.1,0.1,0.1c0,0.1,0.1,0.2,0.1,0.2c0.1,0.3,0,0.6-0.2,0.7c-0.1,0.1-0.2,0.1-0.2,0.2
							c0,0.1,0,0.2,0,0.3c0,0.1,0,0.3,0,0.4c-0.1,0.3-0.3,0.5-0.5,0.6c-0.1,0.1-0.3,0.1-0.4,0.1c-0.1,0-0.1,0-0.2,0.1
							C15,5.4,15,5.4,15,5.5c-0.2,0.2-0.4,0.4-0.7,0.4c-0.3,0-0.5,0-0.8,0c0,0,0,0-0.1,0c0-0.1,0-0.1,0.1-0.1
							c0.4-0.7,0.3-1.6-0.2-2.2c-0.1-0.2-0.3-0.3-0.5-0.4c-0.3-0.2-0.7-0.2-1,0c0,0-0.1,0-0.1,0C11.6,3.1,11.7,3.1,11.7,3L11.7,3z
							 M11.8,4.5L11.8,4.5L11.8,4.5z M12.3,5.5c0.1,0.1,0.2,0.2,0.2,0.3c0,0,0,0.1,0.1,0.1c0,0,0.1,0,0.1,0c0,0,0.1,0,0.1-0.1
							c0,0,0-0.1,0-0.1c-0.1-0.2-0.2-0.4-0.4-0.5c-0.1-0.1-0.1-0.1-0.2-0.2c-0.1,0-0.1-0.1-0.1-0.2C12,4.8,12,4.6,12,4.4
							c0,0,0-0.1,0-0.1c0.1-0.4,0.5-0.6,0.9-0.5c0,0,0,0,0,0c0.2,0,0.3,0.1,0.4,0.2c0,0,0.1,0.1,0.1,0.1c0.2,0.5,0.1,1.2-0.2,1.6
							c-0.1,0.2-0.3,0.3-0.5,0.4c-0.1,0-0.2,0.1-0.2,0.1c0,0-0.1,0-0.1,0c-0.1,0-0.1,0-0.2,0l-0.1,0c-0.2,0.1-0.4,0.2-0.5,0.1
							c-0.1,0-0.1,0-0.2-0.1c0.1-0.1,0.1-0.3,0.1-0.4c0-0.1-0.1-0.3-0.2-0.4c0.2-0.3,0.6-0.4,0.9-0.2C12.2,5.4,12.3,5.5,12.3,5.5
							L12.3,5.5z M10.9,5.6C10.9,5.6,10.9,5.6,10.9,5.6c0.1,0.1,0.2,0.2,0.3,0.3c0,0.1,0,0.3-0.1,0.4c-0.2,0.2-0.6,0.3-0.9,0.1
							C10,6.3,10,6.1,10.1,5.9c0-0.1,0.1-0.1,0.1-0.2c0.1-0.1,0.2-0.2,0.3-0.2C10.6,5.5,10.8,5.5,10.9,5.6L10.9,5.6z M10.4,5
							c0.2,0,0.3,0.2,0.3,0.3c-0.2,0-0.3,0.1-0.4,0.1C10.1,5.5,10,5.6,9.9,5.7c-0.1-0.1-0.1-0.4,0-0.5C10,5,10.2,4.9,10.4,5L10.4,5z
							"/>
						<path id="Trazado_17555" class="st2" d="M0.4,4.1c0,0.1,0,0.1,0,0.2c0,0.2,0.1,0.5,0.3,0.7C0.8,5.1,1,5.3,1.2,5.4
							c0.1,0,0.2,0.1,0.2,0.2c0.1,0.2,0.3,0.3,0.4,0.4c0.3,0.2,0.7,0.3,1,0.2c0,0,0.1,0,0.1,0l0.1,0.1c0,0,0.1,0,0.1,0.1
							c0.3,0.2,0.6,0.3,1,0.3l0.1,0c0.1,0,0.2,0,0.4,0c0.2,0.1,0.4,0.1,0.7,0c0.1,0,0.1,0,0.2,0c0.1,0.1,0.2,0,0.3-0.1
							c0,0,0-0.1,0.1-0.1c0.1,0,0.1,0,0.2,0c0.2,0.1,0.4,0.1,0.6,0C6.9,6.3,7,6.2,7,6c0-0.1-0.1-0.3-0.2-0.3c-0.1,0-0.1-0.1-0.2-0.1
							c0-0.1,0-0.2,0-0.3c0-0.2-0.2-0.4-0.4-0.5c0,0-0.1,0-0.1-0.1c0-0.1,0-0.3,0-0.4c0-0.8-0.5-1.4-1.2-1.7C4.5,2.5,4.2,2.5,4,2.5
							c-0.2,0-0.4,0.1-0.5,0.2c-0.1,0-0.2,0.1-0.3,0C2.9,2.7,2.7,2.6,2.5,2.7H2.4C2.3,2.5,2.2,2.4,2.1,2.3c0,0,0,0,0-0.1
							c0-0.2-0.1-0.4-0.4-0.5c-0.1,0-0.1-0.1-0.1-0.1C1.5,1.5,1.4,1.4,1.3,1.3C1.2,1.2,1.1,1.2,0.9,1.2c-0.2,0-0.5,0.1-0.6,0.3
							C0.1,1.7,0.1,1.9,0.1,2.1c0,0.2,0,0.5-0.1,0.7c-0.1,0.4,0,0.7,0.2,1C0.3,3.9,0.4,4,0.4,4.1L0.4,4.1z M3.3,3.1
							C3.3,3,3.4,3,3.4,3c0.2-0.1,0.5-0.2,0.8-0.2c0.1,0,0.3,0,0.4,0.1C5.1,3,5.5,3.4,5.7,3.9c0.1,0.2,0.1,0.5,0.1,0.7l0,0
							c-0.1,0,0-0.1-0.1-0.1c0-0.2-0.1-0.4-0.1-0.6C5.3,3.3,4.7,3,4,3.2C3.8,3.3,3.6,3.4,3.5,3.6C3.3,3.9,3.2,4.3,3.2,4.7
							c0.1,0.4,0.2,0.8,0.5,1.1c0.1,0.1,0.1,0.1,0.2,0.1s0-0.1,0-0.2c0,0-0.1-0.1-0.1-0.1C3.7,5.5,3.6,5.3,3.6,5.2
							C3.6,5.1,3.7,5,3.8,5c0,0.1,0,0.1,0,0.2c0,0,0,0.1,0.1,0.1c0,0,0.1,0,0.1-0.1c0,0,0-0.1,0-0.1c0-0.1,0.2-0.2,0.3-0.2h0
							c0.1,0,0.2,0,0.3-0.1c0,0,0,0,0,0c0.1-0.2,0.3-0.3,0.5-0.3c0.1,0,0.3,0.1,0.4,0.2c0,0,0,0.1,0.1,0.1c0,0.1,0,0.1,0.2,0
							c0,0,0,0.1,0.1,0.1c0,0,0.1,0,0.1,0C6,5,6,5,6.1,5c0.1,0.1,0.2,0.2,0.2,0.3c0,0.1,0,0.2,0,0.3c0,0,0,0.1,0,0.1
							c0,0.1,0.1,0.1,0.1,0.1c0.1,0,0.1,0,0.2,0.1c0.1,0,0.1,0.1,0.1,0.1c0,0.1,0,0.1-0.1,0.2c-0.1,0.1-0.3,0.1-0.4,0
							C6.2,6.2,6.1,6.2,6,6.1c-0.1,0-0.1,0-0.2,0c-0.1,0-0.1,0-0.1,0.1c0,0,0,0,0,0.1c0,0,0,0.1-0.1,0.1c-0.1,0-0.1,0-0.2,0
							c-0.1,0-0.2,0-0.2,0.1C5.1,6.5,5,6.5,4.9,6.4c-0.1,0-0.2,0-0.3-0.1c-0.1,0-0.2,0-0.2,0c-0.1,0-0.3,0-0.4,0
							c-0.3,0-0.5-0.1-0.7-0.3c0,0,0,0,0-0.1c0-0.1-0.1-0.2-0.2-0.3C3.1,5.6,3,5.5,3,5.5C2.7,5,2.7,4.4,2.9,3.8
							C3,3.6,3.1,3.3,3.3,3.1L3.3,3.1z M4.4,4.6C4.4,4.6,4.4,4.6,4.4,4.6C4.2,4.7,4.1,4.7,4,4.7c-0.1,0-0.2,0.1-0.4,0.1
							c-0.1,0-0.1,0.1-0.2,0.1C3.4,4.7,3.4,4.5,3.4,4.3c0-0.3,0.2-0.5,0.3-0.7C4.1,3.7,4.3,4,4.4,4.4C4.4,4.5,4.4,4.5,4.4,4.6
							L4.4,4.6z M0.2,2.8c0.1-0.2,0.1-0.4,0.1-0.6c0-0.1,0-0.2,0-0.3c0-0.2,0.2-0.5,0.5-0.5c0.2-0.1,0.3,0,0.4,0.1
							c0,0,0.1,0.1,0.1,0.1c0,0.1-0.1,0-0.1,0c-0.1,0-0.2,0-0.3,0.1C0.8,1.8,0.6,1.9,0.6,2.1c0.1,0,0.1,0,0.1-0.1
							C0.8,1.9,1,1.9,1.1,1.8c0.1,0,0.2,0,0.3,0c0.1,0,0.1,0,0.2,0.1c0.2,0,0.3,0.2,0.3,0.3c0,0-0.1,0-0.2,0C1.3,2.4,1,2.6,0.9,2.9
							c0,0,0,0,0,0.1c0,0,0,0.1,0,0.1c0,0,0.1,0,0.1,0C0.9,3,1,3,1,2.9C1,2.9,1.1,2.8,1.2,2.7c0.2-0.2,0.4-0.3,0.7-0.2
							c0.1,0,0.2,0.1,0.3,0.3C2,2.9,1.8,3.1,1.7,3.3c0,0.1,0,0.1,0,0.2c0,0,0,0,0.1-0.1c0,0,0-0.1,0.1-0.1C1.9,3.2,2,3.1,2.1,3.1
							C2.2,3,2.3,2.9,2.5,2.9c0.2,0,0.4,0,0.6,0c0,0,0.1,0,0.1,0C3.1,3,3,3.1,3,3.2c-0.2,0.3-0.4,0.6-0.4,1c-0.1,0.5,0,0.9,0.2,1.3
							C2.8,5.6,2.9,5.8,3,5.9C2.8,6,2.5,6,2.3,5.9C2.1,5.9,2,5.8,1.8,5.6C1.8,5.6,1.7,5.5,1.6,5.4C1.5,5.3,1.4,5.2,1.3,5.2
							C1,5.1,0.7,4.8,0.6,4.4c0-0.1-0.1-0.3-0.1-0.4c0-0.1,0-0.2-0.1-0.3C0.3,3.6,0.2,3.4,0.2,3.2C0.2,3.1,0.2,2.9,0.2,2.8L0.2,2.8z
							"/>
						<path id="Trazado_17556" class="st2" d="M8,4C7.9,3.9,7.7,3.7,7.4,3.6C7.2,3.5,7,3.4,6.8,3.3c0,0-0.1,0-0.1,0
							c-0.1,0-0.1,0-0.1,0.1c0,0,0,0,0,0c0,0.1,0,0.1,0,0.2C6.7,3.8,6.9,4,7,4.3c0.2,0.4,0.6,0.6,1,0.7c0.1,0,0.1,0,0.2,0.1
							c0,0.2,0,0.5,0,0.7c0,0.1,0,0.1,0,0.2c0,0,0,0.1,0,0.1c0.2,0.1,0.3,0.2,0.5,0.3c0,0,0.1,0,0.1,0c0,0,0,0,0,0c0,0,0-0.1,0-0.1
							c0-0.1,0-0.2,0-0.4c0-0.2,0-0.4,0-0.7c0-0.1,0-0.3-0.1-0.4c0.1,0,0.1-0.1,0.2-0.1c0.2-0.1,0.4-0.3,0.6-0.4
							C10,3.9,10.2,3.5,10.3,3v0c0-0.1,0-0.2-0.1-0.1s-0.2,0-0.3,0.1C9.8,2.9,9.7,3,9.7,3v0l0-0.1C9.8,2.7,9.9,2.4,10,2.2
							c0.1-0.5,0-1.1-0.4-1.5c0,0,0-0.1-0.1-0.1c0.1-0.1,0.1-0.2,0.2-0.3c0,0,0-0.1,0-0.1c0,0,0,0-0.1,0c-0.1,0-0.2,0-0.3,0
							c-0.1,0-0.2,0-0.3,0c0,0,0,0,0-0.1C8.8,0,8.8,0,8.6,0.1c-0.1,0.1-0.3,0.1-0.4,0C8.2,0,8.1,0,8,0C8,0,7.9,0.1,7.9,0.1
							c0,0-0.1,0.1-0.2,0c-0.1,0-0.1-0.1-0.2-0.1C7.5,0.1,7.5,0,7.4,0C7.3,0,7.3,0,7.3,0.1c0,0,0,0,0,0.1c0,0,0,0.1,0,0.1
							c0,0.1,0,0.2,0,0.2c0,0-0.1,0.1-0.1,0.1C6.9,0.8,6.7,1.1,6.6,1.4c0,0.1-0.1,0.3-0.1,0.4C6.5,2.4,6.8,3.1,7.4,3.3
							c0.1,0.1,0.3,0.1,0.4,0.2c0.1,0,0.1,0.1,0.1,0.1C8,3.8,8.1,4,8.1,4.1C8.1,4.1,8.1,4.1,8,4C8.1,4.1,8.1,4.1,8,4L8,4z M8.8,0.2
							c0,0.1,0.1,0.1,0.1,0.2C8.9,0.4,9,0.5,9,0.5c0.1,0,0.2,0,0.3,0c0,0.1,0,0.1-0.1,0.2c0,0,0,0.1,0,0.2c0,0,0.1,0.1,0.1,0.1
							c0.3,0.3,0.4,0.6,0.4,1c0,0.2,0,0.4-0.1,0.6C9.6,2.9,9.2,3.2,8.6,3.3c0,0,0,0-0.1,0c0-0.1,0.1-0.1,0.1-0.2
							C8.8,2.9,9,2.7,9.1,2.5c0.1-0.3,0.2-0.5,0.2-0.8c0-0.3-0.1-0.5-0.2-0.8C8.9,0.7,8.8,0.6,8.7,0.5c0,0-0.1-0.1-0.1-0.2
							C8.6,0.3,8.7,0.3,8.8,0.2L8.8,0.2z M9,3.4C8.9,3.5,8.8,3.7,8.8,3.8C8.7,3.7,8.6,3.6,8.6,3.5C8.7,3.5,8.8,3.5,9,3.4
							C8.9,3.4,9,3.4,9,3.4L9,3.4z M8.1,0.4C7.7,0.6,7.5,0.9,7.4,1.2c-0.1,0.3-0.1,0.7,0,1c0.1,0.3,0.2,0.6,0.4,0.9
							c0,0,0,0.1,0.1,0.1v0l0,0C7.2,3.2,6.8,2.6,6.8,2c0-0.2,0-0.4,0.1-0.6c0.1-0.2,0.2-0.4,0.4-0.5c0,0,0.1,0,0.1-0.1
							c0.1-0.1,0.2-0.2,0.2-0.3v0l0,0c0,0,0,0,0.1,0C7.7,0.4,7.9,0.4,8,0.3c0,0,0,0,0,0l0.1-0.1c0.1,0,0.1,0,0.2,0.1
							C8.2,0.3,8.1,0.4,8.1,0.4L8.1,0.4z M8.2,3.8c0-0.1-0.1-0.1-0.1-0.2c0,0,0.1,0,0.1,0c0.2,0.1,0.3,0.3,0.3,0.5
							c0,0.1,0,0.1,0,0.2c0,0,0,0.1,0.1,0.1c0,0,0.1,0,0.1,0c0,0,0.1-0.1,0.1-0.1C8.9,4.1,8.9,4,9,3.8c0-0.1,0-0.1,0.1-0.1
							C9.3,3.4,9.6,3.2,10,3.1c0,0,0,0,0.1,0c0,0,0,0.1,0,0.1C10,3.4,9.9,3.7,9.7,3.9C9.5,4.2,9.2,4.5,8.9,4.6
							c-0.1,0-0.2,0.1-0.2,0.1c0,0.1,0,0.2,0,0.4c0,0.3,0.1,0.6,0,0.9c0,0.1,0,0.1-0.1,0.2C8.6,6.1,8.5,6,8.4,6c0-0.1,0-0.1,0-0.2
							c0-0.2,0.1-0.4,0-0.6c0-0.2-0.1-0.2-0.2-0.2L8,4.8C7.7,4.8,7.4,4.6,7.3,4.3C7.1,4.1,7,3.9,6.9,3.7c0,0,0-0.1,0-0.1
							c0,0,0.1,0,0.1,0l0.4,0.2C7.7,4,8,4.3,8.2,4.7l0,0c0,0,0.1,0,0.1,0s0.1,0,0.1-0.1c0-0.1,0-0.1,0-0.2C8.4,4.2,8.3,4,8.2,3.8
							L8.2,3.8z"/>
						<path id="Trazado_17557" class="st2" d="M6,10.5c0.1,0,0.1,0,0.2,0c0,0,0.1,0,0.1,0c0,0.1,0,0.2,0,0.2
							c-0.1,0.5-0.2,0.9-0.2,1.4c0,0.1,0.1,0.2,0.2,0.3c0.3,0.1,0.6,0.2,0.9,0.3c0.1,0,0.1,0,0.2,0c0,0.1,0,0.1,0,0.2
							c0,0.2-0.1,0.4-0.1,0.6c0,0.1,0,0.1,0,0.2c0.2,0.2,0.4,0.5,0.6,0.8c0.1,0.1,0.2,0.1,0.3,0.1c0,0,0.1,0,0.1-0.1
							c0.1-0.2,0.3-0.4,0.4-0.6c0.2-0.2,0.2-0.2,0.1-0.4v0c0-0.1,0-0.1,0-0.2c0-0.1,0-0.1,0-0.2c0.2,0,0.4,0,0.6,0
							c0.1,0.2,0.2,0.3,0.3,0.5c0.1,0.1,0.2,0.1,0.3,0.2c0.1,0,0.2,0,0.4,0.1c0.2,0,0.5,0,0.7-0.1c0.1,0,0.1-0.1,0.2-0.2
							c0,0,0-0.1,0-0.1c0,0-0.1-0.1-0.1-0.1c-0.1-0.1-0.2-0.1-0.3-0.2c-0.2-0.1-0.3-0.4-0.3-0.6c0-0.2,0-0.3,0-0.5
							c0-0.3,0-0.5,0-0.8c-0.1-0.6-0.3-1.2-0.4-1.9c0-0.1-0.1-0.3-0.2-0.4C9.7,8.5,9.4,8.3,9.1,8.3c-0.3-0.1-0.6-0.1-0.9,0
							C7.7,8.3,7.3,8.4,7,8.6C6.7,8.8,6.4,9,6.1,9.2C6,9.3,5.9,9.4,5.9,9.6c0,0.2,0,0.5,0,0.7C5.8,10.4,5.9,10.4,6,10.5L6,10.5z
							 M7.3,12.6c-0.3,0-0.7-0.2-1-0.3l0.2,0l0,0c0.3,0.1,0.5,0.2,0.8,0.3C7.3,12.5,7.3,12.6,7.3,12.6L7.3,12.6z M7.9,14.3
							c-0.2-0.2-0.3-0.4-0.5-0.6c-0.1-0.1-0.1-0.1-0.1-0.2c0.1-0.5,0.1-0.9,0.1-1.4c0,0,0-0.1,0-0.1c0.1,0,0.3,0,0.4,0L7.9,14.3
							C8,14.4,8,14.3,7.9,14.3L7.9,14.3z M8.7,12.9c0,0,0-0.1,0-0.1c0.2,0.1,0.4,0,0.5,0c0,0,0,0.1,0,0.1
							C9.1,12.9,8.9,12.9,8.7,12.9L8.7,12.9z M6.1,9.5C6.1,9.5,6.2,9.4,6.1,9.5C6.5,9.2,6.8,9,7.2,8.8c0.4-0.2,0.7-0.3,1.2-0.3
							c0.2,0,0.5,0,0.7,0c0.3,0,0.5,0.2,0.6,0.4C9.7,9,9.7,9.2,9.8,9.4c0.1,0.6,0.3,1.1,0.4,1.7c0.1,0.4,0.1,0.7,0.1,1.1
							c0,0.2,0,0.3,0,0.5c0,0.2,0.1,0.4,0.3,0.5c0.1,0.1,0.2,0.1,0.3,0.2c0,0,0.1,0,0.1,0.1c-0.1,0.1-0.2,0.1-0.4,0.1
							c-0.2,0-0.4,0-0.5,0c-0.1,0-0.1,0-0.2-0.1c-0.2-0.3-0.4-0.6-0.5-0.9c0,0,0-0.1,0-0.1c0-0.1,0-0.2-0.1-0.2
							C9.1,12.1,8.9,12,8.8,12c-0.3-0.1-0.7-0.1-1.1-0.1c-0.4,0-0.8,0.1-1.3,0.2c-0.1,0-0.1,0-0.2,0c0-0.1,0-0.1,0-0.1
							c0-0.5,0.1-0.9,0.2-1.4c0-0.1,0-0.1,0-0.2c0.3,0,0.5-0.4,0.8-0.5c0.4-0.3,0.9-0.4,1.4-0.4c0.1,0,0.2,0,0.3,0
							c0.1,0.1,0.2,0.2,0.3,0.3c0.2,0.2,0.3,0.5,0.4,0.7c0.1,0.3,0.2,0.7,0.2,1c0,0,0,0.1,0,0.1l0-0.1c0-0.5,0-0.9-0.1-1.4
							c-0.1-0.2-0.1-0.3-0.2-0.5C9.2,9.3,8.6,9,8,9.1C7.7,9.2,7.4,9.3,7.1,9.5c-0.3,0.2-0.5,0.4-0.8,0.6c0,0.1-0.1,0.1-0.2,0.2
							L6.1,9.5z"/>
						<path id="Trazado_17558" class="st2" d="M9.9,17.4H10l0-0.1c0-0.1,0-0.2,0-0.3c0-0.1,0-0.2,0-0.3l0-0.1H9.2l0-0.1h0.4l0-0.1
							c0-0.1,0-0.2,0-0.2c0-0.1,0-0.2,0.1-0.3l0-0.1H9.1l0.5,0l-0.5-0.2L9,16H8.6l0,0c0,0.1,0,0.2,0,0.3c0,0.1,0,0.2,0,0.3l0,0h0.3
							l0,0.1H8.3l0-0.1h0.3l0-0.1c0-0.1,0-0.2,0-0.2c0-0.1,0-0.2,0-0.3l0-0.1H8.2l0.5,0l-0.5-0.2L8.2,16H7.7l0,0c0,0.1,0,0.2,0,0.3
							c0,0.1,0,0.2,0,0.3l0,0H8l0,0.1H7.1l0,0c0,0.1-0.1,0.2,0,0.3c0,0,0,0.1,0,0.1H6.2l0.2,0.5h0.2l0.3,0.4h3l0.6-0.6L9.9,17.4
							C9.9,17.5,9.9,17.4,9.9,17.4z M7.4,17.6l-0.1-0.1h0.1L7.4,17.6z M7.8,17.6H7.5l0-0.1h0.2L7.8,17.6z M7.9,17.2H7.3
							c0-0.1,0-0.1,0-0.2c0-0.1,0-0.1,0-0.2h0.6c0,0.1,0,0.1,0,0.2C7.8,17.1,7.8,17.2,7.9,17.2z M7.8,16.5c0-0.1,0-0.1,0-0.2
							c0-0.1,0-0.1,0-0.2h0.6c0,0.1,0,0.1,0,0.2c0,0.1,0,0.1,0,0.2H7.8z M8.2,17.6H8.1l0-0.1h0.2L8.2,17.6z M8.7,17.6H8.5l0-0.1h0.2
							L8.7,17.6L8.7,17.6z M8.8,17.2C8.8,17.2,8.8,17.2,8.8,17.2l-0.6,0c0,0,0-0.1,0-0.2v0l0-0.1c0,0,0-0.1,0-0.1h0.6
							c0,0.1,0,0.1,0,0.2C8.8,17.1,8.8,17.2,8.8,17.2L8.8,17.2z M9.2,16.9h0.6c0,0.1,0,0.1,0,0.2c0,0.1,0,0.1,0,0.2H9.2
							c0-0.1,0-0.1,0-0.2C9.2,17,9.2,16.9,9.2,16.9L9.2,16.9z M8.8,16.5c0-0.1,0-0.1,0-0.2c0-0.1,0-0.1,0-0.2h0.6c0,0.1,0,0.1,0,0.2
							c0,0.1,0,0.1,0,0.2H8.8z M9.2,17.6H9l0-0.1h0.2L9.2,17.6L9.2,17.6z M9.5,17.6l0-0.1h0.2l0.1,0.1H9.5L9.5,17.6z"/>
						<path id="Trazado_17559" class="st2" d="M9.6,21.7c0-0.1,0-0.2,0-0.3c0-0.1,0-0.2,0-0.2l0-0.1H9.3v-0.3H9v0.3H8.6v-0.3H8.3
							v0.3H7.9v-0.3H7.5v0.3H7.4l0,0.1c0,0.1,0,0.2,0,0.3L7,21.8H6.4l0.3,0.5l0.5,0.3h2.2l0.6-0.4l0.1-0.5L9.6,21.7L9.6,21.7
							L9.6,21.7z M7.9,21.6H7.6c0,0,0-0.2,0-0.2c0,0,0-0.1,0-0.1h0.3c0,0,0,0.1,0,0.1C7.9,21.5,7.9,21.6,7.9,21.6L7.9,21.6z
							 M8.6,21.6H8.3v-0.2c0,0,0-0.1,0-0.1h0.3c0,0,0,0.1,0,0.1L8.6,21.6z M9.3,21.6H9c0,0,0-0.2,0-0.2c0,0,0-0.1,0-0.1h0.3
							c0,0,0,0.1,0,0.1C9.3,21.5,9.3,21.6,9.3,21.6L9.3,21.6z"/>
					</g>
					<g id="Grupo_23245" transform="translate(12.749 14.605)">
						<path id="Trazado_17560" class="st2" d="M1.1,1.8c0,0,0-0.1,0-0.1C0.9,1.8,0.7,1.8,0.5,1.9C0.4,1.6,0.3,1.3,0.1,1
							c0,0-0.1,0-0.1,0.1c0.1,0.3,0.3,0.7,0.4,1C0.6,2,0.9,1.9,1.1,1.8L1.1,1.8z"/>
						<path id="Trazado_17561" class="st2" d="M1.4,1.7C1.3,1.4,1.2,1.1,1,0.7c0,0-0.1,0-0.2,0c0.1,0.3,0.2,0.7,0.4,1L1.4,1.7z"/>
						<path id="Trazado_17562" class="st2" d="M2.1,1.5c0.1,0,0.2-0.1,0.3-0.2c0-0.1,0-0.1,0-0.2C2.4,1.1,2.3,1,2.2,1
							c0,0-0.1,0-0.1,0c0,0,0.1,0,0.1-0.1c0-0.1,0-0.1,0-0.2c0-0.1,0-0.1-0.1-0.1C2,0.5,1.9,0.5,1.8,0.5c-0.2,0-0.3,0.1-0.5,0.1
							c0.1,0.3,0.2,0.7,0.3,1C1.8,1.6,1.9,1.6,2.1,1.5z M1.5,0.7c0.1,0,0.2-0.1,0.3-0.1c0.1,0,0.1,0,0.2,0C2,0.6,2,0.7,2,0.7
							c0,0.1,0,0.1,0,0.2C2,0.9,1.9,1,1.9,1L1.6,1C1.6,0.9,1.5,0.8,1.5,0.7L1.5,0.7z M1.9,1.1c0.1,0,0.1,0,0.2,0
							c0.1,0,0.1,0.1,0.1,0.1c0,0,0,0.1,0,0.1c0,0.1-0.1,0.1-0.2,0.1L1.7,1.5c0-0.1-0.1-0.2-0.1-0.4C1.7,1.1,1.8,1.1,1.9,1.1
							L1.9,1.1z"/>
						<path id="Trazado_17563" class="st2" d="M3.5,1.3c0,0,0-0.1,0-0.1C3.2,1.2,3,1.2,2.8,1.3c0-0.1-0.1-0.2-0.1-0.4
							c0.2,0,0.4-0.1,0.6-0.1c0,0,0-0.1,0-0.1c-0.2,0-0.4,0.1-0.6,0.1c0-0.1,0-0.2-0.1-0.3c0.2,0,0.5-0.1,0.7-0.1c0,0,0-0.1,0-0.1
							C3,0.3,2.7,0.3,2.4,0.4c0.1,0.3,0.2,0.7,0.3,1C2.9,1.3,3.2,1.3,3.5,1.3L3.5,1.3z"/>
						<path id="Trazado_17564" class="st2" d="M18.7,0.4c0-0.1,0-0.2-0.1-0.3c-0.1,0-0.1,0-0.2,0c-0.2,0-0.4,0-0.5,0
							c0,0.3,0,0.7,0,1c0.1,0,0.1,0,0.1,0c0-0.1,0-0.3,0-0.4c0.1,0,0.2,0,0.3,0c0,0,0.1,0,0.1,0c0,0,0.1,0.1,0.1,0.1
							c0,0.1,0,0.1,0,0.2v0.1l0,0c0.1,0,0.1,0,0.2,0v0c0,0,0,0,0-0.1c0,0,0-0.1,0-0.1c0,0,0-0.1,0-0.1c0,0,0-0.1,0-0.1
							c0,0-0.1-0.1-0.1-0.1c0,0,0.1,0,0.1-0.1C18.7,0.5,18.7,0.5,18.7,0.4L18.7,0.4z M18.5,0.6c-0.1,0-0.1,0-0.2,0
							c-0.1,0-0.2,0-0.4,0c0-0.1,0-0.2,0-0.4c0.1,0,0.3,0,0.4,0c0,0,0.1,0,0.1,0c0.1,0,0.1,0.1,0.1,0.2C18.5,0.5,18.5,0.5,18.5,0.6
							L18.5,0.6z"/>
						<path id="Trazado_17565" class="st2" d="M19.4,0.2c-0.2,0-0.3,0-0.5-0.1c0,0.3-0.1,0.7-0.1,1c0.1,0,0.3,0,0.4,0
							c0.2,0,0.3,0,0.4-0.2c0.1-0.1,0.1-0.2,0.1-0.3c0-0.1,0-0.2-0.1-0.4C19.7,0.3,19.6,0.2,19.4,0.2L19.4,0.2z M19.7,0.8
							c0,0,0,0.1,0,0.1c0,0.1,0,0.1-0.1,0.1c0,0-0.1,0.1-0.2,0.1c0,0-0.1,0-0.1,0c-0.1,0-0.2,0-0.3,0c0-0.3,0.1-0.5,0.1-0.8l0.3,0
							c0.1,0,0.2,0.1,0.3,0.1C19.7,0.6,19.7,0.7,19.7,0.8L19.7,0.8z"/>
						<path id="Trazado_17566" class="st2" d="M20.2,0.5c0.2,0,0.4,0.1,0.7,0.1c0,0,0-0.1,0-0.1c-0.3-0.1-0.5-0.1-0.8-0.2
							C20,0.7,20,1,19.9,1.3c0.3,0,0.5,0.1,0.8,0.2c0,0,0-0.1,0-0.1c-0.2,0-0.4-0.1-0.6-0.1c0-0.1,0-0.2,0.1-0.3
							c0.2,0,0.4,0.1,0.6,0.1c0,0,0-0.1,0-0.1c-0.2,0-0.4-0.1-0.6-0.1C20.2,0.7,20.2,0.6,20.2,0.5L20.2,0.5z"/>
						<path id="Trazado_17567" class="st2" d="M21.6,1.6c-0.1-0.3-0.2-0.6-0.3-1c-0.1,0-0.1,0-0.2,0c-0.1,0.3-0.2,0.7-0.3,1
							c0,0,0.1,0,0.1,0c0.1-0.3,0.1-0.5,0.2-0.8c0.1,0.3,0.2,0.6,0.3,1c0.1,0,0.1,0,0.2,0c0.1-0.3,0.2-0.7,0.3-1c0,0-0.1,0-0.1,0
							C21.8,1,21.7,1.3,21.6,1.6L21.6,1.6z"/>
						<path id="Trazado_17568" class="st2" d="M15.8,0.2c-0.1,0.2-0.2,0.4-0.3,0.5c-0.1-0.1-0.3-0.3-0.4-0.4l-0.2,0
							c0.2,0.2,0.4,0.4,0.5,0.5c0,0.1,0,0.3,0.1,0.4l0.1,0c0-0.1,0-0.3-0.1-0.4c0.1-0.2,0.2-0.4,0.4-0.7L15.8,0.2z"/>
						<path id="Trazado_17569" class="st2" d="M17,0.1c-0.2,0-0.3,0.1-0.4,0.2c-0.1,0.1-0.1,0.2-0.1,0.4c0,0.1,0.1,0.3,0.2,0.4
							c0.1,0.1,0.3,0.1,0.4,0.1c0.2,0,0.3-0.1,0.4-0.2c0.1-0.1,0.1-0.2,0.1-0.4c0-0.1,0-0.3-0.1-0.4C17.4,0.1,17.2,0.1,17,0.1
							L17,0.1z M17.3,0.9C17.3,1,17.2,1,17.1,1c-0.1,0-0.2,0-0.3-0.1c-0.1-0.1-0.1-0.2-0.1-0.3c0-0.1,0-0.2,0.1-0.3
							c0.1-0.1,0.2-0.1,0.3-0.1c0.1,0,0.2,0,0.3,0.1c0.1,0.1,0.1,0.2,0.1,0.3C17.4,0.7,17.4,0.8,17.3,0.9L17.3,0.9z"/>
						<path id="Trazado_17570" class="st2" d="M4.6,1.1C4.6,1.1,4.5,1.1,4.6,1.1C4.5,1,4.5,1,4.5,0.9c0,0,0-0.1,0-0.1
							c0,0,0-0.1,0-0.1c0,0-0.1,0-0.1-0.1c0,0,0.1-0.1,0.1-0.1c0,0,0-0.1,0-0.2c0-0.1-0.1-0.2-0.2-0.2c-0.1,0-0.2,0-0.2,0
							c-0.2,0-0.4,0-0.6,0.1c0.1,0.3,0.1,0.7,0.2,1l0.1,0c0-0.1,0-0.3-0.1-0.5l0.4,0c0,0,0.1,0,0.1,0c0.1,0,0.1,0.1,0.1,0.1
							c0,0.1,0,0.1,0,0.2c0,0,0,0.1,0,0.1l0,0C4.5,1.1,4.5,1.1,4.6,1.1L4.6,1.1L4.6,1.1z M4.3,0.5c-0.1,0-0.1,0.1-0.2,0.1
							c-0.1,0-0.2,0-0.4,0c0-0.1,0-0.2-0.1-0.4c0.1,0,0.3,0,0.4,0c0,0,0.1,0,0.1,0c0.1,0,0.1,0.1,0.1,0.1C4.3,0.4,4.3,0.5,4.3,0.5
							L4.3,0.5z"/>
						<path id="Trazado_17571" class="st2" d="M5,0.1C5,0.5,5,0.8,5,1.1c0.1,0,0.1,0,0.2,0c0-0.3,0-0.6-0.1-0.9c0.1,0,0.3,0,0.4,0
							c0,0,0-0.1,0-0.1c-0.3,0-0.7,0-1,0c0,0,0,0.1,0,0.1C4.7,0.2,4.8,0.2,5,0.1L5,0.1z"/>
						<path id="Trazado_17572" class="st2" d="M5.7,1.1l0.1-0.3c0.2,0,0.3,0,0.5,0c0,0.1,0.1,0.2,0.1,0.3c0.1,0,0.1,0,0.2,0
							C6.4,0.7,6.3,0.4,6.1,0H5.9C5.8,0.4,5.6,0.7,5.5,1.1L5.7,1.1L5.7,1.1z M6,0.2c0.1,0.2,0.1,0.3,0.2,0.5c-0.1,0-0.2,0-0.4,0
							C5.9,0.5,6,0.3,6,0.2L6,0.2z"/>
						<path id="Trazado_17573" class="st2" d="M7.6,0.9c0.1-0.1,0.1-0.2,0.1-0.3c0-0.1,0-0.3-0.1-0.4C7.5,0.1,7.4,0.1,7.2,0.1
							C7.1,0,6.9,0,6.7,0c0,0.4,0,0.7,0,1.1c0.2,0,0.3,0,0.5,0C7.3,1.2,7.5,1.1,7.6,0.9L7.6,0.9z M6.9,1c0-0.3,0-0.5,0-0.8
							c0.1,0,0.2,0,0.3,0c0.1,0,0.2,0.1,0.3,0.1c0.1,0.1,0.1,0.2,0.1,0.3c0,0,0,0.1,0,0.1c0,0.1,0,0.1-0.1,0.2C7.4,1,7.3,1,7.3,1
							c0,0-0.1,0-0.1,0L6.9,1L6.9,1z"/>
					</g>
					<path id="Trazado_17574" class="st2" d="M17.7,6.1c-0.1-0.1-0.1-0.3,0-0.4c0,0,0-0.1,0.1-0.1c0,0,0.1,0,0.1-0.1
						c-0.1,0.1-0.3,0.1-0.4,0c0,0,0,0,0-0.1c-0.1-0.2,0-0.3,0.2-0.4c0,0,0,0,0,0c-0.1,0-0.2,0.1-0.4,0.1c-0.1,0.1-0.3,0-0.4,0
						c-0.1-0.1-0.1-0.2-0.1-0.3c0.1-0.1,0.1-0.2,0.2-0.3c-0.2,0-0.4,0.2-0.6,0.2s-0.2-0.3-0.1-0.5s0.3-0.3,0.4-0.5
						c-0.3,0.1-0.6,0.3-0.9,0.3c-0.1,0-0.2,0-0.3,0c-0.1-0.1-0.1-0.2,0-0.2L15,4c-0.1,0-0.2,0.1-0.3,0c-0.1,0-0.2-0.2-0.1-0.3
						C14.4,3.9,14.2,4,14,4c-0.1,0-0.2-0.1-0.3-0.2c-0.1-0.1,0-0.2,0.1-0.3c-0.2,0.1-0.3,0.3-0.3,0.5c0.1,0.1,0.2,0.2,0.4,0.2
						c0.2,0,0.3-0.1,0.4-0.2c0,0.1,0.1,0.2,0.2,0.3c-0.3,0.3-0.6,0.6-0.8,1c-0.1,0.1-0.1,0.2-0.1,0.3c0,0.1,0.1,0.2,0.2,0.3
						c0.1,0.1,0.2,0,0.3-0.1c0,0,0,0,0,0c0,0.1,0,0.3,0.1,0.3c0.1,0.1,0.3,0.1,0.4,0c0,0.1,0,0.3,0.1,0.4c0.1,0.1,0.2,0.2,0.4,0.2
						c-0.2,0.1,0.5,0.8,0.5,0.3c0-0.2-0.2-0.3-0.2-0.5c0-0.2,0.1-0.4,0.3-0.6c0.1-0.2,0.2-0.4,0.4-0.6c-0.3,0.4-0.6,0.9-0.8,1.3
						c-0.2-0.3-0.1-0.7,0.1-1c0.2-0.3,0.3-0.6,0.5-0.9c-0.5,0.3-0.6,0.9-1,1.3c0,0.1-0.1,0.1-0.2,0.1c0-0.6,0.2-1.1,0.6-1.6
						c-0.3,0.3-0.6,0.6-0.8,0.9c-0.1,0.1-0.2,0.2-0.3,0.2c-0.1-0.3,0-0.6,0.2-0.8c0.1-0.2,0.3-0.4,0.4-0.6c0,0,0.1,0,0.1,0
						c0.2,0,0.4-0.1,0.5-0.2c0,0.1,0.1,0.1,0.2,0.1c0.2,0,0.4,0,0.6,0C16,4.4,16,4.6,16,4.8C16.2,5,16.4,5.1,16.5,5
						c-0.1,0.2-0.1,0.4,0.1,0.5c0,0,0.1,0,0.1,0c0.2,0,0.4,0,0.5-0.2c0,0,0,0.1,0,0.1c0,0,0,0.1,0,0.1c0,0.1,0,0.2,0,0.3
						c0,0,0.1,0.1,0.1,0.1c0,0,0,0,0.1,0c0.1,0,0.1,0,0.2-0.1c0,0.1-0.1,0.1-0.1,0.2c0,0.1-0.1,0.1-0.1,0.2c0,0.2,0.1,0.3,0.3,0.3
						c0.1,0,0.2,0,0.2,0c0.2-0.1,0.3-0.3,0.3-0.5C18.1,6.3,17.9,6.3,17.7,6.1C17.7,6.1,17.7,6.1,17.7,6.1L17.7,6.1z"/>
					<path id="Trazado_17575" class="st2" d="M32.9,2.7C32.9,2.7,32.9,2.6,32.9,2.7c0.1,0,0.2-0.1,0.2-0.2c0-0.1,0-0.1,0-0.2
						c0-0.1-0.1-0.1-0.1-0.2c0,0-0.1,0-0.1-0.1c-0.1,0-0.1,0-0.2-0.1c0.1,0,0.1,0.1,0.1,0.1c0,0.1,0,0.1,0,0.2c-0.1,0-0.1,0-0.2,0
						l-0.4-0.1c0.2,0.1,0.3,0.2,0.5,0.3C32.7,2.7,32.8,2.7,32.9,2.7L32.9,2.7z"/>
					<path id="Trazado_17576" class="st2" d="M30.5,6.6c0,0.1,0.1,0.1,0.1,0.2C30.5,6.7,30.5,6.6,30.5,6.6
						C30.5,6.5,30.5,6.6,30.5,6.6L30.5,6.6z"/>
					<path id="Trazado_17577" class="st2" d="M30,6.6L30,6.6L30,6.6z"/>
					<path id="Trazado_17578" class="st2" d="M7.1,7.2c0.3-0.1,0.6,0,0.9-0.1c0.2-0.1,0.3-0.2,0.4-0.4c0.2-0.3,0.5-0.6,0.7-0.9
						C8.8,6.2,8.4,6.4,8,6.7C7.9,6.7,7.8,6.8,7.7,6.8c-0.1,0-0.2-0.1-0.2-0.2c0,0,0-0.1,0.1-0.1c0.1-0.1,0.2-0.2,0.3-0.3
						C7,6.7,6.2,7.4,5.4,8.2C5,8.6,4.1,9.2,4.2,9.8c0.4-0.1,0.8-0.7,1.1-1c0.5-0.5,1-0.9,1.4-1.4C6.8,7.4,6.9,7.3,7.1,7.2L7.1,7.2z"
						/>
					<path id="Trazado_17579" class="st2" d="M9.3,5.3c0.1,0,0.2,0,0.3,0.1c0.3,0.1,0.6,0,0.9-0.2c0.3-0.2,0.5-0.4,0.7-0.6
						C11,4.8,10.8,5,10.5,5.1c-0.1,0-0.2,0.1-0.3,0.1C10.1,5.2,10,5.1,9.9,5c0-0.1,0-0.2,0-0.2c0.1-0.2,0.2-0.3,0.4-0.4
						C9.9,4.6,8.6,5.2,8.5,5.7c0.2,0,0.3-0.2,0.5-0.3C9.1,5.4,9.2,5.4,9.3,5.3L9.3,5.3z"/>
					<path id="Trazado_17580" class="st2" d="M8.2,9.3c0-0.1,0.1-0.1,0.1-0.2C8.3,9.1,8.3,9.2,8.2,9.3c-0.1,0-0.1,0-0.2,0
						C7.9,9.4,7.7,9.4,7.6,9.4c-0.1,0-0.2,0-0.2,0c-0.1,0-0.2,0-0.3,0C7,9.3,7,9.2,7,9.2c0,0,0,0,0-0.1C7,9,7.1,8.9,7.2,8.8
						C6.9,9,6.6,9.2,6.2,9.2c-0.1,0-0.1,0-0.2,0C5.9,9.2,6,9,6.1,8.9c0.3-0.4,0.6-0.8,1-1.2C6.7,8,6.3,8.3,6,8.7
						C5.8,8.9,5.7,9.1,5.7,9.3C5.8,9.4,6,9.5,6.2,9.5c0.2,0,0.4-0.1,0.5-0.2l0.2-0.1C6.9,9.3,6.8,9.4,6.8,9.6c0,0.1,0.1,0.2,0.2,0.2
						c0.1,0,0.2,0,0.2,0C7.6,9.7,8,9.5,8.2,9.3C8.2,9.3,8.2,9.3,8.2,9.3L8.2,9.3z"/>
					<path id="Trazado_17581" class="st2" d="M8.2,9.4L8.2,9.4c-0.1,0.1-0.1,0.2,0,0.3c0.1,0.1,0.2,0.2,0.3,0.2
						c0.1,0,0.3-0.1,0.4-0.2c0.3-0.2,0.6-0.5,0.8-0.9C9.3,9,8.9,9.3,8.5,9.4C8.4,9.5,8.2,9.5,8.2,9.4z"/>
					<path id="Trazado_17582" class="st2" d="M8.8,8.6c0.3-0.2,0.6-0.4,0.8-0.7c-0.3-0.1-0.8,0.4-1,0.6C8.5,8.6,8.4,8.7,8.4,8.9
						C8.5,8.8,8.7,8.7,8.8,8.6L8.8,8.6z"/>
					<path id="Trazado_17583" class="st2" d="M10.8,8.3C10.7,8,9.9,8.7,9.9,8.8S9.7,9,9.7,9.1C9.9,9,10.8,8.6,10.8,8.3L10.8,8.3z"/>
					<path id="Trazado_17584" class="st2" d="M30.5,6.6c0,0.1,0.1,0.1,0.1,0.2C30.5,6.7,30.5,6.6,30.5,6.6
						C30.5,6.5,30.5,6.6,30.5,6.6L30.5,6.6z"/>
					<path id="Trazado_17585" class="st2" d="M30,6.6L30,6.6L30,6.6z"/>
					<path id="Trazado_17586" class="st2" d="M11.8,3.7c0.1,0,0.1,0,0.2,0c0.1,0,0.3-0.1,0.4-0.1c-0.1-0.2-0.1-0.3,0.1-0.5
						c0.3-0.3,0.7-0.6,1.1-0.7c-0.1,0-0.1,0-0.1-0.1c0-0.1,0-0.1,0.1-0.2c0.3-0.3,0.7-0.6,1.1-0.7c0,0,0.1,0,0.1,0c0,0,0.1,0,0.1,0
						c0.1,0,0.1,0,0.2,0c0.1,0,0.3-0.1,0.3-0.2c0,0,0,0,0,0s0-0.1,0-0.1C15.4,1.1,15.5,1,15.5,1c0,0,0,0,0,0c-0.1,0-0.2,0.1-0.2,0.1
						c0,0-0.4,0.2-0.4,0.2c-0.3,0.1-0.6,0.2-0.9,0.3c-0.3,0.1-0.6,0.3-0.8,0.5C13,2.1,13,2.1,13,2.2c0,0.1,0,0.2,0.1,0.2
						c-0.5,0.2-1,0.5-1.3,1C11.7,3.5,11.7,3.6,11.8,3.7L11.8,3.7z"/>
					<path id="Trazado_17587" class="st2" d="M10.9,6c0.1,0,0.2-0.1,0.3-0.2c0,0,0.1,0,0.1,0s0,0.1,0,0.1c0,0.2,0.2,0.3,0.3,0.3
						c0.2,0,0.3,0,0.4-0.1l0,0.1c0.1,0.1,0.2,0.2,0.3,0.1c0.1,0,0.2,0,0.3-0.1c0.1,0,0.3-0.1,0.4-0.2c-0.1,0.1-0.2,0.1-0.3,0.1
						c-0.1,0-0.2-0.1-0.2-0.3c0-0.1,0.1-0.2,0.2-0.3c-0.2,0.1-0.4,0.2-0.6,0.3c-0.1,0-0.2,0-0.3,0c-0.1,0-0.2-0.1-0.2-0.2
						c0-0.1,0-0.1,0.1-0.1c0.1-0.1,0.1-0.1,0.2-0.1c-0.2,0.1-0.4,0.1-0.5,0.2c-0.1,0.1-0.3,0.1-0.4,0.1c-0.1,0-0.3-0.1-0.3-0.2
						c0-0.1,0-0.1,0-0.2c0,0,0,0-0.1,0c-0.1,0.1-0.2,0.2-0.2,0.3c-0.1,0.1,0,0.2,0,0.3C10.7,6,10.8,6,10.9,6L10.9,6z"/>
					<path id="Trazado_17588" class="st2" d="M14.7,1.9c0-0.1,0.1-0.2,0.2-0.2c-0.2,0.1-0.4,0.2-0.5,0.4c0,0,0,0.1,0,0.1
						c0,0,0,0,0,0c0.2,0,0.3,0,0.5,0c-0.1,0-0.1,0-0.2,0C14.7,2.1,14.7,2,14.7,1.9L14.7,1.9z"/>
					<path id="Trazado_17589" class="st2" d="M40.3,6.8c-0.1,0-0.2,0-0.3-0.1c-0.4-0.2-0.8-0.5-1.1-0.8c0.2,0.3,0.5,0.6,0.7,0.9
						C39.7,7,39.8,7.1,40,7.2c0.3,0.1,0.6,0,0.9,0.1c0.1,0.1,0.3,0.2,0.4,0.3c0.5,0.5,1,0.9,1.4,1.4c0.3,0.3,0.7,0.9,1.1,1
						c0-0.6-0.8-1.3-1.2-1.7c-0.8-0.8-1.6-1.4-2.5-2c0.1,0.1,0.2,0.2,0.3,0.3c0,0,0.1,0.1,0.1,0.1C40.5,6.7,40.4,6.8,40.3,6.8
						L40.3,6.8z"/>
					<path id="Trazado_17590" class="st2" d="M37.4,5.3c0.3,0.2,0.6,0.2,0.9,0.2c0.1,0,0.2-0.1,0.3-0.1c0.1,0,0.2,0,0.3,0.1
						c0.1,0.1,0.3,0.2,0.5,0.3c-0.1-0.6-1.4-1.1-1.9-1.3c0.2,0.1,0.3,0.2,0.4,0.4C38,4.9,38,5,38,5c0,0.1-0.1,0.2-0.2,0.2
						c-0.1,0-0.2,0-0.3-0.1c-0.3-0.1-0.6-0.3-0.8-0.4C36.9,4.9,37.1,5.1,37.4,5.3L37.4,5.3z"/>
					<path id="Trazado_17591" class="st2" d="M36.1,5.6c0,0,0.1,0.1,0.1,0.1c0,0.1-0.1,0.2-0.2,0.2c-0.1,0-0.2,0-0.3,0
						c-0.2-0.1-0.4-0.2-0.6-0.3c0.1,0.1,0.1,0.2,0.2,0.3c0,0.1,0,0.2-0.2,0.3c-0.1,0-0.2-0.1-0.3-0.1c0.1,0.1,0.2,0.2,0.4,0.2
						c0.1,0,0.2,0.1,0.3,0.1c0.1,0,0.2-0.1,0.3-0.2c0-0.1,0,0,0.1,0c0.1,0.1,0.2,0.1,0.3,0.1c0.2,0,0.3-0.1,0.3-0.3c0,0,0-0.1,0-0.1
						s0.1,0,0.1,0C36.8,6,36.9,6,37,6.1c0.1,0,0.3,0,0.4-0.1c0.1-0.1,0.1-0.2,0-0.3c-0.1-0.1-0.1-0.2-0.2-0.3c0,0,0,0-0.1,0
						c0,0.1,0,0.1,0,0.2c0,0.1-0.2,0.2-0.3,0.2c-0.1,0-0.3,0-0.4-0.1l-0.6-0.3C35.9,5.4,36,5.5,36.1,5.6z"/>
					<path id="Trazado_17592" class="st2" d="M41.8,9.5c0.2,0,0.4-0.1,0.4-0.2c0-0.2-0.1-0.4-0.2-0.5c-0.3-0.4-0.7-0.7-1.1-1
						c0.4,0.3,0.7,0.7,1,1.2c0.1,0.1,0.1,0.2,0,0.3c-0.1,0-0.1,0-0.2,0c-0.3-0.1-0.7-0.2-1-0.4c0.1,0,0.1,0.1,0.1,0.2
						c0,0,0.1,0.1,0.1,0.1l0.3,0.1C41.4,9.5,41.6,9.5,41.8,9.5z"/>
					<path id="Trazado_17593" class="st2" d="M39.2,7.4L39.2,7.4c0,0,0.1,0,0.1,0c0,0,0.1,0,0.1,0c0.1-0.1,0.1-0.2,0-0.3
						c-0.1-0.2-0.3-0.4-0.5-0.5c0.1,0.1,0.3,0.4,0.1,0.5c0,0-0.1,0-0.1,0c-0.3,0-0.6-0.1-0.8-0.2c0.1,0.1,0,0.2-0.1,0.3
						c-0.2,0.1-0.3,0.1-0.5,0c-0.4-0.1-0.8-0.3-1.2-0.5c0.2,0.1,0.4,0.3,0.6,0.5c0.1,0.1,0.1,0.1,0.1,0.2c0,0.2-0.3,0.2-0.4,0.2
						c-0.4-0.1-0.9-0.2-1.2-0.4c0.2,0.1,0.4,0.3,0.6,0.6c0,0,0.1,0.1,0.1,0.2c0,0.1-0.2,0.1-0.3,0.1c-0.5-0.1-0.9-0.2-1.3-0.4
						c0,0.2-0.1,0.4-0.4,0.5c0,0,0,0-0.1,0c0.1,0.1,0.3,0.1,0.4,0c0.1,0,0.1-0.1,0.2-0.1c0.1,0,0.2,0,0.2,0.1
						c0.3,0.2,0.8,0.3,1.2,0.3c0.1,0,0.2-0.1,0.3-0.1c0.1-0.2-0.2-0.4-0.3-0.6c0.2,0.1,0.5,0.2,0.7,0.2c0.1,0,0.3,0,0.4,0
						c0.1-0.1,0.2-0.2,0.1-0.3c0,0,0,0,0,0c0.2,0.2,0.4,0.3,0.7,0.3c0.3,0,0.5-0.3,0.4-0.5c0.2,0.1,0.4,0.2,0.6,0.2c0,0,0,0,0,0
						c0.1-0.1,1.3,1.2,1.6,1.1C40.4,8,39.6,7.7,39.2,7.4L39.2,7.4z"/>
					<path id="Trazado_17594" class="st2" d="M38.3,7.9c0.2,0.3,0.5,0.5,0.8,0.7c0.1,0.1,0.3,0.2,0.4,0.3c0-0.1-0.1-0.3-0.2-0.4
						C39.2,8.3,38.7,7.8,38.3,7.9L38.3,7.9z"/>
					<path id="Trazado_17595" class="st2" d="M37.2,8.4c0,0.2,0.8,0.7,1,0.7c0.1-0.1,0-0.2-0.1-0.3S37.3,8,37.2,8.4L37.2,8.4z"/>
					<path id="Trazado_17596" class="st2" d="M33.5,2.2C33.5,2.2,33.6,2.2,33.5,2.2c0.1,0,0.1-0.1,0-0.1c-0.1-0.2-0.3-0.4-0.5-0.4
						c0.1,0.1,0.1,0.1,0.2,0.2c0,0.1,0,0.2-0.1,0.3c0,0-0.1,0.1-0.2,0C33.2,2.2,33.4,2.2,33.5,2.2L33.5,2.2z"/>
					<path id="Trazado_17597" class="st2" d="M30,6.6L30,6.6L30,6.6z"/>
					<path id="Trazado_17598" class="st2" d="M10.9,6c0.1,0,0.2-0.1,0.3-0.2c0,0,0.1,0,0.1,0s0,0.1,0,0.1c0,0.2,0.2,0.3,0.3,0.3
						c0.2,0,0.3,0,0.4-0.1l0,0.1c0.1,0.1,0.2,0.2,0.3,0.1c0.1,0,0.2,0,0.3-0.1c0.1,0,0.3-0.1,0.4-0.2c-0.1,0.1-0.2,0.1-0.3,0.1
						c-0.1,0-0.2-0.1-0.2-0.3c0-0.1,0.1-0.2,0.2-0.3c-0.2,0.1-0.4,0.2-0.6,0.3c-0.1,0-0.2,0-0.3,0c-0.1,0-0.2-0.1-0.2-0.2
						c0-0.1,0-0.1,0.1-0.1c0.1-0.1,0.1-0.1,0.2-0.1c-0.2,0.1-0.4,0.1-0.5,0.2c-0.1,0.1-0.3,0.1-0.4,0.1c-0.1,0-0.3-0.1-0.3-0.2
						c0-0.1,0-0.1,0-0.2c0,0,0,0-0.1,0c-0.1,0.1-0.2,0.2-0.2,0.3c-0.1,0.1,0,0.2,0,0.3C10.7,6,10.8,6,10.9,6L10.9,6z"/>
					<path id="Trazado_17599" class="st2" d="M14.7,1.9c0-0.1,0.1-0.2,0.2-0.2c-0.2,0.1-0.4,0.2-0.5,0.4c0,0,0,0.1,0,0.1
						c0,0,0,0,0,0c0.2,0,0.3,0,0.5,0c-0.1,0-0.1,0-0.2,0C14.7,2.1,14.7,2,14.7,1.9L14.7,1.9z"/>
					<path id="Trazado_17600" class="st2" d="M11.8,3.7c0.1,0,0.1,0,0.2,0c0.1,0,0.3-0.1,0.4-0.1c-0.1-0.2-0.1-0.3,0.1-0.5
						c0.3-0.3,0.7-0.6,1.1-0.7c-0.1,0-0.1,0-0.1-0.1c0-0.1,0-0.1,0.1-0.2c0.3-0.3,0.7-0.6,1.1-0.7c0,0,0.1,0,0.1,0c0,0,0.1,0,0.1,0
						c0.1,0,0.1,0,0.2,0c0.1,0,0.3-0.1,0.3-0.2c0,0,0,0,0,0s0-0.1,0-0.1C15.4,1.1,15.5,1,15.5,1c0,0,0,0,0,0c-0.1,0-0.2,0.1-0.2,0.1
						c0,0-0.4,0.2-0.4,0.2c-0.3,0.1-0.6,0.2-0.9,0.3c-0.3,0.1-0.6,0.3-0.8,0.5C13,2.1,13,2.1,13,2.2c0,0.1,0,0.2,0.1,0.2
						c-0.5,0.2-1,0.5-1.3,1C11.7,3.5,11.7,3.6,11.8,3.7L11.8,3.7z"/>
					<path id="Trazado_17601" class="st2" d="M17.7,3c0,0,0.1-0.1,0.1-0.1C17.8,3,17.8,3,17.7,3z"/>
					<path id="Trazado_17602" class="st2" d="M18.3,5.2c0,0.1-0.1,0.2-0.1,0.2c0,0.1,0.1,0.2,0.1,0.2c-0.1,0.2-0.3,0.7,0.1,0.6l0,0
						c0-0.2-0.1-0.2,0-0.4c0.1-0.2,0.2-0.4,0.4-0.5c-0.1,0.1-0.2,0.2-0.3,0.2c-0.1,0-0.1-0.1-0.1-0.2c0-0.1,0-0.2,0.1-0.2
						c0.1-0.2,0.2-0.4,0.4-0.5C18.6,4.7,18.4,4.9,18.3,5.2L18.3,5.2z"/>
					<path id="Trazado_17603" class="st2" d="M27.8,6c0.2-0.3,0.2-0.6,0.1-0.9c0.2-0.1,0.3-0.4,0.3-0.6c0-0.1-0.1-0.2-0.1-0.2
						c-0.1-0.1-0.2-0.1-0.2-0.1c0,0,0,0,0,0h0c0,0,0.1,0,0.1,0c0,0,0.1,0,0.1,0c0,0,0,0,0-0.1c0,0,0-0.1,0-0.1
						c0-0.2-0.1-0.5-0.3-0.7c0.1,0.1,0.1,0.1,0.2,0.2c0,0,0,0,0.1,0.1c0,0,0.1,0,0.1,0c0,0,0.1-0.1,0.1-0.1c0-0.1,0-0.1-0.1-0.2
						C28,3.1,28,3,27.9,2.9c0,0-0.1-0.2-0.2-0.2c0,0,0.1,0,0.1,0c0.1,0.1,0.2,0.1,0.3,0.1c0,0,0,0,0,0c0,0,0,0,0,0
						c0-0.1,0.1-0.2,0.1-0.2c0-0.2-0.1-0.4-0.3-0.6c0.1,0.1,0.3,0.2,0.5,0.2c0.1,0,0.3,0,0.3-0.1c0,0,0-0.1,0-0.1
						c-0.1-0.1-0.1-0.2-0.2-0.3c0,0,0,0,0,0c0,0,0,0,0,0c0,0,0,0.1-0.1,0.1c0,0-0.1,0.1-0.1,0.1c0,0-0.1,0-0.1,0
						c-0.1,0-0.3,0-0.4-0.1C27.9,1.8,28,1.9,28.1,2c0.1,0.1,0.1,0.2,0.1,0.3c0,0.1,0,0.1-0.1,0.2c0,0-0.1,0.1-0.1,0.1
						c0,0-0.1,0-0.1,0c-0.1,0-0.1-0.1-0.2-0.2c0,0-0.1-0.1-0.1,0c0,0.2,0.1,0.4,0.2,0.6c0,0,0,0,0,0c0.1,0.1,0.1,0.1,0.1,0.2
						c0,0,0,0.1-0.1,0.1c0,0,0,0,0,0c0,0-0.1-0.1-0.1-0.1c0-0.1-0.1-0.1-0.1-0.1c0,0.3,0.1,0.5,0.3,0.7c0,0,0,0.1,0,0.1
						c0,0.1-0.2-0.1-0.2,0.1s0.1,0.2,0.2,0.3C27.9,4.4,28,4.5,28,4.6c0,0.1,0,0.1-0.1,0.2c0,0-0.1,0-0.1,0c0,0-0.1-0.1-0.1-0.1
						c-0.1-0.2-0.1-0.3-0.2-0.5c0-0.2-0.1-0.3-0.1-0.5c-0.1-0.3-0.1-0.7,0-1c0-0.3,0-0.6,0.2-0.9c0.2-0.3,0.4-0.5,0.7-0.7
						C28.3,1,28.4,1,28.4,1c-0.1,0-0.2,0-0.3,0.1c-0.4,0.1-0.7,0.5-0.9,0.9c0,0.1,0,0.2,0,0.3v0c0,0.2,0,0.4,0,0.6
						c0,0.3,0,0.6,0.1,0.9c0.1,0.3,0.2,0.6,0.3,0.9c0.1,0.3,0.1,0.6,0,0.9c-0.1,0.2-0.8,0.5-0.7,0.7C26.9,6.4,27.6,6.2,27.8,6
						L27.8,6z"/>
					<path id="Trazado_17604" class="st2" d="M15.5,1.6c-0.1,0-0.1-0.2,0-0.2c-0.1,0-0.2,0.1-0.2,0.1c-0.1,0.1-0.1,0.2-0.1,0.2
						c0,0.1,0.2,0.2,0.3,0.2c0.3,0,0.7-0.2,0.9-0.4l0,0.1c-0.1,0.1-0.1,0.2,0,0.3c0.1,0.1,0.3,0.1,0.4,0.1c0.2-0.1,0.5-0.2,0.6-0.4
						c-0.1,0.1-0.1,0.1-0.1,0.2c0,0.1,0,0.2,0.1,0.2c0,0,0.1,0,0.1,0c0.3,0,0.5-0.2,0.7-0.4c-0.1,0.1-0.4,0.1-0.5,0
						c-0.1-0.1,0-0.2-0.1-0.3c-0.2-0.2-0.7,0.3-1,0.1c0.1-0.1,0.2-0.3,0.3-0.3l0,0c-0.3,0.2-0.7,0.4-1.1,0.6
						C15.7,1.6,15.6,1.6,15.5,1.6L15.5,1.6z"/>
					<path id="Trazado_17605" class="st2" d="M18.5,1.8C18.6,1.8,18.6,1.8,18.5,1.8c0.4,0,0.7-0.1,0.9-0.3c0,0,0-0.1,0-0.1
						c0.1-0.1,0.2-0.2,0.3-0.2c-0.2,0.1-0.3,0.2-0.5,0.3c-0.1,0.1-0.3,0.1-0.4,0c-0.1-0.1-0.1-0.2,0-0.3C18.9,1.1,19,1,19.1,0.9
						c-0.2,0.1-0.3,0.2-0.4,0.3C18.5,1.3,18.4,1.5,18.5,1.8C18.5,1.7,18.5,1.8,18.5,1.8L18.5,1.8z"/>
					<path id="Trazado_17606" class="st2" d="M20.1,1.4c0.1,0.1,0.2,0.3,0.1,0.5c0,0.2-0.2,0.3-0.3,0.3c0,0-0.1,0-0.1-0.1
						c0,0,0-0.1,0-0.1c0.1-0.1,0.2-0.2,0.3-0.3c-0.1,0.1-0.3,0.1-0.4,0.1c-0.1,0-0.2,0-0.2,0c-0.1-0.1-0.1-0.1-0.1-0.2
						c-0.1,0.1-0.2,0.2-0.2,0.3c0,0,0,0.1,0,0.1c0,0.1,0.2,0.1,0.3,0.1c0.2,0,0.4,0,0.5-0.2c-0.1,0.1-0.1,0.2-0.2,0.4
						c0,0.1-0.1,0.1-0.1,0.2c0,0.1,0.1,0.2,0.3,0.2c0.1,0,0.2-0.1,0.3-0.2c0.1-0.1,0.2-0.2,0.3-0.2c0.1,0.1,0.1,0.3,0.1,0.4
						c0.1-0.1,0.1-0.2,0.1-0.3c0-0.1,0-0.2,0-0.3c-0.1-0.4-0.4-0.8-0.9-0.9C19.7,1,19.6,1,19.5,1C19.7,1.1,19.9,1.2,20.1,1.4
						L20.1,1.4z"/>
					<path id="Trazado_17607" class="st2" d="M16.9,2.3c0.1,0.1-0.1,0.2,0,0.3s0.2,0.1,0.3,0.1c0.3-0.1,0.6-0.2,0.8-0.4
						c-0.2,0.1-0.5,0.2-0.8,0.3c0,0-0.1,0-0.1,0c0,0,0-0.1,0-0.1c0-0.1,0-0.2,0-0.3l-0.9,0c-0.1,0-0.1,0.1-0.2,0.2c0,0,0,0,0,0.1
						c0,0,0.1,0,0.1,0C16.3,2.4,16.9,2.3,16.9,2.3L16.9,2.3z"/>
					<path id="Trazado_17608" class="st2" d="M18.4,3.1c-0.1,0.1-0.3,0.2-0.5,0.2c-0.1,0-0.1,0-0.2,0c-0.1-0.1-0.1-0.2,0-0.2
						c0,0,0-0.1,0.1-0.1c-0.1,0.1-0.3,0.2-0.5,0.3c-0.2,0.1-0.4,0.1-0.5-0.1c0-0.1,0-0.2,0-0.3c-0.1,0.1-0.2,0.3-0.2,0.5
						c0,0.1,0,0.2,0.1,0.2c0.1,0.1,0.2,0.1,0.3,0.1c0.2,0,0.4-0.1,0.6-0.2c0.1,0.1,0.3,0.2,0.4,0.1c0.1,0,0.1,0,0.2-0.1
						c0,0,0.1,0,0.1,0c0,0,0,0,0.1,0c-0.1,0.1-0.2,0.1-0.3,0.2c-0.1,0-0.1,0.1-0.1,0.2C17.9,4,18,4.1,18,4.1
						c0.2,0.1,0.5,0.1,0.7-0.1c-0.1,0-0.3,0-0.4,0C18.2,4,18,4,18.1,3.8c0,0,0-0.1,0.1-0.1c0.1-0.1,0.3-0.2,0.4-0.3
						c-0.1,0-0.2,0-0.3,0c0,0-0.1,0-0.1-0.1c0,0,0,0,0-0.1C18.3,3.3,18.3,3.2,18.4,3.1L18.4,3.1z"/>
					<path id="Trazado_17609" class="st2" d="M15.7,1.3c0.3,0,0.6-0.1,0.9-0.2c0,0,0.1,0,0.1-0.1c-0.1,0-0.1,0-0.2,0
						c-0.1,0-0.2,0-0.2-0.1c-0.1-0.1,0-0.2,0-0.2c0,0,0,0,0,0c-0.3,0.1-0.6,0.2-0.7,0.4c0,0-0.1,0.1,0,0.2
						C15.6,1.3,15.7,1.3,15.7,1.3z"/>
					<path id="Trazado_17610" class="st2" d="M30.4,2c0,0,0.1,0,0.1,0c0.1,0,0.1-0.1,0.1-0.2c0-0.1-0.1-0.1-0.1-0.2
						c0.2,0.2,0.4,0.3,0.6,0.4c0.1,0,0.3,0.1,0.4-0.1c0-0.1,0-0.2,0-0.3c0,0,0,0,0-0.1c0.2,0.3,0.6,0.4,0.9,0.4c0.1,0,0.3,0,0.3-0.2
						c0-0.1,0-0.2-0.1-0.2c-0.1,0-0.2-0.1-0.2-0.1c0.1,0,0.1,0.2,0,0.2c-0.1,0-0.2,0-0.3,0c-0.4-0.2-0.7-0.4-1.1-0.6l0,0
						c0.1,0.1,0.2,0.2,0.3,0.3c-0.3,0.2-0.8-0.3-1-0.1c-0.1,0.1,0,0.2-0.1,0.3c-0.1,0.1-0.4,0-0.5,0C29.9,1.8,30.2,1.9,30.4,2
						L30.4,2z"/>
					<path id="Trazado_17611" class="st2" d="M29.1,1.5c-0.1,0.1-0.3,0-0.4,0c-0.2-0.1-0.3-0.2-0.5-0.3c0.1,0.1,0.2,0.1,0.3,0.2
						c0,0,0,0.1,0,0.1c0.2,0.2,0.5,0.3,0.8,0.3c0,0,0.1,0,0.1,0c0,0,0-0.1,0-0.1c0-0.2,0-0.4-0.2-0.5C29.2,1.1,29,1,28.9,1
						C29,1,29.1,1.1,29.2,1.2C29.2,1.3,29.2,1.4,29.1,1.5L29.1,1.5z"/>
					<path id="Trazado_17612" class="st2" d="M31.7,2.2c-0.1-0.1-0.2-0.1-0.3-0.2C31.5,2.1,31.6,2.2,31.7,2.2
						c-0.2,0.1-0.4,0.1-0.6,0c-0.1,0-0.3-0.1-0.3,0c0,0,0,0.1,0,0.1c0,0.1,0,0.1,0,0.2c0,0,0,0.1,0,0.1c0,0-0.1,0-0.1,0
						c-0.3-0.1-0.5-0.1-0.8-0.3c0.2,0.2,0.5,0.3,0.8,0.4c0.1,0,0.3,0,0.3-0.1s-0.1-0.2,0-0.3s0.6,0.1,0.8,0.1c0,0,0.1,0,0.1,0
						c0,0,0,0,0-0.1C31.8,2.3,31.8,2.2,31.7,2.2L31.7,2.2z"/>
					<path id="Trazado_17613" class="st2" d="M29.6,5.7c0.1,0,0.1-0.1,0.1-0.2c0-0.1,0-0.2-0.1-0.2c-0.1-0.3-0.3-0.5-0.6-0.6
						c0.2,0.1,0.3,0.3,0.4,0.5c0,0.1,0.1,0.1,0.1,0.2c0,0.1-0.1,0.1-0.1,0.2c-0.1,0-0.2-0.1-0.3-0.2c0.2,0.1,0.3,0.3,0.4,0.5
						c0.1,0.2,0,0.2,0,0.4c0,0-0.1-0.1-0.1-0.1c-0.1,0-0.2-0.1-0.2-0.1l-0.1,0c0.1,0,0.1,0.1,0.1,0.2c0,0.1,0.1,0.2,0.2,0.3
						c0,0,0.1,0.1,0.1,0.1c0.1,0,0.1-0.1,0.1-0.2c0-0.1,0-0.1-0.1-0.2c0.1,0,0.2,0,0.2-0.1l0,0C29.7,6,29.7,5.8,29.6,5.7L29.6,5.7z"
						/>
					<path id="Trazado_17614" class="st2" d="M29.7,6.2L29.7,6.2L29.7,6.2z"/>
					<path id="Trazado_17615" class="st2" d="M29.7,3.5c-0.1,0-0.2,0-0.3,0c0.1,0,0.2,0.1,0.3,0.1c0.1,0,0.1,0.1,0.2,0.1
						c0.1,0.1,0.1,0.2,0,0.2c-0.1,0.1-0.1,0.1-0.2,0.1c-0.1,0-0.3,0-0.4,0c0.2,0.2,0.5,0.2,0.7,0.1C30,4.1,30,4.1,30.1,4
						c0-0.1,0-0.1-0.1-0.2C29.9,3.7,29.7,3.6,29.7,3.5c0.1,0.1,0.2,0.2,0.4,0.2c0.1,0,0.3,0,0.4-0.1c0.2,0.1,0.4,0.2,0.6,0.2
						c0.1,0,0.2,0,0.3-0.1c0-0.1,0.1-0.1,0.1-0.2c0-0.2-0.1-0.4-0.2-0.5c0.1,0.1,0.1,0.2,0,0.3c-0.1,0.1-0.3,0.1-0.5,0.1
						c-0.2-0.1-0.3-0.2-0.5-0.3c0,0,0,0,0.1,0.1c0,0.1,0,0.2,0,0.2c0,0-0.1,0-0.2,0c-0.2,0-0.4-0.1-0.5-0.2c0.1,0.1,0.1,0.1,0.2,0.2
						c0,0,0,0,0,0.1C29.8,3.5,29.7,3.5,29.7,3.5L29.7,3.5z"/>
					<path id="Trazado_17616" class="st2" d="M30.2,3.1c0,0-0.1-0.1-0.1-0.1C30.1,3,30.2,3,30.2,3.1z"/>
					<path id="Trazado_17617" class="st2" d="M32.6,1.4C32.6,1.4,32.6,1.4,32.6,1.4C32.5,1.4,32.5,1.4,32.6,1.4
						c0.1,0.2,0.4,0.3,0.7,0.2c0.4,0.1,0.8,0.3,1.1,0.7c0,0,0.1,0.1,0.1,0.2c0,0.1-0.1,0.1-0.1,0.1c0.4,0.2,0.8,0.4,1.1,0.7
						c0.1,0.1,0.2,0.3,0.1,0.5c0.1,0.1,0.2,0.1,0.4,0.1c0.1,0,0.1,0,0.2,0c0.1-0.1,0.1-0.2,0-0.3c-0.3-0.5-0.7-0.8-1.3-1
						c0.1,0,0.1-0.1,0.1-0.2c0-0.1-0.1-0.1-0.1-0.2C34,1.5,32.8,1.3,32,0.9C32.2,1,32.4,1.2,32.6,1.4C32.6,1.3,32.6,1.4,32.6,1.4
						L32.6,1.4z"/>
					<path id="Trazado_17618" class="st2" d="M21.6,3.9c-0.1,0-0.2-0.1-0.2-0.2s0.1-0.2,0.2-0.2c0.1,0,0.2,0.1,0.2,0.2
						C21.9,3.8,21.8,3.9,21.6,3.9z M21.6,3.6c-0.1,0-0.1,0-0.1,0.1s0,0.1,0.1,0.1s0.1,0,0.1-0.1v0C21.7,3.6,21.7,3.6,21.6,3.6
						L21.6,3.6z"/>
				</g>
				<g class="st3">
					<path class="st2" d="M63.7,16.6h-4.9v-2.8H72v2.8h-4.9v12.7h-3.4V16.6z"/>
					<path class="st2" d="M73.8,13.8h3.4v15.5h-3.4V13.8z"/>
					<path class="st2" d="M83.5,28.5c-1.2-0.7-2.1-1.6-2.7-2.8c-0.6-1.2-0.9-2.6-0.9-4.2s0.3-3,0.9-4.2c0.6-1.2,1.5-2.1,2.7-2.8
						c1.2-0.7,2.5-1,4.1-1c1,0,2,0.2,2.9,0.5c0.9,0.3,1.7,0.8,2.3,1.3l-1.1,2.4c-0.7-0.5-1.3-0.9-2-1.1c-0.7-0.2-1.4-0.4-2.1-0.4
						c-1.4,0-2.4,0.4-3.2,1.3c-0.7,0.9-1.1,2.2-1.1,3.9s0.4,3,1.1,3.9c0.7,0.9,1.8,1.3,3.2,1.3c0.7,0,1.4-0.1,2.1-0.4
						c0.7-0.2,1.3-0.6,2-1.1l1.1,2.4c-0.6,0.6-1.4,1-2.3,1.3s-1.9,0.5-2.9,0.5C86,29.5,84.6,29.1,83.5,28.5z"/>
				</g>
			</g>
		</g>
	</g>
</g>
</svg>
